%TF.GenerationSoftware,KiCad,Pcbnew,7.0.8*%
%TF.CreationDate,2023-10-13T02:07:57+02:00*%
%TF.ProjectId,keyboard_steamdeck,6b657962-6f61-4726-945f-737465616d64,V 1.0*%
%TF.SameCoordinates,Original*%
%TF.FileFunction,Soldermask,Top*%
%TF.FilePolarity,Negative*%
%FSLAX46Y46*%
G04 Gerber Fmt 4.6, Leading zero omitted, Abs format (unit mm)*
G04 Created by KiCad (PCBNEW 7.0.8) date 2023-10-13 02:07:57*
%MOMM*%
%LPD*%
G01*
G04 APERTURE LIST*
G04 Aperture macros list*
%AMFreePoly0*
4,1,17,-0.600000,0.455000,-0.180000,0.875000,0.300000,0.875000,0.368685,0.867031,0.469541,0.822499,0.547499,0.744541,0.592031,0.643685,0.600000,0.575000,0.600000,-0.575000,0.592031,-0.643685,0.547499,-0.744541,0.469541,-0.822499,0.368685,-0.867031,0.300000,-0.875000,-0.180000,-0.875000,-0.600000,-0.455000,-0.600000,0.455000,-0.600000,0.455000,$1*%
G04 Aperture macros list end*
%ADD10C,1.700000*%
%ADD11C,4.000000*%
%ADD12C,2.200000*%
%ADD13C,3.200000*%
%ADD14FreePoly0,180.000000*%
%ADD15O,1.200000X2.150000*%
%ADD16FreePoly0,0.000000*%
%ADD17R,1.700000X1.700000*%
%ADD18O,1.700000X1.700000*%
G04 APERTURE END LIST*
D10*
%TO.C,B15*%
X134366000Y-137160000D03*
D11*
X139446000Y-137160000D03*
D10*
X144526000Y-137160000D03*
D12*
X141986000Y-132080000D03*
X135636000Y-134620000D03*
%TD*%
D13*
%TO.C,H2*%
X110490000Y-108208000D03*
%TD*%
D10*
%TO.C,B36*%
X230886000Y-156464000D03*
D11*
X235966000Y-156464000D03*
D10*
X241046000Y-156464000D03*
D12*
X238506000Y-151384000D03*
X232156000Y-153924000D03*
%TD*%
D10*
%TO.C,B2*%
X76454000Y-98552000D03*
D11*
X81534000Y-98552000D03*
D10*
X86614000Y-98552000D03*
D12*
X84074000Y-93472000D03*
X77724000Y-96012000D03*
%TD*%
D10*
%TO.C,B40*%
X250190000Y-156464000D03*
D11*
X255270000Y-156464000D03*
D10*
X260350000Y-156464000D03*
D12*
X257810000Y-151384000D03*
X251460000Y-153924000D03*
%TD*%
D10*
%TO.C,B34*%
X230886000Y-117856000D03*
D11*
X235966000Y-117856000D03*
D10*
X241046000Y-117856000D03*
D12*
X238506000Y-112776000D03*
X232156000Y-115316000D03*
%TD*%
D10*
%TO.C,B9*%
X95758000Y-137160000D03*
D11*
X100838000Y-137160000D03*
D10*
X105918000Y-137160000D03*
D12*
X103378000Y-132080000D03*
X97028000Y-134620000D03*
%TD*%
D10*
%TO.C,B8*%
X95758000Y-117856000D03*
D11*
X100838000Y-117856000D03*
D10*
X105918000Y-117856000D03*
D12*
X103378000Y-112776000D03*
X97028000Y-115316000D03*
%TD*%
D10*
%TO.C,B18*%
X153670000Y-117856000D03*
D11*
X158750000Y-117856000D03*
D10*
X163830000Y-117856000D03*
D12*
X161290000Y-112776000D03*
X154940000Y-115316000D03*
%TD*%
D10*
%TO.C,B25*%
X192278000Y-98552000D03*
D11*
X197358000Y-98552000D03*
D10*
X202438000Y-98552000D03*
D12*
X199898000Y-93472000D03*
X193548000Y-96012000D03*
%TD*%
D10*
%TO.C,B39*%
X250190000Y-137160000D03*
D11*
X255270000Y-137160000D03*
D10*
X260350000Y-137160000D03*
D12*
X257810000Y-132080000D03*
X251460000Y-134620000D03*
%TD*%
D10*
%TO.C,B29*%
X211582000Y-98552000D03*
D11*
X216662000Y-98552000D03*
D10*
X221742000Y-98552000D03*
D12*
X219202000Y-93472000D03*
X212852000Y-96012000D03*
%TD*%
D10*
%TO.C,B5*%
X134366000Y-98552000D03*
D11*
X139446000Y-98552000D03*
D10*
X144526000Y-98552000D03*
D12*
X141986000Y-93472000D03*
X135636000Y-96012000D03*
%TD*%
D10*
%TO.C,B13*%
X115062000Y-156464000D03*
D11*
X120142000Y-156464000D03*
D10*
X125222000Y-156464000D03*
D12*
X122682000Y-151384000D03*
X116332000Y-153924000D03*
%TD*%
D10*
%TO.C,B27*%
X192278000Y-137160000D03*
D11*
X197358000Y-137160000D03*
D10*
X202438000Y-137160000D03*
D12*
X199898000Y-132080000D03*
X193548000Y-134620000D03*
%TD*%
D10*
%TO.C,B41*%
X269494000Y-98552000D03*
D11*
X274574000Y-98552000D03*
D10*
X279654000Y-98552000D03*
D12*
X277114000Y-93472000D03*
X270764000Y-96012000D03*
%TD*%
D10*
%TO.C,B26*%
X192278000Y-117856000D03*
D11*
X197358000Y-117856000D03*
D10*
X202438000Y-117856000D03*
D12*
X199898000Y-112776000D03*
X193548000Y-115316000D03*
%TD*%
D10*
%TO.C,B35*%
X230886000Y-137160000D03*
D11*
X235966000Y-137160000D03*
D10*
X241046000Y-137160000D03*
D12*
X238506000Y-132080000D03*
X232156000Y-134620000D03*
%TD*%
D10*
%TO.C,B30*%
X211582000Y-117856000D03*
D11*
X216662000Y-117856000D03*
D10*
X221742000Y-117856000D03*
D12*
X219202000Y-112776000D03*
X212852000Y-115316000D03*
%TD*%
D10*
%TO.C,B33*%
X230886000Y-98552000D03*
D11*
X235966000Y-98552000D03*
D10*
X241046000Y-98552000D03*
D12*
X238506000Y-93472000D03*
X232156000Y-96012000D03*
%TD*%
D10*
%TO.C,B23*%
X172974000Y-137160000D03*
D11*
X178054000Y-137160000D03*
D10*
X183134000Y-137160000D03*
D12*
X180594000Y-132080000D03*
X174244000Y-134620000D03*
%TD*%
D10*
%TO.C,B3*%
X95758000Y-98552000D03*
D11*
X100838000Y-98552000D03*
D10*
X105918000Y-98552000D03*
D12*
X103378000Y-93472000D03*
X97028000Y-96012000D03*
%TD*%
D13*
%TO.C,H1*%
X110490000Y-146812000D03*
%TD*%
D10*
%TO.C,B12*%
X115062000Y-137160000D03*
D11*
X120142000Y-137160000D03*
D10*
X125222000Y-137160000D03*
D12*
X122682000Y-132080000D03*
X116332000Y-134620000D03*
%TD*%
D10*
%TO.C,B10*%
X95758000Y-156464000D03*
D11*
X100838000Y-156464000D03*
D10*
X105918000Y-156464000D03*
D12*
X103378000Y-151384000D03*
X97028000Y-153924000D03*
%TD*%
D10*
%TO.C,B17*%
X153670000Y-98552000D03*
D11*
X158750000Y-98552000D03*
D10*
X163830000Y-98552000D03*
D12*
X161290000Y-93472000D03*
X154940000Y-96012000D03*
%TD*%
D10*
%TO.C,B44*%
X269494000Y-156464000D03*
D11*
X274574000Y-156464000D03*
D10*
X279654000Y-156464000D03*
D12*
X277114000Y-151384000D03*
X270764000Y-153924000D03*
%TD*%
D10*
%TO.C,B16*%
X134366000Y-156464000D03*
D11*
X139446000Y-156464000D03*
D10*
X144526000Y-156464000D03*
D12*
X141986000Y-151384000D03*
X135636000Y-153924000D03*
%TD*%
D10*
%TO.C,B7*%
X76454000Y-156464000D03*
D11*
X81534000Y-156464000D03*
D10*
X86614000Y-156464000D03*
D12*
X84074000Y-151384000D03*
X77724000Y-153924000D03*
%TD*%
D10*
%TO.C,B28*%
X192278000Y-156464000D03*
D11*
X197358000Y-156464000D03*
D10*
X202438000Y-156464000D03*
D12*
X199898000Y-151384000D03*
X193548000Y-153924000D03*
%TD*%
D10*
%TO.C,B21*%
X172974000Y-98552000D03*
D11*
X178054000Y-98552000D03*
D10*
X183134000Y-98552000D03*
D12*
X180594000Y-93472000D03*
X174244000Y-96012000D03*
%TD*%
D13*
%TO.C,H3*%
X245618000Y-108204000D03*
%TD*%
D10*
%TO.C,B6*%
X76454000Y-137160000D03*
D11*
X81534000Y-137160000D03*
D10*
X86614000Y-137160000D03*
D12*
X84074000Y-132080000D03*
X77724000Y-134620000D03*
%TD*%
D10*
%TO.C,B14*%
X134366000Y-117856000D03*
D11*
X139446000Y-117856000D03*
D10*
X144526000Y-117856000D03*
D12*
X141986000Y-112776000D03*
X135636000Y-115316000D03*
%TD*%
D10*
%TO.C,B38*%
X250190000Y-117856000D03*
D11*
X255270000Y-117856000D03*
D10*
X260350000Y-117856000D03*
D12*
X257810000Y-112776000D03*
X251460000Y-115316000D03*
%TD*%
D10*
%TO.C,B1*%
X76454000Y-117856000D03*
D11*
X81534000Y-117856000D03*
D10*
X86614000Y-117856000D03*
D12*
X84074000Y-112776000D03*
X77724000Y-115316000D03*
%TD*%
D10*
%TO.C,B20*%
X153670000Y-156464000D03*
D11*
X158750000Y-156464000D03*
D10*
X163830000Y-156464000D03*
D12*
X161290000Y-151384000D03*
X154940000Y-153924000D03*
%TD*%
D10*
%TO.C,B32*%
X211582000Y-156464000D03*
D11*
X216662000Y-156464000D03*
D10*
X221742000Y-156464000D03*
D12*
X219202000Y-151384000D03*
X212852000Y-153924000D03*
%TD*%
D10*
%TO.C,B11*%
X115062000Y-117856000D03*
D11*
X120142000Y-117856000D03*
D10*
X125222000Y-117856000D03*
D12*
X122682000Y-112776000D03*
X116332000Y-115316000D03*
%TD*%
D10*
%TO.C,B37*%
X250190000Y-98552000D03*
D11*
X255270000Y-98552000D03*
D10*
X260350000Y-98552000D03*
D12*
X257810000Y-93472000D03*
X251460000Y-96012000D03*
%TD*%
D10*
%TO.C,B4*%
X115062000Y-98552000D03*
D11*
X120142000Y-98552000D03*
D10*
X125222000Y-98552000D03*
D12*
X122682000Y-93472000D03*
X116332000Y-96012000D03*
%TD*%
D13*
%TO.C,H4*%
X245618000Y-146812000D03*
%TD*%
D10*
%TO.C,B43*%
X269494000Y-137160000D03*
D11*
X274574000Y-137160000D03*
D10*
X279654000Y-137160000D03*
D12*
X277114000Y-132080000D03*
X270764000Y-134620000D03*
%TD*%
D10*
%TO.C,B22*%
X172974000Y-117856000D03*
D11*
X178054000Y-117856000D03*
D10*
X183134000Y-117856000D03*
D12*
X180594000Y-112776000D03*
X174244000Y-115316000D03*
%TD*%
D10*
%TO.C,B19*%
X153670000Y-137160000D03*
D11*
X158750000Y-137160000D03*
D10*
X163830000Y-137160000D03*
D12*
X161290000Y-132080000D03*
X154940000Y-134620000D03*
%TD*%
D10*
%TO.C,B42*%
X269494000Y-117856000D03*
D11*
X274574000Y-117856000D03*
D10*
X279654000Y-117856000D03*
D12*
X277114000Y-112776000D03*
X270764000Y-115316000D03*
%TD*%
D10*
%TO.C,B24*%
X172974000Y-156464000D03*
D11*
X178054000Y-156464000D03*
D10*
X183134000Y-156464000D03*
D12*
X180594000Y-151384000D03*
X174244000Y-153924000D03*
%TD*%
D10*
%TO.C,B31*%
X211582000Y-137160000D03*
D11*
X216662000Y-137160000D03*
D10*
X221742000Y-137160000D03*
D12*
X219202000Y-132080000D03*
X212852000Y-134620000D03*
%TD*%
D14*
%TO.C,J3*%
X270560000Y-93343000D03*
D15*
X270410000Y-90343000D03*
D16*
X261220000Y-93343000D03*
D15*
X261370000Y-90343000D03*
%TD*%
D17*
%TO.C,J2*%
X282702000Y-90424000D03*
D18*
X280162000Y-90424000D03*
X277622000Y-90424000D03*
X275082000Y-90424000D03*
%TD*%
M02*
