M48
; DRILL file {KiCad 7.0.8} date Fri Oct 13 02:07:52 2023
; FORMAT={-:-/ absolute / inch / decimal}
; #@! TF.CreationDate,2023-10-13T02:07:52+02:00
; #@! TF.GenerationSoftware,Kicad,Pcbnew,7.0.8
; #@! TF.FileFunction,NonPlated,1,4,NPTH
FMAT,2
INCH
; #@! TA.AperFunction,NonPlated,NPTH,ComponentDrill
T1C0.0669
; #@! TA.AperFunction,NonPlated,NPTH,ComponentDrill
T2C0.1260
; #@! TA.AperFunction,NonPlated,NPTH,ComponentDrill
T3C0.1575
%
G90
G05
T1
X3.01Y-3.88
X3.01Y-4.64
X3.01Y-5.4
X3.01Y-6.16
X3.41Y-3.88
X3.41Y-4.64
X3.41Y-5.4
X3.41Y-6.16
X3.77Y-3.88
X3.77Y-4.64
X3.77Y-5.4
X3.77Y-6.16
X4.17Y-3.88
X4.17Y-4.64
X4.17Y-5.4
X4.17Y-6.16
X4.53Y-3.88
X4.53Y-4.64
X4.53Y-5.4
X4.53Y-6.16
X4.93Y-3.88
X4.93Y-4.64
X4.93Y-5.4
X4.93Y-6.16
X5.29Y-3.88
X5.29Y-4.64
X5.29Y-5.4
X5.29Y-6.16
X5.69Y-3.88
X5.69Y-4.64
X5.69Y-5.4
X5.69Y-6.16
X6.05Y-3.88
X6.05Y-4.64
X6.05Y-5.4
X6.05Y-6.16
X6.45Y-3.88
X6.45Y-4.64
X6.45Y-5.4
X6.45Y-6.16
X6.81Y-3.88
X6.81Y-4.64
X6.81Y-5.4
X6.81Y-6.16
X7.21Y-3.88
X7.21Y-4.64
X7.21Y-5.4
X7.21Y-6.16
X7.57Y-3.88
X7.57Y-4.64
X7.57Y-5.4
X7.57Y-6.16
X7.97Y-3.88
X7.97Y-4.64
X7.97Y-5.4
X7.97Y-6.16
X8.33Y-3.88
X8.33Y-4.64
X8.33Y-5.4
X8.33Y-6.16
X8.73Y-3.88
X8.73Y-4.64
X8.73Y-5.4
X8.73Y-6.16
X9.09Y-3.88
X9.09Y-4.64
X9.09Y-5.4
X9.09Y-6.16
X9.49Y-3.88
X9.49Y-4.64
X9.49Y-5.4
X9.49Y-6.16
X9.85Y-3.88
X9.85Y-4.64
X9.85Y-5.4
X9.85Y-6.16
X10.25Y-3.88
X10.25Y-4.64
X10.25Y-5.4
X10.25Y-6.16
X10.61Y-3.88
X10.61Y-4.64
X10.61Y-5.4
X10.61Y-6.16
X11.01Y-3.88
X11.01Y-4.64
X11.01Y-5.4
X11.01Y-6.16
T2
X4.35Y-4.2602
X4.35Y-5.78
X9.67Y-4.26
X9.67Y-5.78
T3
X3.21Y-3.88
X3.21Y-4.64
X3.21Y-5.4
X3.21Y-6.16
X3.97Y-3.88
X3.97Y-4.64
X3.97Y-5.4
X3.97Y-6.16
X4.73Y-3.88
X4.73Y-4.64
X4.73Y-5.4
X4.73Y-6.16
X5.49Y-3.88
X5.49Y-4.64
X5.49Y-5.4
X5.49Y-6.16
X6.25Y-3.88
X6.25Y-4.64
X6.25Y-5.4
X6.25Y-6.16
X7.01Y-3.88
X7.01Y-4.64
X7.01Y-5.4
X7.01Y-6.16
X7.77Y-3.88
X7.77Y-4.64
X7.77Y-5.4
X7.77Y-6.16
X8.53Y-3.88
X8.53Y-4.64
X8.53Y-5.4
X8.53Y-6.16
X9.29Y-3.88
X9.29Y-4.64
X9.29Y-5.4
X9.29Y-6.16
X10.05Y-3.88
X10.05Y-4.64
X10.05Y-5.4
X10.05Y-6.16
X10.81Y-3.88
X10.81Y-4.64
X10.81Y-5.4
X10.81Y-6.16
T0
M30
