M48
; DRILL file {KiCad 7.0.8} date Fri Oct 13 02:07:52 2023
; FORMAT={-:-/ absolute / inch / decimal}
; #@! TF.CreationDate,2023-10-13T02:07:52+02:00
; #@! TF.GenerationSoftware,Kicad,Pcbnew,7.0.8
; #@! TF.FileFunction,Plated,1,4,PTH
FMAT,2
INCH
; #@! TA.AperFunction,Plated,PTH,ViaDrill
T1C0.0157
; #@! TA.AperFunction,Plated,PTH,ComponentDrill
T2C0.0256
; #@! TA.AperFunction,Plated,PTH,ComponentDrill
T3C0.0394
; #@! TA.AperFunction,Plated,PTH,ComponentDrill
T4C0.0591
%
G90
G05
T1
X2.9602Y-4.398
X2.9602Y-5.146
X2.9602Y-5.9137
X2.9799Y-3.8074
X2.9799Y-4.5751
X2.9799Y-5.3231
X2.9799Y-6.0909
X2.9996Y-4.9098
X2.9996Y-5.6578
X2.9996Y-6.4255
X3.0193Y-3.9452
X3.0193Y-4.7129
X3.0193Y-5.4609
X3.0193Y-6.2287
X3.098Y-3.8468
X3.098Y-4.6145
X3.098Y-4.7129
X3.098Y-5.3625
X3.098Y-5.4609
X3.098Y-6.1302
X3.098Y-6.2287
X3.1177Y-4.0043
X3.1177Y-4.083
X3.1177Y-4.831
X3.1177Y-4.9098
X3.1177Y-5.5791
X3.1177Y-5.6578
X3.1177Y-6.3468
X3.1177Y-6.4255
X3.2555Y-4.5357
X3.2555Y-4.7523
X3.2555Y-4.831
X3.2555Y-4.9098
X3.2555Y-5.2838
X3.2555Y-5.5003
X3.2555Y-5.5791
X3.2555Y-5.6578
X3.2555Y-6.0515
X3.2555Y-6.268
X3.2555Y-6.3468
X3.2555Y-6.4255
X3.2752Y-3.7877
X3.2752Y-4.0043
X3.2752Y-4.083
X3.3539Y-3.7483
X3.3539Y-4.0043
X3.3539Y-4.083
X3.3539Y-4.831
X3.3539Y-4.9098
X3.3539Y-5.5791
X3.3539Y-5.6578
X3.3539Y-6.3468
X3.3539Y-6.4255
X3.3933Y-4.4176
X3.3933Y-5.1657
X3.3933Y-5.9334
X3.413Y-4.2405
X3.728Y-3.8074
X3.728Y-4.398
X3.728Y-5.146
X3.728Y-5.9137
X3.7476Y-4.5751
X3.7476Y-5.3231
X3.7476Y-6.0909
X3.7673Y-3.9452
X3.7673Y-4.2405
X3.7673Y-4.9098
X3.7673Y-5.6578
X3.7673Y-6.4255
X3.787Y-4.7129
X3.787Y-5.4609
X3.787Y-6.2287
X3.8579Y-3.8468
X3.8657Y-4.0043
X3.8657Y-4.083
X3.8657Y-4.6145
X3.8657Y-4.7129
X3.8657Y-5.3625
X3.8657Y-5.4609
X3.8657Y-6.1302
X3.8657Y-6.2287
X3.8854Y-4.831
X3.8854Y-4.9098
X3.8854Y-5.5791
X3.8854Y-5.6578
X3.8854Y-6.3468
X3.8854Y-6.4255
X4.0035Y-4.2405
X4.0232Y-3.7877
X4.0232Y-4.0043
X4.0232Y-4.083
X4.0232Y-4.5357
X4.0232Y-4.7523
X4.0232Y-4.831
X4.0232Y-4.9098
X4.0232Y-5.2838
X4.0232Y-5.5003
X4.0232Y-5.5791
X4.0232Y-5.6578
X4.0232Y-6.0515
X4.0232Y-6.268
X4.0232Y-6.3468
X4.0232Y-6.4255
X4.102Y-3.7483
X4.102Y-4.0043
X4.102Y-4.083
X4.1217Y-4.831
X4.1217Y-4.9098
X4.1217Y-5.5791
X4.1217Y-5.6578
X4.1217Y-6.3468
X4.1217Y-6.4255
X4.1413Y-4.398
X4.161Y-5.1657
X4.161Y-5.9334
X4.2004Y-4.2405
X4.476Y-5.146
X4.476Y-5.9137
X4.4957Y-3.8074
X4.4957Y-4.398
X4.4957Y-5.3231
X4.4957Y-6.0909
X4.5154Y-4.2405
X4.5154Y-4.5751
X4.5154Y-5.6578
X4.5154Y-6.4255
X4.535Y-3.9452
X4.535Y-4.9098
X4.535Y-5.4609
X4.535Y-6.2287
X4.539Y-4.7011
X4.6138Y-3.8468
X4.6138Y-5.3625
X4.6138Y-5.4609
X4.6138Y-6.1302
X4.6138Y-6.2287
X4.6217Y-4.6106
X4.6335Y-4.0043
X4.6335Y-4.083
X4.6335Y-4.7129
X4.6335Y-5.5791
X4.6335Y-5.6578
X4.6335Y-6.3468
X4.6335Y-6.4255
X4.6531Y-4.831
X4.6531Y-4.9098
X4.7516Y-4.2405
X4.7713Y-5.2838
X4.7713Y-5.5003
X4.7713Y-5.5791
X4.7713Y-5.6578
X4.7713Y-6.0515
X4.7713Y-6.268
X4.7713Y-6.3468
X4.7713Y-6.4255
X4.7909Y-3.7877
X4.7909Y-4.0043
X4.7909Y-4.083
X4.7909Y-4.5357
X4.7909Y-4.7523
X4.7909Y-4.831
X4.7909Y-4.9098
X4.8697Y-3.7483
X4.8697Y-4.0043
X4.8697Y-4.083
X4.8697Y-5.5791
X4.8697Y-5.6578
X4.8697Y-6.3468
X4.8697Y-6.4255
X4.8894Y-4.831
X4.8894Y-4.9098
X4.9091Y-5.1657
X4.9091Y-5.9334
X4.9287Y-4.4176
X4.9484Y-4.2405
X5.2437Y-4.398
X5.2437Y-5.146
X5.2437Y-5.9137
X5.2634Y-3.8074
X5.2634Y-4.2405
X5.2634Y-4.5751
X5.2634Y-5.3231
X5.2634Y-6.0909
X5.2831Y-4.9098
X5.2831Y-5.6578
X5.2831Y-6.4255
X5.3028Y-3.9452
X5.3028Y-4.7129
X5.3028Y-5.4609
X5.3028Y-6.2287
X5.3815Y-3.8468
X5.3815Y-4.6145
X5.3815Y-4.7129
X5.3815Y-5.3625
X5.3815Y-5.4609
X5.3815Y-6.1302
X5.3815Y-6.2287
X5.4012Y-4.0043
X5.4012Y-4.083
X5.4012Y-4.831
X5.4012Y-4.9098
X5.4012Y-5.5791
X5.4012Y-5.6578
X5.4012Y-6.3468
X5.4012Y-6.4255
X5.4602Y-4.2405
X5.539Y-4.5357
X5.539Y-4.7523
X5.539Y-4.831
X5.539Y-4.9098
X5.539Y-5.2838
X5.539Y-5.5003
X5.539Y-5.5791
X5.539Y-5.6578
X5.539Y-6.0515
X5.539Y-6.268
X5.539Y-6.3468
X5.539Y-6.4255
X5.5587Y-3.7877
X5.5587Y-4.0043
X5.5587Y-4.083
X5.6374Y-3.7483
X5.6374Y-4.0043
X5.6374Y-4.083
X5.6374Y-4.831
X5.6374Y-4.9098
X5.6374Y-5.5791
X5.6374Y-5.6578
X5.6374Y-6.3468
X5.6374Y-6.4255
X5.6571Y-4.2405
X5.6768Y-4.4176
X5.6768Y-5.1657
X5.6768Y-5.9334
X5.8539Y-4.2405
X6.0075Y-5.146
X6.0114Y-4.398
X6.0114Y-5.9137
X6.0213Y-3.8074
X6.0272Y-5.3231
X6.0311Y-4.5751
X6.0311Y-6.0909
X6.0469Y-5.6578
X6.0508Y-4.2405
X6.0508Y-4.9098
X6.0508Y-6.4255
X6.0606Y-3.9452
X6.0665Y-5.4609
X6.0705Y-4.7129
X6.0705Y-6.2287
X6.1394Y-3.8468
X6.1413Y-4.6145
X6.1453Y-5.3625
X6.1453Y-5.4609
X6.1492Y-4.7129
X6.1492Y-6.1302
X6.1492Y-6.2287
X6.1591Y-4.0043
X6.1591Y-4.083
X6.165Y-5.5791
X6.165Y-5.6578
X6.1689Y-4.831
X6.1689Y-4.9098
X6.1689Y-6.3468
X6.1689Y-6.4255
X6.287Y-4.2405
X6.3028Y-5.2838
X6.3028Y-5.5003
X6.3028Y-5.5791
X6.3028Y-5.6578
X6.3067Y-4.5357
X6.3067Y-4.7523
X6.3067Y-4.831
X6.3067Y-4.9098
X6.3067Y-6.0515
X6.3067Y-6.268
X6.3067Y-6.3468
X6.3067Y-6.4255
X6.3165Y-3.7877
X6.3165Y-4.0043
X6.3165Y-4.083
X6.3953Y-3.7483
X6.3953Y-4.0043
X6.3953Y-4.083
X6.4012Y-5.5791
X6.4012Y-5.6578
X6.4051Y-4.831
X6.4051Y-4.9098
X6.4051Y-6.3468
X6.4051Y-6.4255
X6.4406Y-5.1657
X6.4445Y-4.4176
X6.4445Y-5.9334
X6.5626Y-4.2405
X6.5626Y-4.3192
X6.7594Y-4.2405
X6.7594Y-4.3192
X6.7594Y-4.398
X6.7594Y-5.146
X6.7594Y-5.9137
X6.7791Y-3.8074
X6.7791Y-4.5751
X6.7791Y-5.3231
X6.7791Y-6.0909
X6.7988Y-4.9098
X6.7988Y-5.6578
X6.7988Y-6.4255
X6.8185Y-3.9452
X6.8185Y-4.7129
X6.8185Y-5.4609
X6.8185Y-6.2287
X6.8972Y-3.8468
X6.8972Y-4.6145
X6.8972Y-4.7129
X6.8972Y-5.3625
X6.8972Y-5.4609
X6.8972Y-6.1302
X6.8972Y-6.2287
X6.9169Y-4.0043
X6.9169Y-4.083
X6.9169Y-4.831
X6.9169Y-4.9098
X6.9169Y-5.5791
X6.9169Y-5.6578
X6.9169Y-6.3468
X6.9169Y-6.4255
X6.9563Y-4.2405
X6.9563Y-4.3192
X7.0547Y-4.5357
X7.0547Y-4.7523
X7.0547Y-4.831
X7.0547Y-4.9098
X7.0547Y-5.2838
X7.0547Y-5.5003
X7.0547Y-5.5791
X7.0547Y-5.6578
X7.0547Y-6.0515
X7.0547Y-6.268
X7.0547Y-6.3468
X7.0547Y-6.4255
X7.0744Y-3.7877
X7.0744Y-4.0043
X7.0744Y-4.083
X7.1531Y-3.7483
X7.1531Y-4.0043
X7.1531Y-4.083
X7.1531Y-4.2405
X7.1531Y-4.3192
X7.1531Y-4.831
X7.1531Y-4.9098
X7.1531Y-5.5791
X7.1531Y-5.6578
X7.1531Y-6.3468
X7.1531Y-6.4255
X7.1925Y-4.4176
X7.1925Y-5.1657
X7.1925Y-5.9334
X7.35Y-4.2405
X7.35Y-4.3192
X7.5272Y-4.398
X7.5272Y-5.146
X7.5272Y-5.9137
X7.537Y-3.8074
X7.5469Y-4.2405
X7.5469Y-4.3192
X7.5469Y-4.5751
X7.5469Y-5.3231
X7.5469Y-6.0909
X7.5665Y-4.9098
X7.5665Y-5.6578
X7.5665Y-6.4255
X7.5764Y-3.9452
X7.5862Y-4.7129
X7.5862Y-5.4609
X7.5862Y-6.2287
X7.6551Y-3.8468
X7.665Y-4.6145
X7.665Y-4.7129
X7.665Y-5.3625
X7.665Y-5.4609
X7.665Y-6.1302
X7.665Y-6.2287
X7.6748Y-4.0043
X7.6748Y-4.083
X7.6846Y-4.831
X7.6846Y-4.9098
X7.6846Y-5.5791
X7.6846Y-5.6578
X7.6846Y-6.3468
X7.6846Y-6.4255
X7.7437Y-4.2405
X7.7437Y-4.3192
X7.8224Y-4.5357
X7.8224Y-4.7523
X7.8224Y-4.831
X7.8224Y-4.9098
X7.8224Y-5.2838
X7.8224Y-5.5003
X7.8224Y-5.5791
X7.8224Y-5.6578
X7.8224Y-6.0515
X7.8224Y-6.268
X7.8224Y-6.3468
X7.8224Y-6.4255
X7.8323Y-3.7877
X7.8323Y-4.0043
X7.8323Y-4.083
X7.911Y-3.7483
X7.911Y-4.0043
X7.911Y-4.083
X7.9209Y-4.831
X7.9209Y-4.9098
X7.9209Y-5.5791
X7.9209Y-5.6578
X7.9209Y-6.3468
X7.9209Y-6.4255
X7.9406Y-4.2405
X7.9406Y-4.3192
X7.9602Y-4.4176
X7.9602Y-5.1657
X7.9602Y-5.9334
X8.1374Y-4.2405
X8.1374Y-4.3192
X8.1374Y-4.4373
X8.2752Y-5.146
X8.2752Y-5.9137
X8.2949Y-3.8074
X8.2949Y-5.3231
X8.2949Y-6.0909
X8.3146Y-4.5751
X8.3146Y-5.6578
X8.3146Y-6.4255
X8.3343Y-3.9452
X8.3343Y-4.2405
X8.3343Y-4.3192
X8.3343Y-4.4373
X8.3343Y-4.9098
X8.3343Y-5.4609
X8.3343Y-6.2287
X8.3382Y-4.7011
X8.413Y-3.8468
X8.413Y-5.3625
X8.413Y-5.4609
X8.413Y-6.1302
X8.413Y-6.2287
X8.4209Y-4.6106
X8.4209Y-4.7208
X8.4327Y-4.0043
X8.4327Y-4.083
X8.4327Y-5.5791
X8.4327Y-5.6578
X8.4327Y-6.3468
X8.4327Y-6.4255
X8.4366Y-4.8271
X8.4524Y-4.9098
X8.5508Y-4.4373
X8.5705Y-4.2405
X8.5705Y-4.3192
X8.5705Y-5.2838
X8.5705Y-5.5003
X8.5705Y-5.5791
X8.5705Y-5.6578
X8.5705Y-6.0515
X8.5705Y-6.268
X8.5705Y-6.3468
X8.5705Y-6.4255
X8.5902Y-3.7877
X8.5902Y-4.0043
X8.5902Y-4.083
X8.5902Y-4.5357
X8.5902Y-4.7523
X8.5902Y-4.831
X8.5902Y-4.9098
X8.6689Y-3.7483
X8.6689Y-4.0043
X8.6689Y-4.083
X8.6689Y-5.5791
X8.6689Y-5.6578
X8.6689Y-6.3468
X8.6689Y-6.4255
X8.6886Y-4.831
X8.6886Y-4.9098
X8.7083Y-5.1657
X8.7083Y-5.9334
X8.728Y-4.4176
X8.8461Y-4.2405
X8.8461Y-4.3192
X8.8461Y-4.4176
X9.0429Y-4.2405
X9.0429Y-4.3192
X9.0429Y-4.4176
X9.0429Y-5.146
X9.0429Y-5.9137
X9.0528Y-3.8074
X9.0626Y-4.5751
X9.0626Y-5.3231
X9.0626Y-6.0909
X9.0823Y-4.9098
X9.0823Y-5.6578
X9.0823Y-6.4255
X9.0921Y-3.9452
X9.102Y-4.7129
X9.102Y-5.4609
X9.102Y-6.2287
X9.1709Y-3.8468
X9.1807Y-4.6145
X9.1807Y-4.7129
X9.1807Y-5.3625
X9.1807Y-5.4609
X9.1807Y-6.1302
X9.1807Y-6.2287
X9.1906Y-4.0043
X9.1906Y-4.083
X9.2004Y-4.831
X9.2004Y-4.9098
X9.2004Y-5.5791
X9.2004Y-5.6578
X9.2004Y-6.3468
X9.2004Y-6.4255
X9.2398Y-4.2405
X9.2398Y-4.3192
X9.2398Y-4.4176
X9.3126Y-4.4176
X9.3382Y-4.7523
X9.3382Y-4.831
X9.3382Y-4.9098
X9.3382Y-5.2838
X9.3382Y-5.5003
X9.3382Y-5.5791
X9.3382Y-5.6578
X9.3382Y-6.0515
X9.3382Y-6.268
X9.3382Y-6.3468
X9.3382Y-6.4255
X9.348Y-3.7877
X9.348Y-4.0043
X9.348Y-4.083
X9.348Y-4.3231
X9.348Y-4.5495
X9.3579Y-4.2326
X9.4268Y-3.7483
X9.4268Y-4.0043
X9.4268Y-4.083
X9.4268Y-4.3369
X9.4366Y-4.831
X9.4366Y-4.9098
X9.4366Y-5.5791
X9.4366Y-5.6578
X9.4366Y-6.3468
X9.4366Y-6.4255
X9.4406Y-4.2109
X9.4622Y-4.4846
X9.476Y-5.1657
X9.476Y-5.9334
X9.5823Y-3.5161
X9.5823Y-3.646
X9.5823Y-3.7759
X9.5823Y-3.8901
X9.5904Y-4.3642
X9.5961Y-4.209
X9.63Y-3.55
X9.7122Y-3.8901
X9.7405Y-3.6874
X9.7437Y-4.209
X9.7476Y-3.8231
X9.7476Y-4.0003
X9.7516Y-4.1204
X9.787Y-4.3644
X9.7891Y-3.7884
X9.8106Y-5.146
X9.8106Y-5.9137
X9.8224Y-4.5239
X9.8303Y-3.8231
X9.8303Y-3.9373
X9.8303Y-4.0043
X9.8303Y-4.083
X9.8303Y-4.583
X9.8303Y-5.3231
X9.8303Y-6.0909
X9.85Y-5.6578
X9.85Y-6.32
X9.85Y-6.4255
X9.8579Y-4.7011
X9.8645Y-4.1368
X9.8657Y-4.9058
X9.8697Y-5.4609
X9.8697Y-6.2287
X9.87Y-3.6066
X9.87Y-3.67
X9.9209Y-4.4649
X9.9386Y-4.2109
X9.9406Y-4.6066
X9.9406Y-4.7169
X9.9484Y-5.3625
X9.9484Y-5.4609
X9.9484Y-6.1302
X9.9484Y-6.2287
X9.9524Y-3.8428
X9.9563Y-4.9058
X9.9602Y-4.1007
X9.9681Y-3.5909
X9.9681Y-4.8113
X9.9681Y-5.5791
X9.9681Y-5.6578
X9.9681Y-6.3468
X9.9681Y-6.4255
X9.98Y-3.55
X9.9957Y-4.392
X9.9976Y-4.0731
X9.9976Y-4.1145
X9.9976Y-4.1519
X10.0232Y-3.9846
X10.05Y-4.52
X10.0547Y-4.331
X10.0744Y-3.6381
X10.0902Y-4.4885
X10.1059Y-3.7877
X10.1059Y-4.7326
X10.1059Y-5.2838
X10.1059Y-5.5003
X10.1059Y-5.5791
X10.1059Y-5.6578
X10.1059Y-6.0515
X10.1059Y-6.268
X10.1059Y-6.3468
X10.1059Y-6.4255
X10.1098Y-4.1027
X10.1098Y-4.3704
X10.1098Y-4.8271
X10.1098Y-4.9098
X10.1128Y-4.2758
X10.1157Y-3.9649
X10.1157Y-4.0043
X10.1157Y-4.0436
X10.15Y-4.2798
X10.1766Y-4.8692
X10.1846Y-4.3428
X10.19Y-3.62
X10.1925Y-3.894
X10.1934Y-4.0716
X10.1965Y-3.7483
X10.2043Y-4.5613
X10.2043Y-4.8271
X10.2043Y-4.9098
X10.2043Y-5.5791
X10.2043Y-5.6578
X10.2043Y-6.3468
X10.2043Y-6.4255
X10.2142Y-4.1027
X10.2232Y-4.0239
X10.2437Y-4.398
X10.2437Y-5.1657
X10.2437Y-5.9334
X10.2516Y-4.2917
X10.2516Y-4.4787
X10.2654Y-4.5751
X10.2732Y-4.3783
X10.2831Y-3.9905
X10.31Y-4.52
X10.31Y-4.61
X10.3106Y-3.894
X10.3126Y-4.3094
X10.352Y-4.4472
X10.352Y-4.5751
X10.36Y-4.64
X10.36Y-4.82
X10.3717Y-4.1224
X10.3717Y-4.2011
X10.3854Y-3.9255
X10.3896Y-4.4356
X10.4031Y-4.5771
X10.411Y-4.1617
X10.4137Y-3.7398
X10.4366Y-4.4767
X10.4397Y-3.8138
X10.4504Y-4.1224
X10.4504Y-4.2011
X10.4526Y-3.7371
X10.4681Y-3.9649
X10.4878Y-3.9137
X10.49Y-3.74
X10.5071Y-3.6418
X10.5075Y-4.5791
X10.5193Y-3.7823
X10.5193Y-4.4176
X10.5193Y-4.4649
X10.533Y-5.62
X10.5469Y-3.8743
X10.5488Y-4.1125
X10.5547Y-4.2444
X10.5587Y-4.2995
X10.5587Y-6.3892
X10.5684Y-3.64
X10.5902Y-4.5043
X10.5902Y-4.5751
X10.5979Y-5.3422
X10.598Y-4.3586
X10.598Y-4.9098
X10.598Y-5.146
X10.598Y-5.9137
X10.598Y-6.0909
X10.6177Y-4.7129
X10.6177Y-5.4609
X10.6177Y-5.6578
X10.6177Y-6.2287
X10.6177Y-6.4255
X10.6276Y-4.1913
X10.6335Y-3.9452
X10.654Y-4.1648
X10.6965Y-5.3625
X10.6965Y-6.1302
X10.7043Y-4.6027
X10.7083Y-4.1735
X10.7083Y-4.7287
X10.7122Y-3.8389
X10.7161Y-4.831
X10.7161Y-4.9098
X10.7161Y-5.4609
X10.7161Y-6.2287
X10.7358Y-5.5791
X10.7358Y-5.6578
X10.7437Y-3.5594
X10.7476Y-3.9885
X10.7732Y-3.6066
X10.7752Y-3.5141
X10.8539Y-4.0987
X10.8539Y-4.5357
X10.8539Y-4.7523
X10.8539Y-4.831
X10.8539Y-4.9098
X10.8657Y-3.772
X10.8657Y-4.1735
X10.8697Y-3.9924
X10.8736Y-5.2838
X10.8736Y-5.5003
X10.8736Y-5.5791
X10.8736Y-5.6578
X10.8736Y-6.0515
X10.8795Y-3.6066
X10.91Y-4.1322
X10.9425Y-4.0731
X10.9524Y-4.831
X10.9524Y-4.9098
X10.9602Y-4.1224
X10.9701Y-4.0043
X10.972Y-5.5791
X10.972Y-5.6578
X10.972Y-6.4255
X10.9917Y-4.4176
X10.9937Y-4.0712
X11.0114Y-3.8192
X11.0114Y-3.9413
X11.0114Y-5.1657
X11.0114Y-5.9334
X11.0311Y-3.6342
X11.0449Y-4.0003
X11.0803Y-4.0338
X11.1157Y-4.0003
X11.1217Y-3.6302
T3
X10.83Y-3.56
X10.93Y-3.56
X11.03Y-3.56
X11.13Y-3.56
T4
X3.06Y-3.78
X3.06Y-4.54
X3.06Y-5.3
X3.06Y-6.06
X3.31Y-3.68
X3.31Y-4.44
X3.31Y-5.2
X3.31Y-5.96
X3.82Y-3.78
X3.82Y-4.54
X3.82Y-5.3
X3.82Y-6.06
X4.07Y-3.68
X4.07Y-4.44
X4.07Y-5.2
X4.07Y-5.96
X4.58Y-3.78
X4.58Y-4.54
X4.58Y-5.3
X4.58Y-6.06
X4.83Y-3.68
X4.83Y-4.44
X4.83Y-5.2
X4.83Y-5.96
X5.34Y-3.78
X5.34Y-4.54
X5.34Y-5.3
X5.34Y-6.06
X5.59Y-3.68
X5.59Y-4.44
X5.59Y-5.2
X5.59Y-5.96
X6.1Y-3.78
X6.1Y-4.54
X6.1Y-5.3
X6.1Y-6.06
X6.35Y-3.68
X6.35Y-4.44
X6.35Y-5.2
X6.35Y-5.96
X6.86Y-3.78
X6.86Y-4.54
X6.86Y-5.3
X6.86Y-6.06
X7.11Y-3.68
X7.11Y-4.44
X7.11Y-5.2
X7.11Y-5.96
X7.62Y-3.78
X7.62Y-4.54
X7.62Y-5.3
X7.62Y-6.06
X7.87Y-3.68
X7.87Y-4.44
X7.87Y-5.2
X7.87Y-5.96
X8.38Y-3.78
X8.38Y-4.54
X8.38Y-5.3
X8.38Y-6.06
X8.63Y-3.68
X8.63Y-4.44
X8.63Y-5.2
X8.63Y-5.96
X9.14Y-3.78
X9.14Y-4.54
X9.14Y-5.3
X9.14Y-6.06
X9.39Y-3.68
X9.39Y-4.44
X9.39Y-5.2
X9.39Y-5.96
X9.9Y-3.78
X9.9Y-4.54
X9.9Y-5.3
X9.9Y-6.06
X10.15Y-3.68
X10.15Y-4.44
X10.15Y-5.2
X10.15Y-5.96
X10.66Y-3.78
X10.66Y-4.54
X10.66Y-5.3
X10.66Y-6.06
X10.91Y-3.68
X10.91Y-4.44
X10.91Y-5.2
X10.91Y-5.96
T2
G00X10.2902Y-3.5755
M15
G01X10.2902Y-3.5381
M16
G05
G00X10.2902Y-3.6641
M15
G01X10.2902Y-3.6857
M16
G05
G00X10.6461Y-3.5755
M15
G01X10.6461Y-3.5381
M16
G05
G00X10.6461Y-3.6857
M15
G01X10.6461Y-3.6641
M16
G05
T0
M30
