  0
SECTION
  2
HEADER
  9
$ACADVER
  1
AC1009
  9
$DWGCODEPAGE
  3
ansi_1252
  9
$INSBASE
 10
0.0
 20
0.0
 30
0.0
  9
$EXTMIN
 10
-108.68
 20
-41.0892
 30
0.0
  9
$EXTMAX
 10
108.68
 20
40.9108
 30
0.0
  9
$LIMMIN
 10
0.0
 20
0.0
  9
$LIMMAX
 10
420.0
 20
297.0
  9
$ORTHOMODE
 70
     0
  9
$REGENMODE
 70
     1
  9
$FILLMODE
 70
     1
  9
$QTEXTMODE
 70
     0
  9
$MIRRTEXT
 70
     1
  9
$DRAGMODE
 70
     2
  9
$LTSCALE
 40
1.0
  9
$OSMODE
 70
    37
  9
$ATTMODE
 70
     1
  9
$TEXTSIZE
 40
3.5
  9
$TRACEWID
 40
1.0
  9
$TEXTSTYLE
  7
STANDARD
  9
$CLAYER
  8
0
  9
$CELTYPE
  6
BYLAYER
  9
$CECOLOR
 62
   256
  9
$DIMSCALE
 40
1.0
  9
$DIMASZ
 40
3.302
  9
$DIMEXO
 40
0.0
  9
$DIMDLI
 40
3.75
  9
$DIMRND
 40
0.0
  9
$DIMDLE
 40
0.0
  9
$DIMEXE
 40
1.0
  9
$DIMTP
 40
0.0
  9
$DIMTM
 40
0.0
  9
$DIMTXT
 40
3.5
  9
$DIMCEN
 40
2.5
  9
$DIMTSZ
 40
0.0
  9
$DIMTOL
 70
     0
  9
$DIMLIM
 70
     0
  9
$DIMTIH
 70
     1
  9
$DIMTOH
 70
     1
  9
$DIMSE1
 70
     0
  9
$DIMSE2
 70
     0
  9
$DIMTAD
 70
     1
  9
$DIMZIN
 70
     1
  9
$DIMBLK
  1

  9
$DIMASO
 70
     1
  9
$DIMSHO
 70
     1
  9
$DIMPOST
  1

  9
$DIMAPOST
  1

  9
$DIMALT
 70
     0
  9
$DIMALTD
 70
     3
  9
$DIMALTF
 40
0.0393700787
  9
$DIMLFAC
 40
1.0
  9
$DIMTOFL
 70
     1
  9
$DIMTVP
 40
0.0
  9
$DIMTIX
 70
     0
  9
$DIMSOXD
 70
     0
  9
$DIMSAH
 70
     0
  9
$DIMBLK1
  1

  9
$DIMBLK2
  1

  9
$DIMSTYLE
  2
ISO-25
  9
$DIMCLRD
 70
     0
  9
$DIMCLRE
 70
     0
  9
$DIMCLRT
 70
     0
  9
$DIMTFAC
 40
1.0
  9
$DIMGAP
 40
1.524
  9
$LUNITS
 70
     2
  9
$LUPREC
 70
     2
  9
$SKETCHINC
 40
1.0
  9
$FILLETRAD
 40
0.0
  9
$AUNITS
 70
     0
  9
$AUPREC
 70
     2
  9
$MENU
  1
.
  9
$ELEVATION
 40
0.0
  9
$PELEVATION
 40
0.0
  9
$THICKNESS
 40
0.0
  9
$LIMCHECK
 70
     0
  9
$CHAMFERA
 40
0.0
  9
$CHAMFERB
 40
0.0
  9
$SKPOLY
 70
     0
  9
$TDCREATE
 40
2460229.965721019
  9
$TDUPDATE
 40
2460229.965746285
  9
$TDINDWG
 40
0.0000000116
  9
$TDUSRTIMER
 40
0.0000000116
  9
$USRTIMER
 70
     1
  9
$ANGBASE
 50
0.0
  9
$ANGDIR
 70
     0
  9
$PDMODE
 70
     0
  9
$PDSIZE
 40
-1.0
  9
$PLINEWID
 40
0.0
  9
$COORDS
 70
     1
  9
$SPLFRAME
 70
     0
  9
$SPLINETYPE
 70
     6
  9
$SPLINESEGS
 70
     8
  9
$ATTDIA
 70
     0
  9
$ATTREQ
 70
     1
  9
$HANDLING
 70
     1
  9
$HANDSEED
  5
50F
  9
$SURFTAB1
 70
     6
  9
$SURFTAB2
 70
     6
  9
$SURFTYPE
 70
     6
  9
$SURFU
 70
     6
  9
$SURFV
 70
     6
  9
$UCSNAME
  2

  9
$UCSORG
 10
0.0
 20
0.0
 30
0.0
  9
$UCSXDIR
 10
1.0
 20
0.0
 30
0.0
  9
$UCSYDIR
 10
0.0
 20
1.0
 30
0.0
  9
$PUCSNAME
  2

  9
$PUCSORG
 10
0.0
 20
0.0
 30
0.0
  9
$PUCSXDIR
 10
1.0
 20
0.0
 30
0.0
  9
$PUCSYDIR
 10
0.0
 20
1.0
 30
0.0
  9
$USERI1
 70
     0
  9
$USERI2
 70
     0
  9
$USERI3
 70
     0
  9
$USERI4
 70
     0
  9
$USERI5
 70
     0
  9
$USERR1
 40
0.0
  9
$USERR2
 40
0.0
  9
$USERR3
 40
0.0
  9
$USERR4
 40
0.0
  9
$USERR5
 40
0.0
  9
$WORLDVIEW
 70
     1
  9
$SHADEDGE
 70
     3
  9
$SHADEDIF
 70
    70
  9
$TILEMODE
 70
     1
  9
$MAXACTVP
 70
    64
  9
$PLIMCHECK
 70
     0
  9
$PEXTMIN
 10
1.0000000000E+20
 20
1.0000000000E+20
 30
1.0000000000E+20
  9
$PEXTMAX
 10
-1.0000000000E+20
 20
-1.0000000000E+20
 30
-1.0000000000E+20
  9
$PLIMMIN
 10
0.0
 20
0.0
  9
$PLIMMAX
 10
420.0
 20
297.0
  9
$UNITMODE
 70
     0
  9
$VISRETAIN
 70
     1
  9
$PLINEGEN
 70
     0
  9
$PSLTSCALE
 70
     1
  0
ENDSEC
  0
SECTION
  2
TABLES
  0
TABLE
  2
VPORT
 70
     1
  0
VPORT
  2
*ACTIVE
 70
     0
 10
0.0
 20
0.0
 11
1.0
 21
1.0
 12
0.0
 22
-0.0892
 13
0.0
 23
0.0
 14
10.0
 24
10.0
 15
10.0
 25
10.0
 16
0.0
 26
0.0
 36
1.0
 17
0.0
 27
0.0
 37
0.0
 40
83.64
 41
2.6507317073
 42
50.0
 43
0.0
 44
0.0
 50
0.0
 51
0.0
 71
     0
 72
   100
 73
     1
 74
     3
 75
     0
 76
     0
 77
     0
 78
     0
  0
ENDTAB
  0
TABLE
  2
LTYPE
 70
     6
  0
LTYPE
  2
CONTINUOUS
 70
     0
  3
Solid line
 72
    65
 73
     0
 40
0.0
  0
LTYPE
  2
HIDDEN
 70
     0
  3
Hidden __ __ __ __ __ __ __ __ __ __ __ __ __ __
 72
    65
 73
     2
 40
1.905
 49
1.27
 49
-0.635
  0
LTYPE
  2
PHANTOM
 70
     0
  3
Phantom ______  __  __  ______  __  __  ______
 72
    65
 73
     6
 40
12.7
 49
6.35
 49
-1.27
 49
1.27
 49
-1.27
 49
1.27
 49
-1.27
  0
LTYPE
  2
CENTER
 70
     0
  3
Center ____ _ ____ _ ____ _ ____ _ ____ _ ____
 72
    65
 73
     4
 40
10.16
 49
6.35
 49
-1.27
 49
1.27
 49
-1.27
  0
LTYPE
  2
CENTERX2
 70
     0
  3
Center (2x) ________  __  ________  __  _____
 72
    65
 73
     4
 40
20.32
 49
12.7
 49
-2.54
 49
2.54
 49
-2.54
  0
LTYPE
  2
DOT2
 70
     0
  3
Dot (.5x) ........................................
 72
    65
 73
     2
 40
0.635
 49
0.0
 49
-0.635
  0
ENDTAB
  0
TABLE
  2
LAYER
 70
     1
  0
LAYER
  2
0
 70
     0
 62
     7
  6
CONTINUOUS
  0
ENDTAB
  0
TABLE
  2
STYLE
 70
     1
  0
STYLE
  2
STANDARD
 70
     0
 40
0.0
 41
1.0
 50
0.0
 71
     0
 42
3.5
  3
txt
  4

  0
ENDTAB
  0
TABLE
  2
VIEW
 70
     0
  0
ENDTAB
  0
TABLE
  2
UCS
 70
     0
  0
ENDTAB
  0
TABLE
  2
APPID
 70
     1
  0
APPID
  2
ACAD
 70
     0
  0
ENDTAB
  0
TABLE
  2
DIMSTYLE
 70
     1
  0
DIMSTYLE
  2
ISO-25
 70
     0
  3

  4

  5

  6

  7

 40
1.0
 41
2.5
 42
0.625
 43
3.75
 44
1.25
 45
0.0
 46
0.0
 47
0.0
 48
0.0
140
2.5
141
2.5
142
0.0
143
0.0393700787
144
1.0
145
0.0
146
1.0
147
0.625
 71
     0
 72
     0
 73
     0
 74
     0
 75
     0
 76
     0
 77
     1
 78
     8
170
     0
171
     3
172
     1
173
     0
174
     0
175
     0
176
     0
177
     0
178
     0
  0
ENDTAB
  0
ENDSEC
  0
SECTION
  2
BLOCKS
  0
BLOCK
  8
0
  2
$MODEL_SPACE
 70
     0
 10
0.0
 20
0.0
 30
0.0
  3
$MODEL_SPACE
  1

  0
ENDBLK
  5
21
  8
0
  0
BLOCK
 67
     1
  8
0
  2
$PAPER_SPACE
 70
     0
 10
0.0
 20
0.0
 30
0.0
  3
$PAPER_SPACE
  1

  0
ENDBLK
  5
1D
 67
     1
  8
0
  0
ENDSEC
  0
SECTION
  2
ENTITIES
  0
LINE
  5
63
  8
0
  6
CONTINUOUS
 62
     7
 10
101.32
 20
-41.0892
 30
0.0
 11
108.68
 21
-41.0892
 31
0.0
  0
LINE
  5
64
  8
0
  6
CONTINUOUS
 62
     7
 10
108.68
 20
-41.0892
 30
0.0
 11
108.68
 21
-33.0892
 31
0.0
  0
LINE
  5
65
  8
0
  6
CONTINUOUS
 62
     7
 10
108.68
 20
-33.0892
 30
0.0
 11
106.68
 21
-33.0892
 31
0.0
  0
LINE
  5
66
  8
0
  6
CONTINUOUS
 62
     7
 10
106.68
 20
-33.0892
 30
0.0
 11
106.68
 21
-25.0892
 31
0.0
  0
LINE
  5
67
  8
0
  6
CONTINUOUS
 62
     7
 10
108.68
 20
-25.0892
 30
0.0
 11
106.68
 21
-25.0892
 31
0.0
  0
LINE
  5
68
  8
0
  6
CONTINUOUS
 62
     7
 10
108.68
 20
-25.0892
 30
0.0
 11
108.68
 21
-17.0892
 31
0.0
  0
LINE
  5
69
  8
0
  6
CONTINUOUS
 62
     7
 10
108.68
 20
-17.0892
 30
0.0
 11
106.68
 21
-17.0892
 31
0.0
  0
LINE
  5
6A
  8
0
  6
CONTINUOUS
 62
     7
 10
106.68
 20
-17.0892
 30
0.0
 11
106.68
 21
-9.0892
 31
0.0
  0
LINE
  5
6B
  8
0
  6
CONTINUOUS
 62
     7
 10
108.68
 20
-9.0892
 30
0.0
 11
106.68
 21
-9.0892
 31
0.0
  0
LINE
  5
6C
  8
0
  6
CONTINUOUS
 62
     7
 10
108.68
 20
-9.0892
 30
0.0
 11
108.68
 21
-1.0892
 31
0.0
  0
LINE
  5
6D
  8
0
  6
CONTINUOUS
 62
     7
 10
108.68
 20
-1.0892
 30
0.0
 11
106.68
 21
-1.0892
 31
0.0
  0
LINE
  5
6E
  8
0
  6
CONTINUOUS
 62
     7
 10
106.68
 20
-1.0892
 30
0.0
 11
106.68
 21
6.9108
 31
0.0
  0
LINE
  5
6F
  8
0
  6
CONTINUOUS
 62
     7
 10
108.68
 20
6.9108
 30
0.0
 11
106.68
 21
6.9108
 31
0.0
  0
LINE
  5
70
  8
0
  6
CONTINUOUS
 62
     7
 10
108.68
 20
6.9108
 30
0.0
 11
108.68
 21
14.9108
 31
0.0
  0
LINE
  5
71
  8
0
  6
CONTINUOUS
 62
     7
 10
108.68
 20
14.9108
 30
0.0
 11
106.68
 21
14.9108
 31
0.0
  0
LINE
  5
72
  8
0
  6
CONTINUOUS
 62
     7
 10
106.68
 20
14.9108
 30
0.0
 11
106.68
 21
22.9108
 31
0.0
  0
LINE
  5
73
  8
0
  6
CONTINUOUS
 62
     7
 10
108.68
 20
22.9108
 30
0.0
 11
106.68
 21
22.9108
 31
0.0
  0
LINE
  5
74
  8
0
  6
CONTINUOUS
 62
     7
 10
108.68
 20
22.9108
 30
0.0
 11
108.68
 21
30.9108
 31
0.0
  0
LINE
  5
75
  8
0
  6
CONTINUOUS
 62
     7
 10
108.68
 20
30.9108
 30
0.0
 11
106.68
 21
30.9108
 31
0.0
  0
LINE
  5
76
  8
0
  6
CONTINUOUS
 62
     7
 10
106.68
 20
30.9108
 30
0.0
 11
106.68
 21
38.9108
 31
0.0
  0
LINE
  5
77
  8
0
  6
CONTINUOUS
 62
     7
 10
106.68
 20
38.9108
 30
0.0
 11
93.32
 21
38.9108
 31
0.0
  0
LINE
  5
78
  8
0
  6
CONTINUOUS
 62
     7
 10
93.32
 20
40.9108
 30
0.0
 11
93.32
 21
38.9108
 31
0.0
  0
LINE
  5
79
  8
0
  6
CONTINUOUS
 62
     7
 10
85.32
 20
40.9108
 30
0.0
 11
93.32
 21
40.9108
 31
0.0
  0
LINE
  5
7A
  8
0
  6
CONTINUOUS
 62
     7
 10
85.32
 20
40.9108
 30
0.0
 11
85.32
 21
38.9108
 31
0.0
  0
LINE
  5
7B
  8
0
  6
CONTINUOUS
 62
     7
 10
85.32
 20
38.9108
 30
0.0
 11
77.32
 21
38.9108
 31
0.0
  0
LINE
  5
7C
  8
0
  6
CONTINUOUS
 62
     7
 10
77.32
 20
40.9108
 30
0.0
 11
77.32
 21
38.9108
 31
0.0
  0
LINE
  5
7D
  8
0
  6
CONTINUOUS
 62
     7
 10
69.32
 20
40.9108
 30
0.0
 11
77.32
 21
40.9108
 31
0.0
  0
LINE
  5
7E
  8
0
  6
CONTINUOUS
 62
     7
 10
69.32
 20
40.9108
 30
0.0
 11
69.32
 21
38.9108
 31
0.0
  0
LINE
  5
7F
  8
0
  6
CONTINUOUS
 62
     7
 10
69.32
 20
38.9108
 30
0.0
 11
61.32
 21
38.9108
 31
0.0
  0
LINE
  5
80
  8
0
  6
CONTINUOUS
 62
     7
 10
61.32
 20
40.9108
 30
0.0
 11
61.32
 21
38.9108
 31
0.0
  0
LINE
  5
81
  8
0
  6
CONTINUOUS
 62
     7
 10
53.32
 20
40.9108
 30
0.0
 11
61.32
 21
40.9108
 31
0.0
  0
LINE
  5
82
  8
0
  6
CONTINUOUS
 62
     7
 10
53.32
 20
40.9108
 30
0.0
 11
53.32
 21
38.9108
 31
0.0
  0
LINE
  5
83
  8
0
  6
CONTINUOUS
 62
     7
 10
53.32
 20
38.9108
 30
0.0
 11
45.32
 21
38.9108
 31
0.0
  0
LINE
  5
84
  8
0
  6
CONTINUOUS
 62
     7
 10
45.32
 20
40.9108
 30
0.0
 11
45.32
 21
38.9108
 31
0.0
  0
LINE
  5
85
  8
0
  6
CONTINUOUS
 62
     7
 10
37.32
 20
40.9108
 30
0.0
 11
45.32
 21
40.9108
 31
0.0
  0
LINE
  5
86
  8
0
  6
CONTINUOUS
 62
     7
 10
37.32
 20
40.9108
 30
0.0
 11
37.32
 21
38.9108
 31
0.0
  0
LINE
  5
87
  8
0
  6
CONTINUOUS
 62
     7
 10
37.32
 20
38.9108
 30
0.0
 11
29.32
 21
38.9108
 31
0.0
  0
LINE
  5
88
  8
0
  6
CONTINUOUS
 62
     7
 10
29.32
 20
40.9108
 30
0.0
 11
29.32
 21
38.9108
 31
0.0
  0
LINE
  5
89
  8
0
  6
CONTINUOUS
 62
     7
 10
21.32
 20
40.9108
 30
0.0
 11
29.32
 21
40.9108
 31
0.0
  0
LINE
  5
8A
  8
0
  6
CONTINUOUS
 62
     7
 10
21.32
 20
40.9108
 30
0.0
 11
21.32
 21
38.9108
 31
0.0
  0
LINE
  5
8B
  8
0
  6
CONTINUOUS
 62
     7
 10
21.32
 20
38.9108
 30
0.0
 11
13.32
 21
38.9108
 31
0.0
  0
LINE
  5
8C
  8
0
  6
CONTINUOUS
 62
     7
 10
13.32
 20
40.9108
 30
0.0
 11
13.32
 21
38.9108
 31
0.0
  0
LINE
  5
8D
  8
0
  6
CONTINUOUS
 62
     7
 10
5.32
 20
40.9108
 30
0.0
 11
13.32
 21
40.9108
 31
0.0
  0
LINE
  5
8E
  8
0
  6
CONTINUOUS
 62
     7
 10
5.32
 20
40.9108
 30
0.0
 11
5.32
 21
38.9108
 31
0.0
  0
LINE
  5
8F
  8
0
  6
CONTINUOUS
 62
     7
 10
5.32
 20
38.9108
 30
0.0
 11
-2.68
 21
38.9108
 31
0.0
  0
LINE
  5
90
  8
0
  6
CONTINUOUS
 62
     7
 10
-2.68
 20
40.9108
 30
0.0
 11
-2.68
 21
38.9108
 31
0.0
  0
LINE
  5
91
  8
0
  6
CONTINUOUS
 62
     7
 10
-10.68
 20
40.9108
 30
0.0
 11
-2.68
 21
40.9108
 31
0.0
  0
LINE
  5
92
  8
0
  6
CONTINUOUS
 62
     7
 10
-10.68
 20
40.9108
 30
0.0
 11
-10.68
 21
38.9108
 31
0.0
  0
LINE
  5
93
  8
0
  6
CONTINUOUS
 62
     7
 10
-10.68
 20
38.9108
 30
0.0
 11
-18.68
 21
38.9108
 31
0.0
  0
LINE
  5
94
  8
0
  6
CONTINUOUS
 62
     7
 10
-18.68
 20
40.9108
 30
0.0
 11
-18.68
 21
38.9108
 31
0.0
  0
LINE
  5
95
  8
0
  6
CONTINUOUS
 62
     7
 10
-26.68
 20
40.9108
 30
0.0
 11
-18.68
 21
40.9108
 31
0.0
  0
LINE
  5
96
  8
0
  6
CONTINUOUS
 62
     7
 10
-26.68
 20
40.9108
 30
0.0
 11
-26.68
 21
38.9108
 31
0.0
  0
LINE
  5
97
  8
0
  6
CONTINUOUS
 62
     7
 10
-26.68
 20
38.9108
 30
0.0
 11
-34.68
 21
38.9108
 31
0.0
  0
LINE
  5
98
  8
0
  6
CONTINUOUS
 62
     7
 10
-34.68
 20
40.9108
 30
0.0
 11
-34.68
 21
38.9108
 31
0.0
  0
LINE
  5
99
  8
0
  6
CONTINUOUS
 62
     7
 10
-42.68
 20
40.9108
 30
0.0
 11
-34.68
 21
40.9108
 31
0.0
  0
LINE
  5
9A
  8
0
  6
CONTINUOUS
 62
     7
 10
-42.68
 20
40.9108
 30
0.0
 11
-42.68
 21
38.9108
 31
0.0
  0
LINE
  5
9B
  8
0
  6
CONTINUOUS
 62
     7
 10
-42.68
 20
38.9108
 30
0.0
 11
-50.68
 21
38.9108
 31
0.0
  0
LINE
  5
9C
  8
0
  6
CONTINUOUS
 62
     7
 10
-50.68
 20
40.9108
 30
0.0
 11
-50.68
 21
38.9108
 31
0.0
  0
LINE
  5
9D
  8
0
  6
CONTINUOUS
 62
     7
 10
-58.68
 20
40.9108
 30
0.0
 11
-50.68
 21
40.9108
 31
0.0
  0
LINE
  5
9E
  8
0
  6
CONTINUOUS
 62
     7
 10
-58.68
 20
40.9108
 30
0.0
 11
-58.68
 21
38.9108
 31
0.0
  0
LINE
  5
9F
  8
0
  6
CONTINUOUS
 62
     7
 10
-58.68
 20
38.9108
 30
0.0
 11
-66.68
 21
38.9108
 31
0.0
  0
LINE
  5
A0
  8
0
  6
CONTINUOUS
 62
     7
 10
-66.68
 20
40.9108
 30
0.0
 11
-66.68
 21
38.9108
 31
0.0
  0
LINE
  5
A1
  8
0
  6
CONTINUOUS
 62
     7
 10
-74.68
 20
40.9108
 30
0.0
 11
-66.68
 21
40.9108
 31
0.0
  0
LINE
  5
A2
  8
0
  6
CONTINUOUS
 62
     7
 10
-74.68
 20
40.9108
 30
0.0
 11
-74.68
 21
38.9108
 31
0.0
  0
LINE
  5
A3
  8
0
  6
CONTINUOUS
 62
     7
 10
-74.68
 20
38.9108
 30
0.0
 11
-82.68
 21
38.9108
 31
0.0
  0
LINE
  5
A4
  8
0
  6
CONTINUOUS
 62
     7
 10
-82.68
 20
40.9108
 30
0.0
 11
-82.68
 21
38.9108
 31
0.0
  0
LINE
  5
A5
  8
0
  6
CONTINUOUS
 62
     7
 10
-90.68
 20
40.9108
 30
0.0
 11
-82.68
 21
40.9108
 31
0.0
  0
LINE
  5
A6
  8
0
  6
CONTINUOUS
 62
     7
 10
-90.68
 20
40.9108
 30
0.0
 11
-90.68
 21
38.9108
 31
0.0
  0
LINE
  5
A7
  8
0
  6
CONTINUOUS
 62
     7
 10
-90.68
 20
38.9108
 30
0.0
 11
-106.68
 21
38.9108
 31
0.0
  0
LINE
  5
A8
  8
0
  6
CONTINUOUS
 62
     7
 10
-106.68
 20
38.9108
 30
0.0
 11
-106.68
 21
30.9108
 31
0.0
  0
LINE
  5
A9
  8
0
  6
CONTINUOUS
 62
     7
 10
-108.68
 20
30.9108
 30
0.0
 11
-106.68
 21
30.9108
 31
0.0
  0
LINE
  5
AA
  8
0
  6
CONTINUOUS
 62
     7
 10
-108.68
 20
22.9108
 30
0.0
 11
-108.68
 21
30.9108
 31
0.0
  0
LINE
  5
AB
  8
0
  6
CONTINUOUS
 62
     7
 10
-108.68
 20
22.9108
 30
0.0
 11
-106.68
 21
22.9108
 31
0.0
  0
LINE
  5
AC
  8
0
  6
CONTINUOUS
 62
     7
 10
-106.68
 20
22.9108
 30
0.0
 11
-106.68
 21
14.9108
 31
0.0
  0
LINE
  5
AD
  8
0
  6
CONTINUOUS
 62
     7
 10
-108.68
 20
14.9108
 30
0.0
 11
-106.68
 21
14.9108
 31
0.0
  0
LINE
  5
AE
  8
0
  6
CONTINUOUS
 62
     7
 10
-108.68
 20
6.9108
 30
0.0
 11
-108.68
 21
14.9108
 31
0.0
  0
LINE
  5
AF
  8
0
  6
CONTINUOUS
 62
     7
 10
-108.68
 20
6.9108
 30
0.0
 11
-106.68
 21
6.9108
 31
0.0
  0
LINE
  5
B0
  8
0
  6
CONTINUOUS
 62
     7
 10
-106.68
 20
6.9108
 30
0.0
 11
-106.68
 21
-1.0892
 31
0.0
  0
LINE
  5
B1
  8
0
  6
CONTINUOUS
 62
     7
 10
-108.68
 20
-1.0892
 30
0.0
 11
-106.68
 21
-1.0892
 31
0.0
  0
LINE
  5
B2
  8
0
  6
CONTINUOUS
 62
     7
 10
-108.68
 20
-9.0892
 30
0.0
 11
-108.68
 21
-1.0892
 31
0.0
  0
LINE
  5
B3
  8
0
  6
CONTINUOUS
 62
     7
 10
-108.68
 20
-9.0892
 30
0.0
 11
-106.68
 21
-9.0892
 31
0.0
  0
LINE
  5
B4
  8
0
  6
CONTINUOUS
 62
     7
 10
-106.68
 20
-9.0892
 30
0.0
 11
-106.68
 21
-17.0892
 31
0.0
  0
LINE
  5
B5
  8
0
  6
CONTINUOUS
 62
     7
 10
-108.68
 20
-17.0892
 30
0.0
 11
-106.68
 21
-17.0892
 31
0.0
  0
LINE
  5
B6
  8
0
  6
CONTINUOUS
 62
     7
 10
-108.68
 20
-25.0892
 30
0.0
 11
-108.68
 21
-17.0892
 31
0.0
  0
LINE
  5
B7
  8
0
  6
CONTINUOUS
 62
     7
 10
-108.68
 20
-25.0892
 30
0.0
 11
-106.68
 21
-25.0892
 31
0.0
  0
LINE
  5
B8
  8
0
  6
CONTINUOUS
 62
     7
 10
-106.68
 20
-25.0892
 30
0.0
 11
-106.68
 21
-33.0892
 31
0.0
  0
LINE
  5
B9
  8
0
  6
CONTINUOUS
 62
     7
 10
-108.68
 20
-33.0892
 30
0.0
 11
-106.68
 21
-33.0892
 31
0.0
  0
LINE
  5
BA
  8
0
  6
CONTINUOUS
 62
     7
 10
-108.68
 20
-41.0892
 30
0.0
 11
-108.68
 21
-33.0892
 31
0.0
  0
LINE
  5
BB
  8
0
  6
CONTINUOUS
 62
     7
 10
-108.68
 20
-41.0892
 30
0.0
 11
-98.68
 21
-41.0892
 31
0.0
  0
LINE
  5
BC
  8
0
  6
CONTINUOUS
 62
     7
 10
-98.68
 20
-41.0892
 30
0.0
 11
-98.68
 21
-38.9108
 31
0.0
  0
LINE
  5
BD
  8
0
  6
CONTINUOUS
 62
     7
 10
-98.68
 20
-38.9108
 30
0.0
 11
-90.68
 21
-38.9108
 31
0.0
  0
LINE
  5
BE
  8
0
  6
CONTINUOUS
 62
     7
 10
-90.68
 20
-41.0892
 30
0.0
 11
-90.68
 21
-38.9108
 31
0.0
  0
LINE
  5
BF
  8
0
  6
CONTINUOUS
 62
     7
 10
-90.68
 20
-41.0892
 30
0.0
 11
-82.68
 21
-41.0892
 31
0.0
  0
LINE
  5
C0
  8
0
  6
CONTINUOUS
 62
     7
 10
-82.68
 20
-41.0892
 30
0.0
 11
-82.68
 21
-38.9108
 31
0.0
  0
LINE
  5
C1
  8
0
  6
CONTINUOUS
 62
     7
 10
-82.68
 20
-38.9108
 30
0.0
 11
-74.68
 21
-38.9108
 31
0.0
  0
LINE
  5
C2
  8
0
  6
CONTINUOUS
 62
     7
 10
-74.68
 20
-41.0892
 30
0.0
 11
-74.68
 21
-38.9108
 31
0.0
  0
LINE
  5
C3
  8
0
  6
CONTINUOUS
 62
     7
 10
-74.68
 20
-41.0892
 30
0.0
 11
-66.68
 21
-41.0892
 31
0.0
  0
LINE
  5
C4
  8
0
  6
CONTINUOUS
 62
     7
 10
-66.68
 20
-41.0892
 30
0.0
 11
-66.68
 21
-38.9108
 31
0.0
  0
LINE
  5
C5
  8
0
  6
CONTINUOUS
 62
     7
 10
-66.68
 20
-38.9108
 30
0.0
 11
-58.68
 21
-38.9108
 31
0.0
  0
LINE
  5
C6
  8
0
  6
CONTINUOUS
 62
     7
 10
-58.68
 20
-41.0892
 30
0.0
 11
-58.68
 21
-38.9108
 31
0.0
  0
LINE
  5
C7
  8
0
  6
CONTINUOUS
 62
     7
 10
-58.68
 20
-41.0892
 30
0.0
 11
-50.68
 21
-41.0892
 31
0.0
  0
LINE
  5
C8
  8
0
  6
CONTINUOUS
 62
     7
 10
-50.68
 20
-41.0892
 30
0.0
 11
-50.68
 21
-38.9108
 31
0.0
  0
LINE
  5
C9
  8
0
  6
CONTINUOUS
 62
     7
 10
-50.68
 20
-38.9108
 30
0.0
 11
-42.68
 21
-38.9108
 31
0.0
  0
LINE
  5
CA
  8
0
  6
CONTINUOUS
 62
     7
 10
-42.68
 20
-41.0892
 30
0.0
 11
-42.68
 21
-38.9108
 31
0.0
  0
LINE
  5
CB
  8
0
  6
CONTINUOUS
 62
     7
 10
-42.68
 20
-41.0892
 30
0.0
 11
-34.68
 21
-41.0892
 31
0.0
  0
LINE
  5
CC
  8
0
  6
CONTINUOUS
 62
     7
 10
-34.68
 20
-41.0892
 30
0.0
 11
-34.68
 21
-38.9108
 31
0.0
  0
LINE
  5
CD
  8
0
  6
CONTINUOUS
 62
     7
 10
-34.68
 20
-38.9108
 30
0.0
 11
-26.68
 21
-38.9108
 31
0.0
  0
LINE
  5
CE
  8
0
  6
CONTINUOUS
 62
     7
 10
-26.68
 20
-41.0892
 30
0.0
 11
-26.68
 21
-38.9108
 31
0.0
  0
LINE
  5
CF
  8
0
  6
CONTINUOUS
 62
     7
 10
-26.68
 20
-41.0892
 30
0.0
 11
-18.68
 21
-41.0892
 31
0.0
  0
LINE
  5
D0
  8
0
  6
CONTINUOUS
 62
     7
 10
-18.68
 20
-41.0892
 30
0.0
 11
-18.68
 21
-38.9108
 31
0.0
  0
LINE
  5
D1
  8
0
  6
CONTINUOUS
 62
     7
 10
-18.68
 20
-38.9108
 30
0.0
 11
-10.68
 21
-38.9108
 31
0.0
  0
LINE
  5
D2
  8
0
  6
CONTINUOUS
 62
     7
 10
-10.68
 20
-41.0892
 30
0.0
 11
-10.68
 21
-38.9108
 31
0.0
  0
LINE
  5
D3
  8
0
  6
CONTINUOUS
 62
     7
 10
-10.68
 20
-41.0892
 30
0.0
 11
-2.68
 21
-41.0892
 31
0.0
  0
LINE
  5
D4
  8
0
  6
CONTINUOUS
 62
     7
 10
-2.68
 20
-41.0892
 30
0.0
 11
-2.68
 21
-38.9108
 31
0.0
  0
LINE
  5
D5
  8
0
  6
CONTINUOUS
 62
     7
 10
-2.68
 20
-38.9108
 30
0.0
 11
5.32
 21
-38.9108
 31
0.0
  0
LINE
  5
D6
  8
0
  6
CONTINUOUS
 62
     7
 10
5.32
 20
-41.0892
 30
0.0
 11
5.32
 21
-38.9108
 31
0.0
  0
LINE
  5
D7
  8
0
  6
CONTINUOUS
 62
     7
 10
5.32
 20
-41.0892
 30
0.0
 11
13.32
 21
-41.0892
 31
0.0
  0
LINE
  5
D8
  8
0
  6
CONTINUOUS
 62
     7
 10
13.32
 20
-41.0892
 30
0.0
 11
13.32
 21
-38.9108
 31
0.0
  0
LINE
  5
D9
  8
0
  6
CONTINUOUS
 62
     7
 10
13.32
 20
-38.9108
 30
0.0
 11
21.32
 21
-38.9108
 31
0.0
  0
LINE
  5
DA
  8
0
  6
CONTINUOUS
 62
     7
 10
21.32
 20
-41.0892
 30
0.0
 11
21.32
 21
-38.9108
 31
0.0
  0
LINE
  5
DB
  8
0
  6
CONTINUOUS
 62
     7
 10
21.32
 20
-41.0892
 30
0.0
 11
29.32
 21
-41.0892
 31
0.0
  0
LINE
  5
DC
  8
0
  6
CONTINUOUS
 62
     7
 10
29.32
 20
-41.0892
 30
0.0
 11
29.32
 21
-38.9108
 31
0.0
  0
LINE
  5
DD
  8
0
  6
CONTINUOUS
 62
     7
 10
29.32
 20
-38.9108
 30
0.0
 11
37.32
 21
-38.9108
 31
0.0
  0
LINE
  5
DE
  8
0
  6
CONTINUOUS
 62
     7
 10
37.32
 20
-41.0892
 30
0.0
 11
37.32
 21
-38.9108
 31
0.0
  0
LINE
  5
DF
  8
0
  6
CONTINUOUS
 62
     7
 10
37.32
 20
-41.0892
 30
0.0
 11
45.32
 21
-41.0892
 31
0.0
  0
LINE
  5
E0
  8
0
  6
CONTINUOUS
 62
     7
 10
45.32
 20
-41.0892
 30
0.0
 11
45.32
 21
-38.9108
 31
0.0
  0
LINE
  5
E1
  8
0
  6
CONTINUOUS
 62
     7
 10
45.32
 20
-38.9108
 30
0.0
 11
53.32
 21
-38.9108
 31
0.0
  0
LINE
  5
E2
  8
0
  6
CONTINUOUS
 62
     7
 10
53.32
 20
-41.0892
 30
0.0
 11
53.32
 21
-38.9108
 31
0.0
  0
LINE
  5
E3
  8
0
  6
CONTINUOUS
 62
     7
 10
53.32
 20
-41.0892
 30
0.0
 11
61.32
 21
-41.0892
 31
0.0
  0
LINE
  5
E4
  8
0
  6
CONTINUOUS
 62
     7
 10
61.32
 20
-41.0892
 30
0.0
 11
61.32
 21
-38.9108
 31
0.0
  0
LINE
  5
E5
  8
0
  6
CONTINUOUS
 62
     7
 10
61.32
 20
-38.9108
 30
0.0
 11
69.32
 21
-38.9108
 31
0.0
  0
LINE
  5
E6
  8
0
  6
CONTINUOUS
 62
     7
 10
69.32
 20
-41.0892
 30
0.0
 11
69.32
 21
-38.9108
 31
0.0
  0
LINE
  5
E7
  8
0
  6
CONTINUOUS
 62
     7
 10
69.32
 20
-41.0892
 30
0.0
 11
77.32
 21
-41.0892
 31
0.0
  0
LINE
  5
E8
  8
0
  6
CONTINUOUS
 62
     7
 10
77.32
 20
-41.0892
 30
0.0
 11
77.32
 21
-38.9108
 31
0.0
  0
LINE
  5
E9
  8
0
  6
CONTINUOUS
 62
     7
 10
77.32
 20
-38.9108
 30
0.0
 11
85.32
 21
-38.9108
 31
0.0
  0
LINE
  5
EA
  8
0
  6
CONTINUOUS
 62
     7
 10
85.32
 20
-41.0892
 30
0.0
 11
85.32
 21
-38.9108
 31
0.0
  0
LINE
  5
EB
  8
0
  6
CONTINUOUS
 62
     7
 10
85.32
 20
-41.0892
 30
0.0
 11
93.32
 21
-41.0892
 31
0.0
  0
LINE
  5
EC
  8
0
  6
CONTINUOUS
 62
     7
 10
93.32
 20
-41.0892
 30
0.0
 11
93.32
 21
-38.9108
 31
0.0
  0
LINE
  5
ED
  8
0
  6
CONTINUOUS
 62
     7
 10
93.32
 20
-38.9108
 30
0.0
 11
101.32
 21
-38.9108
 31
0.0
  0
LINE
  5
EE
  8
0
  6
CONTINUOUS
 62
     7
 10
101.32
 20
-41.0892
 30
0.0
 11
101.32
 21
-38.9108
 31
0.0
  0
LINE
  5
EF
  8
0
  6
CONTINUOUS
 62
     7
 10
-98.96
 20
35.8308
 30
0.0
 11
-98.96
 21
36.8308
 31
0.0
  0
LINE
  5
F0
  8
0
  6
CONTINUOUS
 62
     7
 10
-94.06
 20
35.8308
 30
0.0
 11
-98.96
 21
35.8308
 31
0.0
  0
LINE
  5
F1
  8
0
  6
CONTINUOUS
 62
     7
 10
-94.06
 20
36.8308
 30
0.0
 11
-94.06
 21
35.8308
 31
0.0
  0
LINE
  5
F2
  8
0
  6
CONTINUOUS
 62
     7
 10
-89.51
 20
36.8308
 30
0.0
 11
-94.06
 21
36.8308
 31
0.0
  0
ARC
  5
F3
  8
0
  6
CONTINUOUS
 62
     7
 10
-89.51
 20
35.7808
 30
0.0
 40
1.050000000000011
 50
0.0
 51
90.0
  0
LINE
  5
F4
  8
0
  6
CONTINUOUS
 62
     7
 10
-88.46
 20
34.3308
 30
0.0
 11
-88.46
 21
35.7808
 31
0.0
  0
LINE
  5
F5
  8
0
  6
CONTINUOUS
 62
     7
 10
-89.21
 20
34.3308
 30
0.0
 11
-88.46
 21
34.3308
 31
0.0
  0
LINE
  5
F6
  8
0
  6
CONTINUOUS
 62
     7
 10
-89.21
 20
23.2308
 30
0.0
 11
-89.21
 21
34.3308
 31
0.0
  0
LINE
  5
F7
  8
0
  6
CONTINUOUS
 62
     7
 10
-88.46
 20
23.2308
 30
0.0
 11
-89.21
 21
23.2308
 31
0.0
  0
LINE
  5
F8
  8
0
  6
CONTINUOUS
 62
     7
 10
-88.46
 20
21.7808
 30
0.0
 11
-88.46
 21
23.2308
 31
0.0
  0
ARC
  5
F9
  8
0
  6
CONTINUOUS
 62
     7
 10
-89.51
 20
21.7808
 30
0.0
 40
1.049999999999997
 50
270.0
 51
0.0
  0
LINE
  5
FA
  8
0
  6
CONTINUOUS
 62
     7
 10
-94.06
 20
20.7308
 30
0.0
 11
-89.51
 21
20.7308
 31
0.0
  0
LINE
  5
FB
  8
0
  6
CONTINUOUS
 62
     7
 10
-94.06
 20
21.7308
 30
0.0
 11
-94.06
 21
20.7308
 31
0.0
  0
LINE
  5
FC
  8
0
  6
CONTINUOUS
 62
     7
 10
-98.96
 20
21.7308
 30
0.0
 11
-94.06
 21
21.7308
 31
0.0
  0
LINE
  5
FD
  8
0
  6
CONTINUOUS
 62
     7
 10
-98.96
 20
20.7308
 30
0.0
 11
-98.96
 21
21.7308
 31
0.0
  0
LINE
  5
FE
  8
0
  6
CONTINUOUS
 62
     7
 10
-103.51
 20
20.7308
 30
0.0
 11
-98.96
 21
20.7308
 31
0.0
  0
ARC
  5
FF
  8
0
  6
CONTINUOUS
 62
     7
 10
-103.51
 20
21.7808
 30
0.0
 40
1.050000000000008
 50
180.0
 51
270.0
  0
LINE
  5
100
  8
0
  6
CONTINUOUS
 62
     7
 10
-104.56
 20
23.2308
 30
0.0
 11
-104.56
 21
21.7808
 31
0.0
  0
LINE
  5
101
  8
0
  6
CONTINUOUS
 62
     7
 10
-103.81
 20
23.2308
 30
0.0
 11
-104.56
 21
23.2308
 31
0.0
  0
LINE
  5
102
  8
0
  6
CONTINUOUS
 62
     7
 10
-103.81
 20
34.3308
 30
0.0
 11
-103.81
 21
23.2308
 31
0.0
  0
LINE
  5
103
  8
0
  6
CONTINUOUS
 62
     7
 10
-104.56
 20
34.3308
 30
0.0
 11
-103.81
 21
34.3308
 31
0.0
  0
LINE
  5
104
  8
0
  6
CONTINUOUS
 62
     7
 10
-104.56
 20
35.7808
 30
0.0
 11
-104.56
 21
34.3308
 31
0.0
  0
ARC
  5
105
  8
0
  6
CONTINUOUS
 62
     7
 10
-103.51
 20
35.7808
 30
0.0
 40
1.049999999999997
 50
90.0
 51
180.0
  0
LINE
  5
106
  8
0
  6
CONTINUOUS
 62
     7
 10
-98.96
 20
36.8308
 30
0.0
 11
-103.51
 21
36.8308
 31
0.0
  0
LINE
  5
107
  8
0
  6
CONTINUOUS
 62
     7
 10
-79.66
 20
35.8308
 30
0.0
 11
-79.66
 21
36.8308
 31
0.0
  0
LINE
  5
108
  8
0
  6
CONTINUOUS
 62
     7
 10
-74.76
 20
35.8308
 30
0.0
 11
-79.66
 21
35.8308
 31
0.0
  0
LINE
  5
109
  8
0
  6
CONTINUOUS
 62
     7
 10
-74.76
 20
36.8308
 30
0.0
 11
-74.76
 21
35.8308
 31
0.0
  0
LINE
  5
10A
  8
0
  6
CONTINUOUS
 62
     7
 10
-70.21
 20
36.8308
 30
0.0
 11
-74.76
 21
36.8308
 31
0.0
  0
ARC
  5
10B
  8
0
  6
CONTINUOUS
 62
     7
 10
-70.21
 20
35.7808
 30
0.0
 40
1.050000000000011
 50
0.0
 51
90.0
  0
LINE
  5
10C
  8
0
  6
CONTINUOUS
 62
     7
 10
-69.16
 20
34.3308
 30
0.0
 11
-69.16
 21
35.7808
 31
0.0
  0
LINE
  5
10D
  8
0
  6
CONTINUOUS
 62
     7
 10
-69.91
 20
34.3308
 30
0.0
 11
-69.16
 21
34.3308
 31
0.0
  0
LINE
  5
10E
  8
0
  6
CONTINUOUS
 62
     7
 10
-69.91
 20
23.2308
 30
0.0
 11
-69.91
 21
34.3308
 31
0.0
  0
LINE
  5
10F
  8
0
  6
CONTINUOUS
 62
     7
 10
-69.16
 20
23.2308
 30
0.0
 11
-69.91
 21
23.2308
 31
0.0
  0
LINE
  5
110
  8
0
  6
CONTINUOUS
 62
     7
 10
-69.16
 20
21.7808
 30
0.0
 11
-69.16
 21
23.2308
 31
0.0
  0
ARC
  5
111
  8
0
  6
CONTINUOUS
 62
     7
 10
-70.21
 20
21.7808
 30
0.0
 40
1.049999999999997
 50
270.0
 51
0.0
  0
LINE
  5
112
  8
0
  6
CONTINUOUS
 62
     7
 10
-74.76
 20
20.7308
 30
0.0
 11
-70.21
 21
20.7308
 31
0.0
  0
LINE
  5
113
  8
0
  6
CONTINUOUS
 62
     7
 10
-74.76
 20
21.7308
 30
0.0
 11
-74.76
 21
20.7308
 31
0.0
  0
LINE
  5
114
  8
0
  6
CONTINUOUS
 62
     7
 10
-79.66
 20
21.7308
 30
0.0
 11
-74.76
 21
21.7308
 31
0.0
  0
LINE
  5
115
  8
0
  6
CONTINUOUS
 62
     7
 10
-79.66
 20
20.7308
 30
0.0
 11
-79.66
 21
21.7308
 31
0.0
  0
LINE
  5
116
  8
0
  6
CONTINUOUS
 62
     7
 10
-84.21
 20
20.7308
 30
0.0
 11
-79.66
 21
20.7308
 31
0.0
  0
ARC
  5
117
  8
0
  6
CONTINUOUS
 62
     7
 10
-84.21
 20
21.7808
 30
0.0
 40
1.050000000000008
 50
180.0
 51
270.0
  0
LINE
  5
118
  8
0
  6
CONTINUOUS
 62
     7
 10
-85.26
 20
23.2308
 30
0.0
 11
-85.26
 21
21.7808
 31
0.0
  0
LINE
  5
119
  8
0
  6
CONTINUOUS
 62
     7
 10
-84.51
 20
23.2308
 30
0.0
 11
-85.26
 21
23.2308
 31
0.0
  0
LINE
  5
11A
  8
0
  6
CONTINUOUS
 62
     7
 10
-84.51
 20
34.3308
 30
0.0
 11
-84.51
 21
23.2308
 31
0.0
  0
LINE
  5
11B
  8
0
  6
CONTINUOUS
 62
     7
 10
-85.26
 20
34.3308
 30
0.0
 11
-84.51
 21
34.3308
 31
0.0
  0
LINE
  5
11C
  8
0
  6
CONTINUOUS
 62
     7
 10
-85.26
 20
35.7808
 30
0.0
 11
-85.26
 21
34.3308
 31
0.0
  0
ARC
  5
11D
  8
0
  6
CONTINUOUS
 62
     7
 10
-84.21
 20
35.7808
 30
0.0
 40
1.049999999999997
 50
90.0
 51
180.0
  0
LINE
  5
11E
  8
0
  6
CONTINUOUS
 62
     7
 10
-79.66
 20
36.8308
 30
0.0
 11
-84.21
 21
36.8308
 31
0.0
  0
LINE
  5
11F
  8
0
  6
CONTINUOUS
 62
     7
 10
-60.36
 20
35.8308
 30
0.0
 11
-60.36
 21
36.8308
 31
0.0
  0
LINE
  5
120
  8
0
  6
CONTINUOUS
 62
     7
 10
-55.46
 20
35.8308
 30
0.0
 11
-60.36
 21
35.8308
 31
0.0
  0
LINE
  5
121
  8
0
  6
CONTINUOUS
 62
     7
 10
-55.46
 20
36.8308
 30
0.0
 11
-55.46
 21
35.8308
 31
0.0
  0
LINE
  5
122
  8
0
  6
CONTINUOUS
 62
     7
 10
-50.91
 20
36.8308
 30
0.0
 11
-55.46
 21
36.8308
 31
0.0
  0
ARC
  5
123
  8
0
  6
CONTINUOUS
 62
     7
 10
-50.91
 20
35.7808
 30
0.0
 40
1.050000000000011
 50
0.0
 51
90.0
  0
LINE
  5
124
  8
0
  6
CONTINUOUS
 62
     7
 10
-49.86
 20
34.3308
 30
0.0
 11
-49.86
 21
35.7808
 31
0.0
  0
LINE
  5
125
  8
0
  6
CONTINUOUS
 62
     7
 10
-50.61
 20
34.3308
 30
0.0
 11
-49.86
 21
34.3308
 31
0.0
  0
LINE
  5
126
  8
0
  6
CONTINUOUS
 62
     7
 10
-50.61
 20
23.2308
 30
0.0
 11
-50.61
 21
34.3308
 31
0.0
  0
LINE
  5
127
  8
0
  6
CONTINUOUS
 62
     7
 10
-49.86
 20
23.2308
 30
0.0
 11
-50.61
 21
23.2308
 31
0.0
  0
LINE
  5
128
  8
0
  6
CONTINUOUS
 62
     7
 10
-49.86
 20
21.7808
 30
0.0
 11
-49.86
 21
23.2308
 31
0.0
  0
ARC
  5
129
  8
0
  6
CONTINUOUS
 62
     7
 10
-50.91
 20
21.7808
 30
0.0
 40
1.049999999999994
 50
270.0
 51
0.0
  0
LINE
  5
12A
  8
0
  6
CONTINUOUS
 62
     7
 10
-55.46
 20
20.7308
 30
0.0
 11
-50.91
 21
20.7308
 31
0.0
  0
LINE
  5
12B
  8
0
  6
CONTINUOUS
 62
     7
 10
-55.46
 20
21.7308
 30
0.0
 11
-55.46
 21
20.7308
 31
0.0
  0
LINE
  5
12C
  8
0
  6
CONTINUOUS
 62
     7
 10
-60.36
 20
21.7308
 30
0.0
 11
-55.46
 21
21.7308
 31
0.0
  0
LINE
  5
12D
  8
0
  6
CONTINUOUS
 62
     7
 10
-60.36
 20
20.7308
 30
0.0
 11
-60.36
 21
21.7308
 31
0.0
  0
LINE
  5
12E
  8
0
  6
CONTINUOUS
 62
     7
 10
-64.91
 20
20.7308
 30
0.0
 11
-60.36
 21
20.7308
 31
0.0
  0
ARC
  5
12F
  8
0
  6
CONTINUOUS
 62
     7
 10
-64.91
 20
21.7808
 30
0.0
 40
1.050000000000008
 50
180.0
 51
270.0
  0
LINE
  5
130
  8
0
  6
CONTINUOUS
 62
     7
 10
-65.96
 20
23.2308
 30
0.0
 11
-65.96
 21
21.7808
 31
0.0
  0
LINE
  5
131
  8
0
  6
CONTINUOUS
 62
     7
 10
-65.21
 20
23.2308
 30
0.0
 11
-65.96
 21
23.2308
 31
0.0
  0
LINE
  5
132
  8
0
  6
CONTINUOUS
 62
     7
 10
-65.21
 20
34.3308
 30
0.0
 11
-65.21
 21
23.2308
 31
0.0
  0
LINE
  5
133
  8
0
  6
CONTINUOUS
 62
     7
 10
-65.96
 20
34.3308
 30
0.0
 11
-65.21
 21
34.3308
 31
0.0
  0
LINE
  5
134
  8
0
  6
CONTINUOUS
 62
     7
 10
-65.96
 20
35.7808
 30
0.0
 11
-65.96
 21
34.3308
 31
0.0
  0
ARC
  5
135
  8
0
  6
CONTINUOUS
 62
     7
 10
-64.91
 20
35.7808
 30
0.0
 40
1.049999999999997
 50
90.0
 51
180.0
  0
LINE
  5
136
  8
0
  6
CONTINUOUS
 62
     7
 10
-60.36
 20
36.8308
 30
0.0
 11
-64.91
 21
36.8308
 31
0.0
  0
LINE
  5
137
  8
0
  6
CONTINUOUS
 62
     7
 10
-41.06
 20
35.8308
 30
0.0
 11
-41.06
 21
36.8308
 31
0.0
  0
LINE
  5
138
  8
0
  6
CONTINUOUS
 62
     7
 10
-36.16
 20
35.8308
 30
0.0
 11
-41.06
 21
35.8308
 31
0.0
  0
LINE
  5
139
  8
0
  6
CONTINUOUS
 62
     7
 10
-36.16
 20
36.8308
 30
0.0
 11
-36.16
 21
35.8308
 31
0.0
  0
LINE
  5
13A
  8
0
  6
CONTINUOUS
 62
     7
 10
-31.61
 20
36.8308
 30
0.0
 11
-36.16
 21
36.8308
 31
0.0
  0
ARC
  5
13B
  8
0
  6
CONTINUOUS
 62
     7
 10
-31.61
 20
35.7808
 30
0.0
 40
1.050000000000011
 50
0.0
 51
90.0
  0
LINE
  5
13C
  8
0
  6
CONTINUOUS
 62
     7
 10
-30.56
 20
34.3308
 30
0.0
 11
-30.56
 21
35.7808
 31
0.0
  0
LINE
  5
13D
  8
0
  6
CONTINUOUS
 62
     7
 10
-31.31
 20
34.3308
 30
0.0
 11
-30.56
 21
34.3308
 31
0.0
  0
LINE
  5
13E
  8
0
  6
CONTINUOUS
 62
     7
 10
-31.31
 20
23.2308
 30
0.0
 11
-31.31
 21
34.3308
 31
0.0
  0
LINE
  5
13F
  8
0
  6
CONTINUOUS
 62
     7
 10
-30.56
 20
23.2308
 30
0.0
 11
-31.31
 21
23.2308
 31
0.0
  0
LINE
  5
140
  8
0
  6
CONTINUOUS
 62
     7
 10
-30.56
 20
21.7808
 30
0.0
 11
-30.56
 21
23.2308
 31
0.0
  0
ARC
  5
141
  8
0
  6
CONTINUOUS
 62
     7
 10
-31.61
 20
21.7808
 30
0.0
 40
1.049999999999997
 50
270.0
 51
0.0
  0
LINE
  5
142
  8
0
  6
CONTINUOUS
 62
     7
 10
-36.16
 20
20.7308
 30
0.0
 11
-31.61
 21
20.7308
 31
0.0
  0
LINE
  5
143
  8
0
  6
CONTINUOUS
 62
     7
 10
-36.16
 20
21.7308
 30
0.0
 11
-36.16
 21
20.7308
 31
0.0
  0
LINE
  5
144
  8
0
  6
CONTINUOUS
 62
     7
 10
-41.06
 20
21.7308
 30
0.0
 11
-36.16
 21
21.7308
 31
0.0
  0
LINE
  5
145
  8
0
  6
CONTINUOUS
 62
     7
 10
-41.06
 20
20.7308
 30
0.0
 11
-41.06
 21
21.7308
 31
0.0
  0
LINE
  5
146
  8
0
  6
CONTINUOUS
 62
     7
 10
-45.61
 20
20.7308
 30
0.0
 11
-41.06
 21
20.7308
 31
0.0
  0
ARC
  5
147
  8
0
  6
CONTINUOUS
 62
     7
 10
-45.61
 20
21.7808
 30
0.0
 40
1.050000000000008
 50
180.0
 51
270.0
  0
LINE
  5
148
  8
0
  6
CONTINUOUS
 62
     7
 10
-46.66
 20
23.2308
 30
0.0
 11
-46.66
 21
21.7808
 31
0.0
  0
LINE
  5
149
  8
0
  6
CONTINUOUS
 62
     7
 10
-45.91
 20
23.2308
 30
0.0
 11
-46.66
 21
23.2308
 31
0.0
  0
LINE
  5
14A
  8
0
  6
CONTINUOUS
 62
     7
 10
-45.91
 20
34.3308
 30
0.0
 11
-45.91
 21
23.2308
 31
0.0
  0
LINE
  5
14B
  8
0
  6
CONTINUOUS
 62
     7
 10
-46.66
 20
34.3308
 30
0.0
 11
-45.91
 21
34.3308
 31
0.0
  0
LINE
  5
14C
  8
0
  6
CONTINUOUS
 62
     7
 10
-46.66
 20
35.7808
 30
0.0
 11
-46.66
 21
34.3308
 31
0.0
  0
ARC
  5
14D
  8
0
  6
CONTINUOUS
 62
     7
 10
-45.61
 20
35.7808
 30
0.0
 40
1.049999999999997
 50
90.0
 51
180.0
  0
LINE
  5
14E
  8
0
  6
CONTINUOUS
 62
     7
 10
-41.06
 20
36.8308
 30
0.0
 11
-45.61
 21
36.8308
 31
0.0
  0
LINE
  5
14F
  8
0
  6
CONTINUOUS
 62
     7
 10
-21.76
 20
35.8308
 30
0.0
 11
-21.76
 21
36.8308
 31
0.0
  0
LINE
  5
150
  8
0
  6
CONTINUOUS
 62
     7
 10
-16.86
 20
35.8308
 30
0.0
 11
-21.76
 21
35.8308
 31
0.0
  0
LINE
  5
151
  8
0
  6
CONTINUOUS
 62
     7
 10
-16.86
 20
36.8308
 30
0.0
 11
-16.86
 21
35.8308
 31
0.0
  0
LINE
  5
152
  8
0
  6
CONTINUOUS
 62
     7
 10
-12.31
 20
36.8308
 30
0.0
 11
-16.86
 21
36.8308
 31
0.0
  0
ARC
  5
153
  8
0
  6
CONTINUOUS
 62
     7
 10
-12.31
 20
35.7808
 30
0.0
 40
1.05000000000001
 50
0.0
 51
90.0
  0
LINE
  5
154
  8
0
  6
CONTINUOUS
 62
     7
 10
-11.26
 20
34.3308
 30
0.0
 11
-11.26
 21
35.7808
 31
0.0
  0
LINE
  5
155
  8
0
  6
CONTINUOUS
 62
     7
 10
-12.01
 20
34.3308
 30
0.0
 11
-11.26
 21
34.3308
 31
0.0
  0
LINE
  5
156
  8
0
  6
CONTINUOUS
 62
     7
 10
-12.01
 20
23.2308
 30
0.0
 11
-12.01
 21
34.3308
 31
0.0
  0
LINE
  5
157
  8
0
  6
CONTINUOUS
 62
     7
 10
-11.26
 20
23.2308
 30
0.0
 11
-12.01
 21
23.2308
 31
0.0
  0
LINE
  5
158
  8
0
  6
CONTINUOUS
 62
     7
 10
-11.26
 20
21.7808
 30
0.0
 11
-11.26
 21
23.2308
 31
0.0
  0
ARC
  5
159
  8
0
  6
CONTINUOUS
 62
     7
 10
-12.31
 20
21.7808
 30
0.0
 40
1.049999999999995
 50
270.0
 51
0.0
  0
LINE
  5
15A
  8
0
  6
CONTINUOUS
 62
     7
 10
-16.86
 20
20.7308
 30
0.0
 11
-12.31
 21
20.7308
 31
0.0
  0
LINE
  5
15B
  8
0
  6
CONTINUOUS
 62
     7
 10
-16.86
 20
21.7308
 30
0.0
 11
-16.86
 21
20.7308
 31
0.0
  0
LINE
  5
15C
  8
0
  6
CONTINUOUS
 62
     7
 10
-21.76
 20
21.7308
 30
0.0
 11
-16.86
 21
21.7308
 31
0.0
  0
LINE
  5
15D
  8
0
  6
CONTINUOUS
 62
     7
 10
-21.76
 20
20.7308
 30
0.0
 11
-21.76
 21
21.7308
 31
0.0
  0
LINE
  5
15E
  8
0
  6
CONTINUOUS
 62
     7
 10
-26.31
 20
20.7308
 30
0.0
 11
-21.76
 21
20.7308
 31
0.0
  0
ARC
  5
15F
  8
0
  6
CONTINUOUS
 62
     7
 10
-26.31
 20
21.7808
 30
0.0
 40
1.050000000000008
 50
180.0
 51
270.0
  0
LINE
  5
160
  8
0
  6
CONTINUOUS
 62
     7
 10
-27.36
 20
23.2308
 30
0.0
 11
-27.36
 21
21.7808
 31
0.0
  0
LINE
  5
161
  8
0
  6
CONTINUOUS
 62
     7
 10
-26.61
 20
23.2308
 30
0.0
 11
-27.36
 21
23.2308
 31
0.0
  0
LINE
  5
162
  8
0
  6
CONTINUOUS
 62
     7
 10
-26.61
 20
34.3308
 30
0.0
 11
-26.61
 21
23.2308
 31
0.0
  0
LINE
  5
163
  8
0
  6
CONTINUOUS
 62
     7
 10
-27.36
 20
34.3308
 30
0.0
 11
-26.61
 21
34.3308
 31
0.0
  0
LINE
  5
164
  8
0
  6
CONTINUOUS
 62
     7
 10
-27.36
 20
35.7808
 30
0.0
 11
-27.36
 21
34.3308
 31
0.0
  0
ARC
  5
165
  8
0
  6
CONTINUOUS
 62
     7
 10
-26.31
 20
35.7808
 30
0.0
 40
1.049999999999997
 50
90.0
 51
180.0
  0
LINE
  5
166
  8
0
  6
CONTINUOUS
 62
     7
 10
-21.76
 20
36.8308
 30
0.0
 11
-26.31
 21
36.8308
 31
0.0
  0
LINE
  5
167
  8
0
  6
CONTINUOUS
 62
     7
 10
-2.46
 20
35.8308
 30
0.0
 11
-2.46
 21
36.8308
 31
0.0
  0
LINE
  5
168
  8
0
  6
CONTINUOUS
 62
     7
 10
2.44
 20
35.8308
 30
0.0
 11
-2.46
 21
35.8308
 31
0.0
  0
LINE
  5
169
  8
0
  6
CONTINUOUS
 62
     7
 10
2.44
 20
36.8308
 30
0.0
 11
2.44
 21
35.8308
 31
0.0
  0
LINE
  5
16A
  8
0
  6
CONTINUOUS
 62
     7
 10
6.99
 20
36.8308
 30
0.0
 11
2.44
 21
36.8308
 31
0.0
  0
ARC
  5
16B
  8
0
  6
CONTINUOUS
 62
     7
 10
6.99
 20
35.7808
 30
0.0
 40
1.050000000000009
 50
0.0
 51
90.0
  0
LINE
  5
16C
  8
0
  6
CONTINUOUS
 62
     7
 10
8.04
 20
34.3308
 30
0.0
 11
8.04
 21
35.7808
 31
0.0
  0
LINE
  5
16D
  8
0
  6
CONTINUOUS
 62
     7
 10
7.29
 20
34.3308
 30
0.0
 11
8.04
 21
34.3308
 31
0.0
  0
LINE
  5
16E
  8
0
  6
CONTINUOUS
 62
     7
 10
7.29
 20
23.2308
 30
0.0
 11
7.29
 21
34.3308
 31
0.0
  0
LINE
  5
16F
  8
0
  6
CONTINUOUS
 62
     7
 10
8.04
 20
23.2308
 30
0.0
 11
7.29
 21
23.2308
 31
0.0
  0
LINE
  5
170
  8
0
  6
CONTINUOUS
 62
     7
 10
8.04
 20
21.7808
 30
0.0
 11
8.04
 21
23.2308
 31
0.0
  0
ARC
  5
171
  8
0
  6
CONTINUOUS
 62
     7
 10
6.99
 20
21.7808
 30
0.0
 40
1.049999999999994
 50
270.0
 51
0.0
  0
LINE
  5
172
  8
0
  6
CONTINUOUS
 62
     7
 10
2.44
 20
20.7308
 30
0.0
 11
6.99
 21
20.7308
 31
0.0
  0
LINE
  5
173
  8
0
  6
CONTINUOUS
 62
     7
 10
2.44
 20
21.7308
 30
0.0
 11
2.44
 21
20.7308
 31
0.0
  0
LINE
  5
174
  8
0
  6
CONTINUOUS
 62
     7
 10
-2.46
 20
21.7308
 30
0.0
 11
2.44
 21
21.7308
 31
0.0
  0
LINE
  5
175
  8
0
  6
CONTINUOUS
 62
     7
 10
-2.46
 20
20.7308
 30
0.0
 11
-2.46
 21
21.7308
 31
0.0
  0
LINE
  5
176
  8
0
  6
CONTINUOUS
 62
     7
 10
-7.01
 20
20.7308
 30
0.0
 11
-2.46
 21
20.7308
 31
0.0
  0
ARC
  5
177
  8
0
  6
CONTINUOUS
 62
     7
 10
-7.01
 20
21.7808
 30
0.0
 40
1.050000000000008
 50
180.0
 51
270.0
  0
LINE
  5
178
  8
0
  6
CONTINUOUS
 62
     7
 10
-8.06
 20
23.2308
 30
0.0
 11
-8.06
 21
21.7808
 31
0.0
  0
LINE
  5
179
  8
0
  6
CONTINUOUS
 62
     7
 10
-7.31
 20
23.2308
 30
0.0
 11
-8.06
 21
23.2308
 31
0.0
  0
LINE
  5
17A
  8
0
  6
CONTINUOUS
 62
     7
 10
-7.31
 20
34.3308
 30
0.0
 11
-7.31
 21
23.2308
 31
0.0
  0
LINE
  5
17B
  8
0
  6
CONTINUOUS
 62
     7
 10
-8.06
 20
34.3308
 30
0.0
 11
-7.31
 21
34.3308
 31
0.0
  0
LINE
  5
17C
  8
0
  6
CONTINUOUS
 62
     7
 10
-8.06
 20
35.7808
 30
0.0
 11
-8.06
 21
34.3308
 31
0.0
  0
ARC
  5
17D
  8
0
  6
CONTINUOUS
 62
     7
 10
-7.01
 20
35.7808
 30
0.0
 40
1.049999999999997
 50
90.0
 51
180.0
  0
LINE
  5
17E
  8
0
  6
CONTINUOUS
 62
     7
 10
-2.46
 20
36.8308
 30
0.0
 11
-7.01
 21
36.8308
 31
0.0
  0
LINE
  5
17F
  8
0
  6
CONTINUOUS
 62
     7
 10
16.84
 20
35.8308
 30
0.0
 11
16.84
 21
36.8308
 31
0.0
  0
LINE
  5
180
  8
0
  6
CONTINUOUS
 62
     7
 10
21.74
 20
35.8308
 30
0.0
 11
16.84
 21
35.8308
 31
0.0
  0
LINE
  5
181
  8
0
  6
CONTINUOUS
 62
     7
 10
21.74
 20
36.8308
 30
0.0
 11
21.74
 21
35.8308
 31
0.0
  0
LINE
  5
182
  8
0
  6
CONTINUOUS
 62
     7
 10
26.29
 20
36.8308
 30
0.0
 11
21.74
 21
36.8308
 31
0.0
  0
ARC
  5
183
  8
0
  6
CONTINUOUS
 62
     7
 10
26.29
 20
35.7808
 30
0.0
 40
1.050000000000008
 50
0.0
 51
90.0
  0
LINE
  5
184
  8
0
  6
CONTINUOUS
 62
     7
 10
27.34
 20
34.3308
 30
0.0
 11
27.34
 21
35.7808
 31
0.0
  0
LINE
  5
185
  8
0
  6
CONTINUOUS
 62
     7
 10
26.59
 20
34.3308
 30
0.0
 11
27.34
 21
34.3308
 31
0.0
  0
LINE
  5
186
  8
0
  6
CONTINUOUS
 62
     7
 10
26.59
 20
23.2308
 30
0.0
 11
26.59
 21
34.3308
 31
0.0
  0
LINE
  5
187
  8
0
  6
CONTINUOUS
 62
     7
 10
27.34
 20
23.2308
 30
0.0
 11
26.59
 21
23.2308
 31
0.0
  0
LINE
  5
188
  8
0
  6
CONTINUOUS
 62
     7
 10
27.34
 20
21.7808
 30
0.0
 11
27.34
 21
23.2308
 31
0.0
  0
ARC
  5
189
  8
0
  6
CONTINUOUS
 62
     7
 10
26.29
 20
21.7808
 30
0.0
 40
1.049999999999994
 50
270.0
 51
0.0
  0
LINE
  5
18A
  8
0
  6
CONTINUOUS
 62
     7
 10
21.74
 20
20.7308
 30
0.0
 11
26.29
 21
20.7308
 31
0.0
  0
LINE
  5
18B
  8
0
  6
CONTINUOUS
 62
     7
 10
21.74
 20
21.7308
 30
0.0
 11
21.74
 21
20.7308
 31
0.0
  0
LINE
  5
18C
  8
0
  6
CONTINUOUS
 62
     7
 10
16.84
 20
21.7308
 30
0.0
 11
21.74
 21
21.7308
 31
0.0
  0
LINE
  5
18D
  8
0
  6
CONTINUOUS
 62
     7
 10
16.84
 20
20.7308
 30
0.0
 11
16.84
 21
21.7308
 31
0.0
  0
LINE
  5
18E
  8
0
  6
CONTINUOUS
 62
     7
 10
12.29
 20
20.7308
 30
0.0
 11
16.84
 21
20.7308
 31
0.0
  0
ARC
  5
18F
  8
0
  6
CONTINUOUS
 62
     7
 10
12.29
 20
21.7808
 30
0.0
 40
1.050000000000008
 50
180.0
 51
270.0
  0
LINE
  5
190
  8
0
  6
CONTINUOUS
 62
     7
 10
11.24
 20
23.2308
 30
0.0
 11
11.24
 21
21.7808
 31
0.0
  0
LINE
  5
191
  8
0
  6
CONTINUOUS
 62
     7
 10
11.99
 20
23.2308
 30
0.0
 11
11.24
 21
23.2308
 31
0.0
  0
LINE
  5
192
  8
0
  6
CONTINUOUS
 62
     7
 10
11.99
 20
34.3308
 30
0.0
 11
11.99
 21
23.2308
 31
0.0
  0
LINE
  5
193
  8
0
  6
CONTINUOUS
 62
     7
 10
11.24
 20
34.3308
 30
0.0
 11
11.99
 21
34.3308
 31
0.0
  0
LINE
  5
194
  8
0
  6
CONTINUOUS
 62
     7
 10
11.24
 20
35.7808
 30
0.0
 11
11.24
 21
34.3308
 31
0.0
  0
ARC
  5
195
  8
0
  6
CONTINUOUS
 62
     7
 10
12.29
 20
35.7808
 30
0.0
 40
1.049999999999997
 50
90.0
 51
180.0
  0
LINE
  5
196
  8
0
  6
CONTINUOUS
 62
     7
 10
16.84
 20
36.8308
 30
0.0
 11
12.29
 21
36.8308
 31
0.0
  0
LINE
  5
197
  8
0
  6
CONTINUOUS
 62
     7
 10
36.14
 20
35.8308
 30
0.0
 11
36.14
 21
36.8308
 31
0.0
  0
LINE
  5
198
  8
0
  6
CONTINUOUS
 62
     7
 10
41.04
 20
35.8308
 30
0.0
 11
36.14
 21
35.8308
 31
0.0
  0
LINE
  5
199
  8
0
  6
CONTINUOUS
 62
     7
 10
41.04
 20
36.8308
 30
0.0
 11
41.04
 21
35.8308
 31
0.0
  0
LINE
  5
19A
  8
0
  6
CONTINUOUS
 62
     7
 10
45.59
 20
36.8308
 30
0.0
 11
41.04
 21
36.8308
 31
0.0
  0
ARC
  5
19B
  8
0
  6
CONTINUOUS
 62
     7
 10
45.59
 20
35.7808
 30
0.0
 40
1.050000000000011
 50
0.0
 51
90.0
  0
LINE
  5
19C
  8
0
  6
CONTINUOUS
 62
     7
 10
46.64
 20
34.3308
 30
0.0
 11
46.64
 21
35.7808
 31
0.0
  0
LINE
  5
19D
  8
0
  6
CONTINUOUS
 62
     7
 10
45.89
 20
34.3308
 30
0.0
 11
46.64
 21
34.3308
 31
0.0
  0
LINE
  5
19E
  8
0
  6
CONTINUOUS
 62
     7
 10
45.89
 20
23.2308
 30
0.0
 11
45.89
 21
34.3308
 31
0.0
  0
LINE
  5
19F
  8
0
  6
CONTINUOUS
 62
     7
 10
46.64
 20
23.2308
 30
0.0
 11
45.89
 21
23.2308
 31
0.0
  0
LINE
  5
1A0
  8
0
  6
CONTINUOUS
 62
     7
 10
46.64
 20
21.7808
 30
0.0
 11
46.64
 21
23.2308
 31
0.0
  0
ARC
  5
1A1
  8
0
  6
CONTINUOUS
 62
     7
 10
45.59
 20
21.7808
 30
0.0
 40
1.049999999999997
 50
270.0
 51
0.0
  0
LINE
  5
1A2
  8
0
  6
CONTINUOUS
 62
     7
 10
41.04
 20
20.7308
 30
0.0
 11
45.59
 21
20.7308
 31
0.0
  0
LINE
  5
1A3
  8
0
  6
CONTINUOUS
 62
     7
 10
41.04
 20
21.7308
 30
0.0
 11
41.04
 21
20.7308
 31
0.0
  0
LINE
  5
1A4
  8
0
  6
CONTINUOUS
 62
     7
 10
36.14
 20
21.7308
 30
0.0
 11
41.04
 21
21.7308
 31
0.0
  0
LINE
  5
1A5
  8
0
  6
CONTINUOUS
 62
     7
 10
36.14
 20
20.7308
 30
0.0
 11
36.14
 21
21.7308
 31
0.0
  0
LINE
  5
1A6
  8
0
  6
CONTINUOUS
 62
     7
 10
31.59
 20
20.7308
 30
0.0
 11
36.14
 21
20.7308
 31
0.0
  0
ARC
  5
1A7
  8
0
  6
CONTINUOUS
 62
     7
 10
31.59
 20
21.7808
 30
0.0
 40
1.050000000000008
 50
180.0
 51
270.0
  0
LINE
  5
1A8
  8
0
  6
CONTINUOUS
 62
     7
 10
30.54
 20
23.2308
 30
0.0
 11
30.54
 21
21.7808
 31
0.0
  0
LINE
  5
1A9
  8
0
  6
CONTINUOUS
 62
     7
 10
31.29
 20
23.2308
 30
0.0
 11
30.54
 21
23.2308
 31
0.0
  0
LINE
  5
1AA
  8
0
  6
CONTINUOUS
 62
     7
 10
31.29
 20
34.3308
 30
0.0
 11
31.29
 21
23.2308
 31
0.0
  0
LINE
  5
1AB
  8
0
  6
CONTINUOUS
 62
     7
 10
30.54
 20
34.3308
 30
0.0
 11
31.29
 21
34.3308
 31
0.0
  0
LINE
  5
1AC
  8
0
  6
CONTINUOUS
 62
     7
 10
30.54
 20
35.7808
 30
0.0
 11
30.54
 21
34.3308
 31
0.0
  0
ARC
  5
1AD
  8
0
  6
CONTINUOUS
 62
     7
 10
31.59
 20
35.7808
 30
0.0
 40
1.049999999999997
 50
90.0
 51
180.0
  0
LINE
  5
1AE
  8
0
  6
CONTINUOUS
 62
     7
 10
36.14
 20
36.8308
 30
0.0
 11
31.59
 21
36.8308
 31
0.0
  0
LINE
  5
1AF
  8
0
  6
CONTINUOUS
 62
     7
 10
55.44
 20
35.8308
 30
0.0
 11
55.44
 21
36.8308
 31
0.0
  0
LINE
  5
1B0
  8
0
  6
CONTINUOUS
 62
     7
 10
60.34
 20
35.8308
 30
0.0
 11
55.44
 21
35.8308
 31
0.0
  0
LINE
  5
1B1
  8
0
  6
CONTINUOUS
 62
     7
 10
60.34
 20
36.8308
 30
0.0
 11
60.34
 21
35.8308
 31
0.0
  0
LINE
  5
1B2
  8
0
  6
CONTINUOUS
 62
     7
 10
64.89
 20
36.8308
 30
0.0
 11
60.34
 21
36.8308
 31
0.0
  0
ARC
  5
1B3
  8
0
  6
CONTINUOUS
 62
     7
 10
64.89
 20
35.7808
 30
0.0
 40
1.050000000000011
 50
0.0
 51
90.0
  0
LINE
  5
1B4
  8
0
  6
CONTINUOUS
 62
     7
 10
65.94
 20
34.3308
 30
0.0
 11
65.94
 21
35.7808
 31
0.0
  0
LINE
  5
1B5
  8
0
  6
CONTINUOUS
 62
     7
 10
65.19
 20
34.3308
 30
0.0
 11
65.94
 21
34.3308
 31
0.0
  0
LINE
  5
1B6
  8
0
  6
CONTINUOUS
 62
     7
 10
65.19
 20
23.2308
 30
0.0
 11
65.19
 21
34.3308
 31
0.0
  0
LINE
  5
1B7
  8
0
  6
CONTINUOUS
 62
     7
 10
65.94
 20
23.2308
 30
0.0
 11
65.19
 21
23.2308
 31
0.0
  0
LINE
  5
1B8
  8
0
  6
CONTINUOUS
 62
     7
 10
65.94
 20
21.7808
 30
0.0
 11
65.94
 21
23.2308
 31
0.0
  0
ARC
  5
1B9
  8
0
  6
CONTINUOUS
 62
     7
 10
64.89
 20
21.7808
 30
0.0
 40
1.049999999999997
 50
270.0
 51
0.0
  0
LINE
  5
1BA
  8
0
  6
CONTINUOUS
 62
     7
 10
60.34
 20
20.7308
 30
0.0
 11
64.89
 21
20.7308
 31
0.0
  0
LINE
  5
1BB
  8
0
  6
CONTINUOUS
 62
     7
 10
60.34
 20
21.7308
 30
0.0
 11
60.34
 21
20.7308
 31
0.0
  0
LINE
  5
1BC
  8
0
  6
CONTINUOUS
 62
     7
 10
55.44
 20
21.7308
 30
0.0
 11
60.34
 21
21.7308
 31
0.0
  0
LINE
  5
1BD
  8
0
  6
CONTINUOUS
 62
     7
 10
55.44
 20
20.7308
 30
0.0
 11
55.44
 21
21.7308
 31
0.0
  0
LINE
  5
1BE
  8
0
  6
CONTINUOUS
 62
     7
 10
50.89
 20
20.7308
 30
0.0
 11
55.44
 21
20.7308
 31
0.0
  0
ARC
  5
1BF
  8
0
  6
CONTINUOUS
 62
     7
 10
50.89
 20
21.7808
 30
0.0
 40
1.050000000000008
 50
180.0
 51
270.0
  0
LINE
  5
1C0
  8
0
  6
CONTINUOUS
 62
     7
 10
49.84
 20
23.2308
 30
0.0
 11
49.84
 21
21.7808
 31
0.0
  0
LINE
  5
1C1
  8
0
  6
CONTINUOUS
 62
     7
 10
50.59
 20
23.2308
 30
0.0
 11
49.84
 21
23.2308
 31
0.0
  0
LINE
  5
1C2
  8
0
  6
CONTINUOUS
 62
     7
 10
50.59
 20
34.3308
 30
0.0
 11
50.59
 21
23.2308
 31
0.0
  0
LINE
  5
1C3
  8
0
  6
CONTINUOUS
 62
     7
 10
49.84
 20
34.3308
 30
0.0
 11
50.59
 21
34.3308
 31
0.0
  0
LINE
  5
1C4
  8
0
  6
CONTINUOUS
 62
     7
 10
49.84
 20
35.7808
 30
0.0
 11
49.84
 21
34.3308
 31
0.0
  0
ARC
  5
1C5
  8
0
  6
CONTINUOUS
 62
     7
 10
50.89
 20
35.7808
 30
0.0
 40
1.049999999999997
 50
90.0
 51
180.0
  0
LINE
  5
1C6
  8
0
  6
CONTINUOUS
 62
     7
 10
55.44
 20
36.8308
 30
0.0
 11
50.89
 21
36.8308
 31
0.0
  0
LINE
  5
1C7
  8
0
  6
CONTINUOUS
 62
     7
 10
74.74
 20
35.8308
 30
0.0
 11
74.74
 21
36.8308
 31
0.0
  0
LINE
  5
1C8
  8
0
  6
CONTINUOUS
 62
     7
 10
79.64
 20
35.8308
 30
0.0
 11
74.74
 21
35.8308
 31
0.0
  0
LINE
  5
1C9
  8
0
  6
CONTINUOUS
 62
     7
 10
79.64
 20
36.8308
 30
0.0
 11
79.64
 21
35.8308
 31
0.0
  0
LINE
  5
1CA
  8
0
  6
CONTINUOUS
 62
     7
 10
84.19
 20
36.8308
 30
0.0
 11
79.64
 21
36.8308
 31
0.0
  0
ARC
  5
1CB
  8
0
  6
CONTINUOUS
 62
     7
 10
84.19
 20
35.7808
 30
0.0
 40
1.050000000000011
 50
0.0
 51
90.0
  0
LINE
  5
1CC
  8
0
  6
CONTINUOUS
 62
     7
 10
85.24
 20
34.3308
 30
0.0
 11
85.24
 21
35.7808
 31
0.0
  0
LINE
  5
1CD
  8
0
  6
CONTINUOUS
 62
     7
 10
84.49
 20
34.3308
 30
0.0
 11
85.24
 21
34.3308
 31
0.0
  0
LINE
  5
1CE
  8
0
  6
CONTINUOUS
 62
     7
 10
84.49
 20
23.2308
 30
0.0
 11
84.49
 21
34.3308
 31
0.0
  0
LINE
  5
1CF
  8
0
  6
CONTINUOUS
 62
     7
 10
85.24
 20
23.2308
 30
0.0
 11
84.49
 21
23.2308
 31
0.0
  0
LINE
  5
1D0
  8
0
  6
CONTINUOUS
 62
     7
 10
85.24
 20
21.7808
 30
0.0
 11
85.24
 21
23.2308
 31
0.0
  0
ARC
  5
1D1
  8
0
  6
CONTINUOUS
 62
     7
 10
84.19
 20
21.7808
 30
0.0
 40
1.049999999999997
 50
270.0
 51
0.0
  0
LINE
  5
1D2
  8
0
  6
CONTINUOUS
 62
     7
 10
79.64
 20
20.7308
 30
0.0
 11
84.19
 21
20.7308
 31
0.0
  0
LINE
  5
1D3
  8
0
  6
CONTINUOUS
 62
     7
 10
79.64
 20
21.7308
 30
0.0
 11
79.64
 21
20.7308
 31
0.0
  0
LINE
  5
1D4
  8
0
  6
CONTINUOUS
 62
     7
 10
74.74
 20
21.7308
 30
0.0
 11
79.64
 21
21.7308
 31
0.0
  0
LINE
  5
1D5
  8
0
  6
CONTINUOUS
 62
     7
 10
74.74
 20
20.7308
 30
0.0
 11
74.74
 21
21.7308
 31
0.0
  0
LINE
  5
1D6
  8
0
  6
CONTINUOUS
 62
     7
 10
70.19
 20
20.7308
 30
0.0
 11
74.74
 21
20.7308
 31
0.0
  0
ARC
  5
1D7
  8
0
  6
CONTINUOUS
 62
     7
 10
70.19
 20
21.7808
 30
0.0
 40
1.050000000000008
 50
180.0
 51
270.0
  0
LINE
  5
1D8
  8
0
  6
CONTINUOUS
 62
     7
 10
69.14
 20
23.2308
 30
0.0
 11
69.14
 21
21.7808
 31
0.0
  0
LINE
  5
1D9
  8
0
  6
CONTINUOUS
 62
     7
 10
69.89
 20
23.2308
 30
0.0
 11
69.14
 21
23.2308
 31
0.0
  0
LINE
  5
1DA
  8
0
  6
CONTINUOUS
 62
     7
 10
69.89
 20
34.3308
 30
0.0
 11
69.89
 21
23.2308
 31
0.0
  0
LINE
  5
1DB
  8
0
  6
CONTINUOUS
 62
     7
 10
69.14
 20
34.3308
 30
0.0
 11
69.89
 21
34.3308
 31
0.0
  0
LINE
  5
1DC
  8
0
  6
CONTINUOUS
 62
     7
 10
69.14
 20
35.7808
 30
0.0
 11
69.14
 21
34.3308
 31
0.0
  0
ARC
  5
1DD
  8
0
  6
CONTINUOUS
 62
     7
 10
70.19
 20
35.7808
 30
0.0
 40
1.049999999999997
 50
90.0
 51
180.0
  0
LINE
  5
1DE
  8
0
  6
CONTINUOUS
 62
     7
 10
74.74
 20
36.8308
 30
0.0
 11
70.19
 21
36.8308
 31
0.0
  0
LINE
  5
1DF
  8
0
  6
CONTINUOUS
 62
     7
 10
94.04
 20
35.8308
 30
0.0
 11
94.04
 21
36.8308
 31
0.0
  0
LINE
  5
1E0
  8
0
  6
CONTINUOUS
 62
     7
 10
98.94
 20
35.8308
 30
0.0
 11
94.04
 21
35.8308
 31
0.0
  0
LINE
  5
1E1
  8
0
  6
CONTINUOUS
 62
     7
 10
98.94
 20
36.8308
 30
0.0
 11
98.94
 21
35.8308
 31
0.0
  0
LINE
  5
1E2
  8
0
  6
CONTINUOUS
 62
     7
 10
103.49
 20
36.8308
 30
0.0
 11
98.94
 21
36.8308
 31
0.0
  0
ARC
  5
1E3
  8
0
  6
CONTINUOUS
 62
     7
 10
103.49
 20
35.7808
 30
0.0
 40
1.050000000000011
 50
0.0
 51
90.0
  0
LINE
  5
1E4
  8
0
  6
CONTINUOUS
 62
     7
 10
104.54
 20
34.3308
 30
0.0
 11
104.54
 21
35.7808
 31
0.0
  0
LINE
  5
1E5
  8
0
  6
CONTINUOUS
 62
     7
 10
103.79
 20
34.3308
 30
0.0
 11
104.54
 21
34.3308
 31
0.0
  0
LINE
  5
1E6
  8
0
  6
CONTINUOUS
 62
     7
 10
103.79
 20
23.2308
 30
0.0
 11
103.79
 21
34.3308
 31
0.0
  0
LINE
  5
1E7
  8
0
  6
CONTINUOUS
 62
     7
 10
104.54
 20
23.2308
 30
0.0
 11
103.79
 21
23.2308
 31
0.0
  0
LINE
  5
1E8
  8
0
  6
CONTINUOUS
 62
     7
 10
104.54
 20
21.7808
 30
0.0
 11
104.54
 21
23.2308
 31
0.0
  0
ARC
  5
1E9
  8
0
  6
CONTINUOUS
 62
     7
 10
103.49
 20
21.7808
 30
0.0
 40
1.049999999999997
 50
270.0
 51
0.0
  0
LINE
  5
1EA
  8
0
  6
CONTINUOUS
 62
     7
 10
98.94
 20
20.7308
 30
0.0
 11
103.49
 21
20.7308
 31
0.0
  0
LINE
  5
1EB
  8
0
  6
CONTINUOUS
 62
     7
 10
98.94
 20
21.7308
 30
0.0
 11
98.94
 21
20.7308
 31
0.0
  0
LINE
  5
1EC
  8
0
  6
CONTINUOUS
 62
     7
 10
94.04
 20
21.7308
 30
0.0
 11
98.94
 21
21.7308
 31
0.0
  0
LINE
  5
1ED
  8
0
  6
CONTINUOUS
 62
     7
 10
94.04
 20
20.7308
 30
0.0
 11
94.04
 21
21.7308
 31
0.0
  0
LINE
  5
1EE
  8
0
  6
CONTINUOUS
 62
     7
 10
89.49
 20
20.7308
 30
0.0
 11
94.04
 21
20.7308
 31
0.0
  0
ARC
  5
1EF
  8
0
  6
CONTINUOUS
 62
     7
 10
89.49
 20
21.7808
 30
0.0
 40
1.050000000000008
 50
180.0
 51
270.0
  0
LINE
  5
1F0
  8
0
  6
CONTINUOUS
 62
     7
 10
88.44
 20
23.2308
 30
0.0
 11
88.44
 21
21.7808
 31
0.0
  0
LINE
  5
1F1
  8
0
  6
CONTINUOUS
 62
     7
 10
89.19
 20
23.2308
 30
0.0
 11
88.44
 21
23.2308
 31
0.0
  0
LINE
  5
1F2
  8
0
  6
CONTINUOUS
 62
     7
 10
89.19
 20
34.3308
 30
0.0
 11
89.19
 21
23.2308
 31
0.0
  0
LINE
  5
1F3
  8
0
  6
CONTINUOUS
 62
     7
 10
88.44
 20
34.3308
 30
0.0
 11
89.19
 21
34.3308
 31
0.0
  0
LINE
  5
1F4
  8
0
  6
CONTINUOUS
 62
     7
 10
88.44
 20
35.7808
 30
0.0
 11
88.44
 21
34.3308
 31
0.0
  0
ARC
  5
1F5
  8
0
  6
CONTINUOUS
 62
     7
 10
89.49
 20
35.7808
 30
0.0
 40
1.049999999999997
 50
90.0
 51
180.0
  0
LINE
  5
1F6
  8
0
  6
CONTINUOUS
 62
     7
 10
94.04
 20
36.8308
 30
0.0
 11
89.49
 21
36.8308
 31
0.0
  0
LINE
  5
1F7
  8
0
  6
CONTINUOUS
 62
     7
 10
-98.96
 20
16.5308
 30
0.0
 11
-98.96
 21
17.5308
 31
0.0
  0
LINE
  5
1F8
  8
0
  6
CONTINUOUS
 62
     7
 10
-94.06
 20
16.5308
 30
0.0
 11
-98.96
 21
16.5308
 31
0.0
  0
LINE
  5
1F9
  8
0
  6
CONTINUOUS
 62
     7
 10
-94.06
 20
17.5308
 30
0.0
 11
-94.06
 21
16.5308
 31
0.0
  0
LINE
  5
1FA
  8
0
  6
CONTINUOUS
 62
     7
 10
-89.51
 20
17.5308
 30
0.0
 11
-94.06
 21
17.5308
 31
0.0
  0
ARC
  5
1FB
  8
0
  6
CONTINUOUS
 62
     7
 10
-89.51
 20
16.4808
 30
0.0
 40
1.050000000000011
 50
0.0
 51
90.0
  0
LINE
  5
1FC
  8
0
  6
CONTINUOUS
 62
     7
 10
-88.46
 20
15.0308
 30
0.0
 11
-88.46
 21
16.4808
 31
0.0
  0
LINE
  5
1FD
  8
0
  6
CONTINUOUS
 62
     7
 10
-89.21
 20
15.0308
 30
0.0
 11
-88.46
 21
15.0308
 31
0.0
  0
LINE
  5
1FE
  8
0
  6
CONTINUOUS
 62
     7
 10
-89.21
 20
3.9308
 30
0.0
 11
-89.21
 21
15.0308
 31
0.0
  0
LINE
  5
1FF
  8
0
  6
CONTINUOUS
 62
     7
 10
-88.46
 20
3.9308
 30
0.0
 11
-89.21
 21
3.9308
 31
0.0
  0
LINE
  5
200
  8
0
  6
CONTINUOUS
 62
     7
 10
-88.46
 20
2.4808
 30
0.0
 11
-88.46
 21
3.9308
 31
0.0
  0
ARC
  5
201
  8
0
  6
CONTINUOUS
 62
     7
 10
-89.51
 20
2.4808
 30
0.0
 40
1.049999999999997
 50
270.0
 51
0.0
  0
LINE
  5
202
  8
0
  6
CONTINUOUS
 62
     7
 10
-94.06
 20
1.4308
 30
0.0
 11
-89.51
 21
1.4308
 31
0.0
  0
LINE
  5
203
  8
0
  6
CONTINUOUS
 62
     7
 10
-94.06
 20
2.4308
 30
0.0
 11
-94.06
 21
1.4308
 31
0.0
  0
LINE
  5
204
  8
0
  6
CONTINUOUS
 62
     7
 10
-98.96
 20
2.4308
 30
0.0
 11
-94.06
 21
2.4308
 31
0.0
  0
LINE
  5
205
  8
0
  6
CONTINUOUS
 62
     7
 10
-98.96
 20
1.4308
 30
0.0
 11
-98.96
 21
2.4308
 31
0.0
  0
LINE
  5
206
  8
0
  6
CONTINUOUS
 62
     7
 10
-103.51
 20
1.4308
 30
0.0
 11
-98.96
 21
1.4308
 31
0.0
  0
ARC
  5
207
  8
0
  6
CONTINUOUS
 62
     7
 10
-103.51
 20
2.4808
 30
0.0
 40
1.050000000000009
 50
180.0
 51
270.0
  0
LINE
  5
208
  8
0
  6
CONTINUOUS
 62
     7
 10
-104.56
 20
3.9308
 30
0.0
 11
-104.56
 21
2.4808
 31
0.0
  0
LINE
  5
209
  8
0
  6
CONTINUOUS
 62
     7
 10
-103.81
 20
3.9308
 30
0.0
 11
-104.56
 21
3.9308
 31
0.0
  0
LINE
  5
20A
  8
0
  6
CONTINUOUS
 62
     7
 10
-103.81
 20
15.0308
 30
0.0
 11
-103.81
 21
3.9308
 31
0.0
  0
LINE
  5
20B
  8
0
  6
CONTINUOUS
 62
     7
 10
-104.56
 20
15.0308
 30
0.0
 11
-103.81
 21
15.0308
 31
0.0
  0
LINE
  5
20C
  8
0
  6
CONTINUOUS
 62
     7
 10
-104.56
 20
16.4808
 30
0.0
 11
-104.56
 21
15.0308
 31
0.0
  0
ARC
  5
20D
  8
0
  6
CONTINUOUS
 62
     7
 10
-103.51
 20
16.4808
 30
0.0
 40
1.049999999999997
 50
90.0
 51
180.0
  0
LINE
  5
20E
  8
0
  6
CONTINUOUS
 62
     7
 10
-98.96
 20
17.5308
 30
0.0
 11
-103.51
 21
17.5308
 31
0.0
  0
LINE
  5
20F
  8
0
  6
CONTINUOUS
 62
     7
 10
-79.66
 20
16.5308
 30
0.0
 11
-79.66
 21
17.5308
 31
0.0
  0
LINE
  5
210
  8
0
  6
CONTINUOUS
 62
     7
 10
-74.76
 20
16.5308
 30
0.0
 11
-79.66
 21
16.5308
 31
0.0
  0
LINE
  5
211
  8
0
  6
CONTINUOUS
 62
     7
 10
-74.76
 20
17.5308
 30
0.0
 11
-74.76
 21
16.5308
 31
0.0
  0
LINE
  5
212
  8
0
  6
CONTINUOUS
 62
     7
 10
-70.21
 20
17.5308
 30
0.0
 11
-74.76
 21
17.5308
 31
0.0
  0
ARC
  5
213
  8
0
  6
CONTINUOUS
 62
     7
 10
-70.21
 20
16.4808
 30
0.0
 40
1.050000000000011
 50
0.0
 51
90.0
  0
LINE
  5
214
  8
0
  6
CONTINUOUS
 62
     7
 10
-69.16
 20
15.0308
 30
0.0
 11
-69.16
 21
16.4808
 31
0.0
  0
LINE
  5
215
  8
0
  6
CONTINUOUS
 62
     7
 10
-69.91
 20
15.0308
 30
0.0
 11
-69.16
 21
15.0308
 31
0.0
  0
LINE
  5
216
  8
0
  6
CONTINUOUS
 62
     7
 10
-69.91
 20
3.9308
 30
0.0
 11
-69.91
 21
15.0308
 31
0.0
  0
LINE
  5
217
  8
0
  6
CONTINUOUS
 62
     7
 10
-69.16
 20
3.9308
 30
0.0
 11
-69.91
 21
3.9308
 31
0.0
  0
LINE
  5
218
  8
0
  6
CONTINUOUS
 62
     7
 10
-69.16
 20
2.4808
 30
0.0
 11
-69.16
 21
3.9308
 31
0.0
  0
ARC
  5
219
  8
0
  6
CONTINUOUS
 62
     7
 10
-70.21
 20
2.4808
 30
0.0
 40
1.049999999999997
 50
270.0
 51
0.0
  0
LINE
  5
21A
  8
0
  6
CONTINUOUS
 62
     7
 10
-74.76
 20
1.4308
 30
0.0
 11
-70.21
 21
1.4308
 31
0.0
  0
LINE
  5
21B
  8
0
  6
CONTINUOUS
 62
     7
 10
-74.76
 20
2.4308
 30
0.0
 11
-74.76
 21
1.4308
 31
0.0
  0
LINE
  5
21C
  8
0
  6
CONTINUOUS
 62
     7
 10
-79.66
 20
2.4308
 30
0.0
 11
-74.76
 21
2.4308
 31
0.0
  0
LINE
  5
21D
  8
0
  6
CONTINUOUS
 62
     7
 10
-79.66
 20
1.4308
 30
0.0
 11
-79.66
 21
2.4308
 31
0.0
  0
LINE
  5
21E
  8
0
  6
CONTINUOUS
 62
     7
 10
-84.21
 20
1.4308
 30
0.0
 11
-79.66
 21
1.4308
 31
0.0
  0
ARC
  5
21F
  8
0
  6
CONTINUOUS
 62
     7
 10
-84.21
 20
2.4808
 30
0.0
 40
1.050000000000009
 50
180.0
 51
270.0
  0
LINE
  5
220
  8
0
  6
CONTINUOUS
 62
     7
 10
-85.26
 20
3.9308
 30
0.0
 11
-85.26
 21
2.4808
 31
0.0
  0
LINE
  5
221
  8
0
  6
CONTINUOUS
 62
     7
 10
-84.51
 20
3.9308
 30
0.0
 11
-85.26
 21
3.9308
 31
0.0
  0
LINE
  5
222
  8
0
  6
CONTINUOUS
 62
     7
 10
-84.51
 20
15.0308
 30
0.0
 11
-84.51
 21
3.9308
 31
0.0
  0
LINE
  5
223
  8
0
  6
CONTINUOUS
 62
     7
 10
-85.26
 20
15.0308
 30
0.0
 11
-84.51
 21
15.0308
 31
0.0
  0
LINE
  5
224
  8
0
  6
CONTINUOUS
 62
     7
 10
-85.26
 20
16.4808
 30
0.0
 11
-85.26
 21
15.0308
 31
0.0
  0
ARC
  5
225
  8
0
  6
CONTINUOUS
 62
     7
 10
-84.21
 20
16.4808
 30
0.0
 40
1.049999999999997
 50
90.0
 51
180.0
  0
LINE
  5
226
  8
0
  6
CONTINUOUS
 62
     7
 10
-79.66
 20
17.5308
 30
0.0
 11
-84.21
 21
17.5308
 31
0.0
  0
LINE
  5
227
  8
0
  6
CONTINUOUS
 62
     7
 10
-60.36
 20
16.5308
 30
0.0
 11
-60.36
 21
17.5308
 31
0.0
  0
LINE
  5
228
  8
0
  6
CONTINUOUS
 62
     7
 10
-55.46
 20
16.5308
 30
0.0
 11
-60.36
 21
16.5308
 31
0.0
  0
LINE
  5
229
  8
0
  6
CONTINUOUS
 62
     7
 10
-55.46
 20
17.5308
 30
0.0
 11
-55.46
 21
16.5308
 31
0.0
  0
LINE
  5
22A
  8
0
  6
CONTINUOUS
 62
     7
 10
-50.91
 20
17.5308
 30
0.0
 11
-55.46
 21
17.5308
 31
0.0
  0
ARC
  5
22B
  8
0
  6
CONTINUOUS
 62
     7
 10
-50.91
 20
16.4808
 30
0.0
 40
1.050000000000011
 50
0.0
 51
90.0
  0
LINE
  5
22C
  8
0
  6
CONTINUOUS
 62
     7
 10
-49.86
 20
15.0308
 30
0.0
 11
-49.86
 21
16.4808
 31
0.0
  0
LINE
  5
22D
  8
0
  6
CONTINUOUS
 62
     7
 10
-50.61
 20
15.0308
 30
0.0
 11
-49.86
 21
15.0308
 31
0.0
  0
LINE
  5
22E
  8
0
  6
CONTINUOUS
 62
     7
 10
-50.61
 20
3.9308
 30
0.0
 11
-50.61
 21
15.0308
 31
0.0
  0
LINE
  5
22F
  8
0
  6
CONTINUOUS
 62
     7
 10
-49.86
 20
3.9308
 30
0.0
 11
-50.61
 21
3.9308
 31
0.0
  0
LINE
  5
230
  8
0
  6
CONTINUOUS
 62
     7
 10
-49.86
 20
2.4808
 30
0.0
 11
-49.86
 21
3.9308
 31
0.0
  0
ARC
  5
231
  8
0
  6
CONTINUOUS
 62
     7
 10
-50.91
 20
2.4808
 30
0.0
 40
1.049999999999995
 50
270.0
 51
0.0
  0
LINE
  5
232
  8
0
  6
CONTINUOUS
 62
     7
 10
-55.46
 20
1.4308
 30
0.0
 11
-50.91
 21
1.4308
 31
0.0
  0
LINE
  5
233
  8
0
  6
CONTINUOUS
 62
     7
 10
-55.46
 20
2.4308
 30
0.0
 11
-55.46
 21
1.4308
 31
0.0
  0
LINE
  5
234
  8
0
  6
CONTINUOUS
 62
     7
 10
-60.36
 20
2.4308
 30
0.0
 11
-55.46
 21
2.4308
 31
0.0
  0
LINE
  5
235
  8
0
  6
CONTINUOUS
 62
     7
 10
-60.36
 20
1.4308
 30
0.0
 11
-60.36
 21
2.4308
 31
0.0
  0
LINE
  5
236
  8
0
  6
CONTINUOUS
 62
     7
 10
-64.91
 20
1.4308
 30
0.0
 11
-60.36
 21
1.4308
 31
0.0
  0
ARC
  5
237
  8
0
  6
CONTINUOUS
 62
     7
 10
-64.91
 20
2.4808
 30
0.0
 40
1.050000000000009
 50
180.0
 51
270.0
  0
LINE
  5
238
  8
0
  6
CONTINUOUS
 62
     7
 10
-65.96
 20
3.9308
 30
0.0
 11
-65.96
 21
2.4808
 31
0.0
  0
LINE
  5
239
  8
0
  6
CONTINUOUS
 62
     7
 10
-65.21
 20
3.9308
 30
0.0
 11
-65.96
 21
3.9308
 31
0.0
  0
LINE
  5
23A
  8
0
  6
CONTINUOUS
 62
     7
 10
-65.21
 20
15.0308
 30
0.0
 11
-65.21
 21
3.9308
 31
0.0
  0
LINE
  5
23B
  8
0
  6
CONTINUOUS
 62
     7
 10
-65.96
 20
15.0308
 30
0.0
 11
-65.21
 21
15.0308
 31
0.0
  0
LINE
  5
23C
  8
0
  6
CONTINUOUS
 62
     7
 10
-65.96
 20
16.4808
 30
0.0
 11
-65.96
 21
15.0308
 31
0.0
  0
ARC
  5
23D
  8
0
  6
CONTINUOUS
 62
     7
 10
-64.91
 20
16.4808
 30
0.0
 40
1.049999999999997
 50
90.0
 51
180.0
  0
LINE
  5
23E
  8
0
  6
CONTINUOUS
 62
     7
 10
-60.36
 20
17.5308
 30
0.0
 11
-64.91
 21
17.5308
 31
0.0
  0
LINE
  5
23F
  8
0
  6
CONTINUOUS
 62
     7
 10
-41.06
 20
16.5308
 30
0.0
 11
-41.06
 21
17.5308
 31
0.0
  0
LINE
  5
240
  8
0
  6
CONTINUOUS
 62
     7
 10
-36.16
 20
16.5308
 30
0.0
 11
-41.06
 21
16.5308
 31
0.0
  0
LINE
  5
241
  8
0
  6
CONTINUOUS
 62
     7
 10
-36.16
 20
17.5308
 30
0.0
 11
-36.16
 21
16.5308
 31
0.0
  0
LINE
  5
242
  8
0
  6
CONTINUOUS
 62
     7
 10
-31.61
 20
17.5308
 30
0.0
 11
-36.16
 21
17.5308
 31
0.0
  0
ARC
  5
243
  8
0
  6
CONTINUOUS
 62
     7
 10
-31.61
 20
16.4808
 30
0.0
 40
1.050000000000011
 50
0.0
 51
90.0
  0
LINE
  5
244
  8
0
  6
CONTINUOUS
 62
     7
 10
-30.56
 20
15.0308
 30
0.0
 11
-30.56
 21
16.4808
 31
0.0
  0
LINE
  5
245
  8
0
  6
CONTINUOUS
 62
     7
 10
-31.31
 20
15.0308
 30
0.0
 11
-30.56
 21
15.0308
 31
0.0
  0
LINE
  5
246
  8
0
  6
CONTINUOUS
 62
     7
 10
-31.31
 20
3.9308
 30
0.0
 11
-31.31
 21
15.0308
 31
0.0
  0
LINE
  5
247
  8
0
  6
CONTINUOUS
 62
     7
 10
-30.56
 20
3.9308
 30
0.0
 11
-31.31
 21
3.9308
 31
0.0
  0
LINE
  5
248
  8
0
  6
CONTINUOUS
 62
     7
 10
-30.56
 20
2.4808
 30
0.0
 11
-30.56
 21
3.9308
 31
0.0
  0
ARC
  5
249
  8
0
  6
CONTINUOUS
 62
     7
 10
-31.61
 20
2.4808
 30
0.0
 40
1.049999999999997
 50
270.0
 51
0.0
  0
LINE
  5
24A
  8
0
  6
CONTINUOUS
 62
     7
 10
-36.16
 20
1.4308
 30
0.0
 11
-31.61
 21
1.4308
 31
0.0
  0
LINE
  5
24B
  8
0
  6
CONTINUOUS
 62
     7
 10
-36.16
 20
2.4308
 30
0.0
 11
-36.16
 21
1.4308
 31
0.0
  0
LINE
  5
24C
  8
0
  6
CONTINUOUS
 62
     7
 10
-41.06
 20
2.4308
 30
0.0
 11
-36.16
 21
2.4308
 31
0.0
  0
LINE
  5
24D
  8
0
  6
CONTINUOUS
 62
     7
 10
-41.06
 20
1.4308
 30
0.0
 11
-41.06
 21
2.4308
 31
0.0
  0
LINE
  5
24E
  8
0
  6
CONTINUOUS
 62
     7
 10
-45.61
 20
1.4308
 30
0.0
 11
-41.06
 21
1.4308
 31
0.0
  0
ARC
  5
24F
  8
0
  6
CONTINUOUS
 62
     7
 10
-45.61
 20
2.4808
 30
0.0
 40
1.050000000000009
 50
180.0
 51
270.0
  0
LINE
  5
250
  8
0
  6
CONTINUOUS
 62
     7
 10
-46.66
 20
3.9308
 30
0.0
 11
-46.66
 21
2.4808
 31
0.0
  0
LINE
  5
251
  8
0
  6
CONTINUOUS
 62
     7
 10
-45.91
 20
3.9308
 30
0.0
 11
-46.66
 21
3.9308
 31
0.0
  0
LINE
  5
252
  8
0
  6
CONTINUOUS
 62
     7
 10
-45.91
 20
15.0308
 30
0.0
 11
-45.91
 21
3.9308
 31
0.0
  0
LINE
  5
253
  8
0
  6
CONTINUOUS
 62
     7
 10
-46.66
 20
15.0308
 30
0.0
 11
-45.91
 21
15.0308
 31
0.0
  0
LINE
  5
254
  8
0
  6
CONTINUOUS
 62
     7
 10
-46.66
 20
16.4808
 30
0.0
 11
-46.66
 21
15.0308
 31
0.0
  0
ARC
  5
255
  8
0
  6
CONTINUOUS
 62
     7
 10
-45.61
 20
16.4808
 30
0.0
 40
1.049999999999997
 50
90.0
 51
180.0
  0
LINE
  5
256
  8
0
  6
CONTINUOUS
 62
     7
 10
-41.06
 20
17.5308
 30
0.0
 11
-45.61
 21
17.5308
 31
0.0
  0
LINE
  5
257
  8
0
  6
CONTINUOUS
 62
     7
 10
-21.76
 20
16.5308
 30
0.0
 11
-21.76
 21
17.5308
 31
0.0
  0
LINE
  5
258
  8
0
  6
CONTINUOUS
 62
     7
 10
-16.86
 20
16.5308
 30
0.0
 11
-21.76
 21
16.5308
 31
0.0
  0
LINE
  5
259
  8
0
  6
CONTINUOUS
 62
     7
 10
-16.86
 20
17.5308
 30
0.0
 11
-16.86
 21
16.5308
 31
0.0
  0
LINE
  5
25A
  8
0
  6
CONTINUOUS
 62
     7
 10
-12.31
 20
17.5308
 30
0.0
 11
-16.86
 21
17.5308
 31
0.0
  0
ARC
  5
25B
  8
0
  6
CONTINUOUS
 62
     7
 10
-12.31
 20
16.4808
 30
0.0
 40
1.05000000000001
 50
0.0
 51
90.0
  0
LINE
  5
25C
  8
0
  6
CONTINUOUS
 62
     7
 10
-11.26
 20
15.0308
 30
0.0
 11
-11.26
 21
16.4808
 31
0.0
  0
LINE
  5
25D
  8
0
  6
CONTINUOUS
 62
     7
 10
-12.01
 20
15.0308
 30
0.0
 11
-11.26
 21
15.0308
 31
0.0
  0
LINE
  5
25E
  8
0
  6
CONTINUOUS
 62
     7
 10
-12.01
 20
3.9308
 30
0.0
 11
-12.01
 21
15.0308
 31
0.0
  0
LINE
  5
25F
  8
0
  6
CONTINUOUS
 62
     7
 10
-11.26
 20
3.9308
 30
0.0
 11
-12.01
 21
3.9308
 31
0.0
  0
LINE
  5
260
  8
0
  6
CONTINUOUS
 62
     7
 10
-11.26
 20
2.4808
 30
0.0
 11
-11.26
 21
3.9308
 31
0.0
  0
ARC
  5
261
  8
0
  6
CONTINUOUS
 62
     7
 10
-12.31
 20
2.4808
 30
0.0
 40
1.049999999999995
 50
270.0
 51
0.0
  0
LINE
  5
262
  8
0
  6
CONTINUOUS
 62
     7
 10
-16.86
 20
1.4308
 30
0.0
 11
-12.31
 21
1.4308
 31
0.0
  0
LINE
  5
263
  8
0
  6
CONTINUOUS
 62
     7
 10
-16.86
 20
2.4308
 30
0.0
 11
-16.86
 21
1.4308
 31
0.0
  0
LINE
  5
264
  8
0
  6
CONTINUOUS
 62
     7
 10
-21.76
 20
2.4308
 30
0.0
 11
-16.86
 21
2.4308
 31
0.0
  0
LINE
  5
265
  8
0
  6
CONTINUOUS
 62
     7
 10
-21.76
 20
1.4308
 30
0.0
 11
-21.76
 21
2.4308
 31
0.0
  0
LINE
  5
266
  8
0
  6
CONTINUOUS
 62
     7
 10
-26.31
 20
1.4308
 30
0.0
 11
-21.76
 21
1.4308
 31
0.0
  0
ARC
  5
267
  8
0
  6
CONTINUOUS
 62
     7
 10
-26.31
 20
2.4808
 30
0.0
 40
1.050000000000009
 50
180.0
 51
270.0
  0
LINE
  5
268
  8
0
  6
CONTINUOUS
 62
     7
 10
-27.36
 20
3.9308
 30
0.0
 11
-27.36
 21
2.4808
 31
0.0
  0
LINE
  5
269
  8
0
  6
CONTINUOUS
 62
     7
 10
-26.61
 20
3.9308
 30
0.0
 11
-27.36
 21
3.9308
 31
0.0
  0
LINE
  5
26A
  8
0
  6
CONTINUOUS
 62
     7
 10
-26.61
 20
15.0308
 30
0.0
 11
-26.61
 21
3.9308
 31
0.0
  0
LINE
  5
26B
  8
0
  6
CONTINUOUS
 62
     7
 10
-27.36
 20
15.0308
 30
0.0
 11
-26.61
 21
15.0308
 31
0.0
  0
LINE
  5
26C
  8
0
  6
CONTINUOUS
 62
     7
 10
-27.36
 20
16.4808
 30
0.0
 11
-27.36
 21
15.0308
 31
0.0
  0
ARC
  5
26D
  8
0
  6
CONTINUOUS
 62
     7
 10
-26.31
 20
16.4808
 30
0.0
 40
1.049999999999997
 50
90.0
 51
180.0
  0
LINE
  5
26E
  8
0
  6
CONTINUOUS
 62
     7
 10
-21.76
 20
17.5308
 30
0.0
 11
-26.31
 21
17.5308
 31
0.0
  0
LINE
  5
26F
  8
0
  6
CONTINUOUS
 62
     7
 10
-2.46
 20
16.5308
 30
0.0
 11
-2.46
 21
17.5308
 31
0.0
  0
LINE
  5
270
  8
0
  6
CONTINUOUS
 62
     7
 10
2.44
 20
16.5308
 30
0.0
 11
-2.46
 21
16.5308
 31
0.0
  0
LINE
  5
271
  8
0
  6
CONTINUOUS
 62
     7
 10
2.44
 20
17.5308
 30
0.0
 11
2.44
 21
16.5308
 31
0.0
  0
LINE
  5
272
  8
0
  6
CONTINUOUS
 62
     7
 10
6.99
 20
17.5308
 30
0.0
 11
2.44
 21
17.5308
 31
0.0
  0
ARC
  5
273
  8
0
  6
CONTINUOUS
 62
     7
 10
6.99
 20
16.4808
 30
0.0
 40
1.050000000000009
 50
0.0
 51
90.0
  0
LINE
  5
274
  8
0
  6
CONTINUOUS
 62
     7
 10
8.04
 20
15.0308
 30
0.0
 11
8.04
 21
16.4808
 31
0.0
  0
LINE
  5
275
  8
0
  6
CONTINUOUS
 62
     7
 10
7.29
 20
15.0308
 30
0.0
 11
8.04
 21
15.0308
 31
0.0
  0
LINE
  5
276
  8
0
  6
CONTINUOUS
 62
     7
 10
7.29
 20
3.9308
 30
0.0
 11
7.29
 21
15.0308
 31
0.0
  0
LINE
  5
277
  8
0
  6
CONTINUOUS
 62
     7
 10
8.04
 20
3.9308
 30
0.0
 11
7.29
 21
3.9308
 31
0.0
  0
LINE
  5
278
  8
0
  6
CONTINUOUS
 62
     7
 10
8.04
 20
2.4808
 30
0.0
 11
8.04
 21
3.9308
 31
0.0
  0
ARC
  5
279
  8
0
  6
CONTINUOUS
 62
     7
 10
6.99
 20
2.4808
 30
0.0
 40
1.049999999999995
 50
270.0
 51
0.0
  0
LINE
  5
27A
  8
0
  6
CONTINUOUS
 62
     7
 10
2.44
 20
1.4308
 30
0.0
 11
6.99
 21
1.4308
 31
0.0
  0
LINE
  5
27B
  8
0
  6
CONTINUOUS
 62
     7
 10
2.44
 20
2.4308
 30
0.0
 11
2.44
 21
1.4308
 31
0.0
  0
LINE
  5
27C
  8
0
  6
CONTINUOUS
 62
     7
 10
-2.46
 20
2.4308
 30
0.0
 11
2.44
 21
2.4308
 31
0.0
  0
LINE
  5
27D
  8
0
  6
CONTINUOUS
 62
     7
 10
-2.46
 20
1.4308
 30
0.0
 11
-2.46
 21
2.4308
 31
0.0
  0
LINE
  5
27E
  8
0
  6
CONTINUOUS
 62
     7
 10
-7.01
 20
1.4308
 30
0.0
 11
-2.46
 21
1.4308
 31
0.0
  0
ARC
  5
27F
  8
0
  6
CONTINUOUS
 62
     7
 10
-7.01
 20
2.4808
 30
0.0
 40
1.050000000000009
 50
180.0
 51
270.0
  0
LINE
  5
280
  8
0
  6
CONTINUOUS
 62
     7
 10
-8.06
 20
3.9308
 30
0.0
 11
-8.06
 21
2.4808
 31
0.0
  0
LINE
  5
281
  8
0
  6
CONTINUOUS
 62
     7
 10
-7.31
 20
3.9308
 30
0.0
 11
-8.06
 21
3.9308
 31
0.0
  0
LINE
  5
282
  8
0
  6
CONTINUOUS
 62
     7
 10
-7.31
 20
15.0308
 30
0.0
 11
-7.31
 21
3.9308
 31
0.0
  0
LINE
  5
283
  8
0
  6
CONTINUOUS
 62
     7
 10
-8.06
 20
15.0308
 30
0.0
 11
-7.31
 21
15.0308
 31
0.0
  0
LINE
  5
284
  8
0
  6
CONTINUOUS
 62
     7
 10
-8.06
 20
16.4808
 30
0.0
 11
-8.06
 21
15.0308
 31
0.0
  0
ARC
  5
285
  8
0
  6
CONTINUOUS
 62
     7
 10
-7.01
 20
16.4808
 30
0.0
 40
1.049999999999997
 50
90.0
 51
180.0
  0
LINE
  5
286
  8
0
  6
CONTINUOUS
 62
     7
 10
-2.46
 20
17.5308
 30
0.0
 11
-7.01
 21
17.5308
 31
0.0
  0
LINE
  5
287
  8
0
  6
CONTINUOUS
 62
     7
 10
16.84
 20
16.5308
 30
0.0
 11
16.84
 21
17.5308
 31
0.0
  0
LINE
  5
288
  8
0
  6
CONTINUOUS
 62
     7
 10
21.74
 20
16.5308
 30
0.0
 11
16.84
 21
16.5308
 31
0.0
  0
LINE
  5
289
  8
0
  6
CONTINUOUS
 62
     7
 10
21.74
 20
17.5308
 30
0.0
 11
21.74
 21
16.5308
 31
0.0
  0
LINE
  5
28A
  8
0
  6
CONTINUOUS
 62
     7
 10
26.29
 20
17.5308
 30
0.0
 11
21.74
 21
17.5308
 31
0.0
  0
ARC
  5
28B
  8
0
  6
CONTINUOUS
 62
     7
 10
26.29
 20
16.4808
 30
0.0
 40
1.050000000000008
 50
0.0
 51
90.0
  0
LINE
  5
28C
  8
0
  6
CONTINUOUS
 62
     7
 10
27.34
 20
15.0308
 30
0.0
 11
27.34
 21
16.4808
 31
0.0
  0
LINE
  5
28D
  8
0
  6
CONTINUOUS
 62
     7
 10
26.59
 20
15.0308
 30
0.0
 11
27.34
 21
15.0308
 31
0.0
  0
LINE
  5
28E
  8
0
  6
CONTINUOUS
 62
     7
 10
26.59
 20
3.9308
 30
0.0
 11
26.59
 21
15.0308
 31
0.0
  0
LINE
  5
28F
  8
0
  6
CONTINUOUS
 62
     7
 10
27.34
 20
3.9308
 30
0.0
 11
26.59
 21
3.9308
 31
0.0
  0
LINE
  5
290
  8
0
  6
CONTINUOUS
 62
     7
 10
27.34
 20
2.4808
 30
0.0
 11
27.34
 21
3.9308
 31
0.0
  0
ARC
  5
291
  8
0
  6
CONTINUOUS
 62
     7
 10
26.29
 20
2.4808
 30
0.0
 40
1.049999999999995
 50
270.0
 51
0.0
  0
LINE
  5
292
  8
0
  6
CONTINUOUS
 62
     7
 10
21.74
 20
1.4308
 30
0.0
 11
26.29
 21
1.4308
 31
0.0
  0
LINE
  5
293
  8
0
  6
CONTINUOUS
 62
     7
 10
21.74
 20
2.4308
 30
0.0
 11
21.74
 21
1.4308
 31
0.0
  0
LINE
  5
294
  8
0
  6
CONTINUOUS
 62
     7
 10
16.84
 20
2.4308
 30
0.0
 11
21.74
 21
2.4308
 31
0.0
  0
LINE
  5
295
  8
0
  6
CONTINUOUS
 62
     7
 10
16.84
 20
1.4308
 30
0.0
 11
16.84
 21
2.4308
 31
0.0
  0
LINE
  5
296
  8
0
  6
CONTINUOUS
 62
     7
 10
12.29
 20
1.4308
 30
0.0
 11
16.84
 21
1.4308
 31
0.0
  0
ARC
  5
297
  8
0
  6
CONTINUOUS
 62
     7
 10
12.29
 20
2.4808
 30
0.0
 40
1.050000000000009
 50
180.0
 51
270.0
  0
LINE
  5
298
  8
0
  6
CONTINUOUS
 62
     7
 10
11.24
 20
3.9308
 30
0.0
 11
11.24
 21
2.4808
 31
0.0
  0
LINE
  5
299
  8
0
  6
CONTINUOUS
 62
     7
 10
11.99
 20
3.9308
 30
0.0
 11
11.24
 21
3.9308
 31
0.0
  0
LINE
  5
29A
  8
0
  6
CONTINUOUS
 62
     7
 10
11.99
 20
15.0308
 30
0.0
 11
11.99
 21
3.9308
 31
0.0
  0
LINE
  5
29B
  8
0
  6
CONTINUOUS
 62
     7
 10
11.24
 20
15.0308
 30
0.0
 11
11.99
 21
15.0308
 31
0.0
  0
LINE
  5
29C
  8
0
  6
CONTINUOUS
 62
     7
 10
11.24
 20
16.4808
 30
0.0
 11
11.24
 21
15.0308
 31
0.0
  0
ARC
  5
29D
  8
0
  6
CONTINUOUS
 62
     7
 10
12.29
 20
16.4808
 30
0.0
 40
1.049999999999997
 50
90.0
 51
180.0
  0
LINE
  5
29E
  8
0
  6
CONTINUOUS
 62
     7
 10
16.84
 20
17.5308
 30
0.0
 11
12.29
 21
17.5308
 31
0.0
  0
LINE
  5
29F
  8
0
  6
CONTINUOUS
 62
     7
 10
36.14
 20
16.5308
 30
0.0
 11
36.14
 21
17.5308
 31
0.0
  0
LINE
  5
2A0
  8
0
  6
CONTINUOUS
 62
     7
 10
41.04
 20
16.5308
 30
0.0
 11
36.14
 21
16.5308
 31
0.0
  0
LINE
  5
2A1
  8
0
  6
CONTINUOUS
 62
     7
 10
41.04
 20
17.5308
 30
0.0
 11
41.04
 21
16.5308
 31
0.0
  0
LINE
  5
2A2
  8
0
  6
CONTINUOUS
 62
     7
 10
45.59
 20
17.5308
 30
0.0
 11
41.04
 21
17.5308
 31
0.0
  0
ARC
  5
2A3
  8
0
  6
CONTINUOUS
 62
     7
 10
45.59
 20
16.4808
 30
0.0
 40
1.050000000000011
 50
0.0
 51
90.0
  0
LINE
  5
2A4
  8
0
  6
CONTINUOUS
 62
     7
 10
46.64
 20
15.0308
 30
0.0
 11
46.64
 21
16.4808
 31
0.0
  0
LINE
  5
2A5
  8
0
  6
CONTINUOUS
 62
     7
 10
45.89
 20
15.0308
 30
0.0
 11
46.64
 21
15.0308
 31
0.0
  0
LINE
  5
2A6
  8
0
  6
CONTINUOUS
 62
     7
 10
45.89
 20
3.9308
 30
0.0
 11
45.89
 21
15.0308
 31
0.0
  0
LINE
  5
2A7
  8
0
  6
CONTINUOUS
 62
     7
 10
46.64
 20
3.9308
 30
0.0
 11
45.89
 21
3.9308
 31
0.0
  0
LINE
  5
2A8
  8
0
  6
CONTINUOUS
 62
     7
 10
46.64
 20
2.4808
 30
0.0
 11
46.64
 21
3.9308
 31
0.0
  0
ARC
  5
2A9
  8
0
  6
CONTINUOUS
 62
     7
 10
45.59
 20
2.4808
 30
0.0
 40
1.049999999999997
 50
270.0
 51
0.0
  0
LINE
  5
2AA
  8
0
  6
CONTINUOUS
 62
     7
 10
41.04
 20
1.4308
 30
0.0
 11
45.59
 21
1.4308
 31
0.0
  0
LINE
  5
2AB
  8
0
  6
CONTINUOUS
 62
     7
 10
41.04
 20
2.4308
 30
0.0
 11
41.04
 21
1.4308
 31
0.0
  0
LINE
  5
2AC
  8
0
  6
CONTINUOUS
 62
     7
 10
36.14
 20
2.4308
 30
0.0
 11
41.04
 21
2.4308
 31
0.0
  0
LINE
  5
2AD
  8
0
  6
CONTINUOUS
 62
     7
 10
36.14
 20
1.4308
 30
0.0
 11
36.14
 21
2.4308
 31
0.0
  0
LINE
  5
2AE
  8
0
  6
CONTINUOUS
 62
     7
 10
31.59
 20
1.4308
 30
0.0
 11
36.14
 21
1.4308
 31
0.0
  0
ARC
  5
2AF
  8
0
  6
CONTINUOUS
 62
     7
 10
31.59
 20
2.4808
 30
0.0
 40
1.050000000000009
 50
180.0
 51
270.0
  0
LINE
  5
2B0
  8
0
  6
CONTINUOUS
 62
     7
 10
30.54
 20
3.9308
 30
0.0
 11
30.54
 21
2.4808
 31
0.0
  0
LINE
  5
2B1
  8
0
  6
CONTINUOUS
 62
     7
 10
31.29
 20
3.9308
 30
0.0
 11
30.54
 21
3.9308
 31
0.0
  0
LINE
  5
2B2
  8
0
  6
CONTINUOUS
 62
     7
 10
31.29
 20
15.0308
 30
0.0
 11
31.29
 21
3.9308
 31
0.0
  0
LINE
  5
2B3
  8
0
  6
CONTINUOUS
 62
     7
 10
30.54
 20
15.0308
 30
0.0
 11
31.29
 21
15.0308
 31
0.0
  0
LINE
  5
2B4
  8
0
  6
CONTINUOUS
 62
     7
 10
30.54
 20
16.4808
 30
0.0
 11
30.54
 21
15.0308
 31
0.0
  0
ARC
  5
2B5
  8
0
  6
CONTINUOUS
 62
     7
 10
31.59
 20
16.4808
 30
0.0
 40
1.049999999999997
 50
90.0
 51
180.0
  0
LINE
  5
2B6
  8
0
  6
CONTINUOUS
 62
     7
 10
36.14
 20
17.5308
 30
0.0
 11
31.59
 21
17.5308
 31
0.0
  0
LINE
  5
2B7
  8
0
  6
CONTINUOUS
 62
     7
 10
55.44
 20
16.5308
 30
0.0
 11
55.44
 21
17.5308
 31
0.0
  0
LINE
  5
2B8
  8
0
  6
CONTINUOUS
 62
     7
 10
60.34
 20
16.5308
 30
0.0
 11
55.44
 21
16.5308
 31
0.0
  0
LINE
  5
2B9
  8
0
  6
CONTINUOUS
 62
     7
 10
60.34
 20
17.5308
 30
0.0
 11
60.34
 21
16.5308
 31
0.0
  0
LINE
  5
2BA
  8
0
  6
CONTINUOUS
 62
     7
 10
64.89
 20
17.5308
 30
0.0
 11
60.34
 21
17.5308
 31
0.0
  0
ARC
  5
2BB
  8
0
  6
CONTINUOUS
 62
     7
 10
64.89
 20
16.4808
 30
0.0
 40
1.050000000000011
 50
0.0
 51
90.0
  0
LINE
  5
2BC
  8
0
  6
CONTINUOUS
 62
     7
 10
65.94
 20
15.0308
 30
0.0
 11
65.94
 21
16.4808
 31
0.0
  0
LINE
  5
2BD
  8
0
  6
CONTINUOUS
 62
     7
 10
65.19
 20
15.0308
 30
0.0
 11
65.94
 21
15.0308
 31
0.0
  0
LINE
  5
2BE
  8
0
  6
CONTINUOUS
 62
     7
 10
65.19
 20
3.9308
 30
0.0
 11
65.19
 21
15.0308
 31
0.0
  0
LINE
  5
2BF
  8
0
  6
CONTINUOUS
 62
     7
 10
65.94
 20
3.9308
 30
0.0
 11
65.19
 21
3.9308
 31
0.0
  0
LINE
  5
2C0
  8
0
  6
CONTINUOUS
 62
     7
 10
65.94
 20
2.4808
 30
0.0
 11
65.94
 21
3.9308
 31
0.0
  0
ARC
  5
2C1
  8
0
  6
CONTINUOUS
 62
     7
 10
64.89
 20
2.4808
 30
0.0
 40
1.049999999999997
 50
270.0
 51
0.0
  0
LINE
  5
2C2
  8
0
  6
CONTINUOUS
 62
     7
 10
60.34
 20
1.4308
 30
0.0
 11
64.89
 21
1.4308
 31
0.0
  0
LINE
  5
2C3
  8
0
  6
CONTINUOUS
 62
     7
 10
60.34
 20
2.4308
 30
0.0
 11
60.34
 21
1.4308
 31
0.0
  0
LINE
  5
2C4
  8
0
  6
CONTINUOUS
 62
     7
 10
55.44
 20
2.4308
 30
0.0
 11
60.34
 21
2.4308
 31
0.0
  0
LINE
  5
2C5
  8
0
  6
CONTINUOUS
 62
     7
 10
55.44
 20
1.4308
 30
0.0
 11
55.44
 21
2.4308
 31
0.0
  0
LINE
  5
2C6
  8
0
  6
CONTINUOUS
 62
     7
 10
50.89
 20
1.4308
 30
0.0
 11
55.44
 21
1.4308
 31
0.0
  0
ARC
  5
2C7
  8
0
  6
CONTINUOUS
 62
     7
 10
50.89
 20
2.4808
 30
0.0
 40
1.050000000000009
 50
180.0
 51
270.0
  0
LINE
  5
2C8
  8
0
  6
CONTINUOUS
 62
     7
 10
49.84
 20
3.9308
 30
0.0
 11
49.84
 21
2.4808
 31
0.0
  0
LINE
  5
2C9
  8
0
  6
CONTINUOUS
 62
     7
 10
50.59
 20
3.9308
 30
0.0
 11
49.84
 21
3.9308
 31
0.0
  0
LINE
  5
2CA
  8
0
  6
CONTINUOUS
 62
     7
 10
50.59
 20
15.0308
 30
0.0
 11
50.59
 21
3.9308
 31
0.0
  0
LINE
  5
2CB
  8
0
  6
CONTINUOUS
 62
     7
 10
49.84
 20
15.0308
 30
0.0
 11
50.59
 21
15.0308
 31
0.0
  0
LINE
  5
2CC
  8
0
  6
CONTINUOUS
 62
     7
 10
49.84
 20
16.4808
 30
0.0
 11
49.84
 21
15.0308
 31
0.0
  0
ARC
  5
2CD
  8
0
  6
CONTINUOUS
 62
     7
 10
50.89
 20
16.4808
 30
0.0
 40
1.049999999999997
 50
90.0
 51
180.0
  0
LINE
  5
2CE
  8
0
  6
CONTINUOUS
 62
     7
 10
55.44
 20
17.5308
 30
0.0
 11
50.89
 21
17.5308
 31
0.0
  0
LINE
  5
2CF
  8
0
  6
CONTINUOUS
 62
     7
 10
74.74
 20
16.5308
 30
0.0
 11
74.74
 21
17.5308
 31
0.0
  0
LINE
  5
2D0
  8
0
  6
CONTINUOUS
 62
     7
 10
79.64
 20
16.5308
 30
0.0
 11
74.74
 21
16.5308
 31
0.0
  0
LINE
  5
2D1
  8
0
  6
CONTINUOUS
 62
     7
 10
79.64
 20
17.5308
 30
0.0
 11
79.64
 21
16.5308
 31
0.0
  0
LINE
  5
2D2
  8
0
  6
CONTINUOUS
 62
     7
 10
84.19
 20
17.5308
 30
0.0
 11
79.64
 21
17.5308
 31
0.0
  0
ARC
  5
2D3
  8
0
  6
CONTINUOUS
 62
     7
 10
84.19
 20
16.4808
 30
0.0
 40
1.050000000000011
 50
0.0
 51
90.0
  0
LINE
  5
2D4
  8
0
  6
CONTINUOUS
 62
     7
 10
85.24
 20
15.0308
 30
0.0
 11
85.24
 21
16.4808
 31
0.0
  0
LINE
  5
2D5
  8
0
  6
CONTINUOUS
 62
     7
 10
84.49
 20
15.0308
 30
0.0
 11
85.24
 21
15.0308
 31
0.0
  0
LINE
  5
2D6
  8
0
  6
CONTINUOUS
 62
     7
 10
84.49
 20
3.9308
 30
0.0
 11
84.49
 21
15.0308
 31
0.0
  0
LINE
  5
2D7
  8
0
  6
CONTINUOUS
 62
     7
 10
85.24
 20
3.9308
 30
0.0
 11
84.49
 21
3.9308
 31
0.0
  0
LINE
  5
2D8
  8
0
  6
CONTINUOUS
 62
     7
 10
85.24
 20
2.4808
 30
0.0
 11
85.24
 21
3.9308
 31
0.0
  0
ARC
  5
2D9
  8
0
  6
CONTINUOUS
 62
     7
 10
84.19
 20
2.4808
 30
0.0
 40
1.049999999999997
 50
270.0
 51
0.0
  0
LINE
  5
2DA
  8
0
  6
CONTINUOUS
 62
     7
 10
79.64
 20
1.4308
 30
0.0
 11
84.19
 21
1.4308
 31
0.0
  0
LINE
  5
2DB
  8
0
  6
CONTINUOUS
 62
     7
 10
79.64
 20
2.4308
 30
0.0
 11
79.64
 21
1.4308
 31
0.0
  0
LINE
  5
2DC
  8
0
  6
CONTINUOUS
 62
     7
 10
74.74
 20
2.4308
 30
0.0
 11
79.64
 21
2.4308
 31
0.0
  0
LINE
  5
2DD
  8
0
  6
CONTINUOUS
 62
     7
 10
74.74
 20
1.4308
 30
0.0
 11
74.74
 21
2.4308
 31
0.0
  0
LINE
  5
2DE
  8
0
  6
CONTINUOUS
 62
     7
 10
70.19
 20
1.4308
 30
0.0
 11
74.74
 21
1.4308
 31
0.0
  0
ARC
  5
2DF
  8
0
  6
CONTINUOUS
 62
     7
 10
70.19
 20
2.4808
 30
0.0
 40
1.050000000000009
 50
180.0
 51
270.0
  0
LINE
  5
2E0
  8
0
  6
CONTINUOUS
 62
     7
 10
69.14
 20
3.9308
 30
0.0
 11
69.14
 21
2.4808
 31
0.0
  0
LINE
  5
2E1
  8
0
  6
CONTINUOUS
 62
     7
 10
69.89
 20
3.9308
 30
0.0
 11
69.14
 21
3.9308
 31
0.0
  0
LINE
  5
2E2
  8
0
  6
CONTINUOUS
 62
     7
 10
69.89
 20
15.0308
 30
0.0
 11
69.89
 21
3.9308
 31
0.0
  0
LINE
  5
2E3
  8
0
  6
CONTINUOUS
 62
     7
 10
69.14
 20
15.0308
 30
0.0
 11
69.89
 21
15.0308
 31
0.0
  0
LINE
  5
2E4
  8
0
  6
CONTINUOUS
 62
     7
 10
69.14
 20
16.4808
 30
0.0
 11
69.14
 21
15.0308
 31
0.0
  0
ARC
  5
2E5
  8
0
  6
CONTINUOUS
 62
     7
 10
70.19
 20
16.4808
 30
0.0
 40
1.049999999999997
 50
90.0
 51
180.0
  0
LINE
  5
2E6
  8
0
  6
CONTINUOUS
 62
     7
 10
74.74
 20
17.5308
 30
0.0
 11
70.19
 21
17.5308
 31
0.0
  0
LINE
  5
2E7
  8
0
  6
CONTINUOUS
 62
     7
 10
94.04
 20
16.5308
 30
0.0
 11
94.04
 21
17.5308
 31
0.0
  0
LINE
  5
2E8
  8
0
  6
CONTINUOUS
 62
     7
 10
98.94
 20
16.5308
 30
0.0
 11
94.04
 21
16.5308
 31
0.0
  0
LINE
  5
2E9
  8
0
  6
CONTINUOUS
 62
     7
 10
98.94
 20
17.5308
 30
0.0
 11
98.94
 21
16.5308
 31
0.0
  0
LINE
  5
2EA
  8
0
  6
CONTINUOUS
 62
     7
 10
103.49
 20
17.5308
 30
0.0
 11
98.94
 21
17.5308
 31
0.0
  0
ARC
  5
2EB
  8
0
  6
CONTINUOUS
 62
     7
 10
103.49
 20
16.4808
 30
0.0
 40
1.050000000000011
 50
0.0
 51
90.0
  0
LINE
  5
2EC
  8
0
  6
CONTINUOUS
 62
     7
 10
104.54
 20
15.0308
 30
0.0
 11
104.54
 21
16.4808
 31
0.0
  0
LINE
  5
2ED
  8
0
  6
CONTINUOUS
 62
     7
 10
103.79
 20
15.0308
 30
0.0
 11
104.54
 21
15.0308
 31
0.0
  0
LINE
  5
2EE
  8
0
  6
CONTINUOUS
 62
     7
 10
103.79
 20
3.9308
 30
0.0
 11
103.79
 21
15.0308
 31
0.0
  0
LINE
  5
2EF
  8
0
  6
CONTINUOUS
 62
     7
 10
104.54
 20
3.9308
 30
0.0
 11
103.79
 21
3.9308
 31
0.0
  0
LINE
  5
2F0
  8
0
  6
CONTINUOUS
 62
     7
 10
104.54
 20
2.4808
 30
0.0
 11
104.54
 21
3.9308
 31
0.0
  0
ARC
  5
2F1
  8
0
  6
CONTINUOUS
 62
     7
 10
103.49
 20
2.4808
 30
0.0
 40
1.049999999999997
 50
270.0
 51
0.0
  0
LINE
  5
2F2
  8
0
  6
CONTINUOUS
 62
     7
 10
98.94
 20
1.4308
 30
0.0
 11
103.49
 21
1.4308
 31
0.0
  0
LINE
  5
2F3
  8
0
  6
CONTINUOUS
 62
     7
 10
98.94
 20
2.4308
 30
0.0
 11
98.94
 21
1.4308
 31
0.0
  0
LINE
  5
2F4
  8
0
  6
CONTINUOUS
 62
     7
 10
94.04
 20
2.4308
 30
0.0
 11
98.94
 21
2.4308
 31
0.0
  0
LINE
  5
2F5
  8
0
  6
CONTINUOUS
 62
     7
 10
94.04
 20
1.4308
 30
0.0
 11
94.04
 21
2.4308
 31
0.0
  0
LINE
  5
2F6
  8
0
  6
CONTINUOUS
 62
     7
 10
89.49
 20
1.4308
 30
0.0
 11
94.04
 21
1.4308
 31
0.0
  0
ARC
  5
2F7
  8
0
  6
CONTINUOUS
 62
     7
 10
89.49
 20
2.4808
 30
0.0
 40
1.050000000000009
 50
180.0
 51
270.0
  0
LINE
  5
2F8
  8
0
  6
CONTINUOUS
 62
     7
 10
88.44
 20
3.9308
 30
0.0
 11
88.44
 21
2.4808
 31
0.0
  0
LINE
  5
2F9
  8
0
  6
CONTINUOUS
 62
     7
 10
89.19
 20
3.9308
 30
0.0
 11
88.44
 21
3.9308
 31
0.0
  0
LINE
  5
2FA
  8
0
  6
CONTINUOUS
 62
     7
 10
89.19
 20
15.0308
 30
0.0
 11
89.19
 21
3.9308
 31
0.0
  0
LINE
  5
2FB
  8
0
  6
CONTINUOUS
 62
     7
 10
88.44
 20
15.0308
 30
0.0
 11
89.19
 21
15.0308
 31
0.0
  0
LINE
  5
2FC
  8
0
  6
CONTINUOUS
 62
     7
 10
88.44
 20
16.4808
 30
0.0
 11
88.44
 21
15.0308
 31
0.0
  0
ARC
  5
2FD
  8
0
  6
CONTINUOUS
 62
     7
 10
89.49
 20
16.4808
 30
0.0
 40
1.049999999999997
 50
90.0
 51
180.0
  0
LINE
  5
2FE
  8
0
  6
CONTINUOUS
 62
     7
 10
94.04
 20
17.5308
 30
0.0
 11
89.49
 21
17.5308
 31
0.0
  0
LINE
  5
2FF
  8
0
  6
CONTINUOUS
 62
     7
 10
-98.96
 20
-2.7692
 30
0.0
 11
-98.96
 21
-1.7692
 31
0.0
  0
LINE
  5
300
  8
0
  6
CONTINUOUS
 62
     7
 10
-94.06
 20
-2.7692
 30
0.0
 11
-98.96
 21
-2.7692
 31
0.0
  0
LINE
  5
301
  8
0
  6
CONTINUOUS
 62
     7
 10
-94.06
 20
-1.7692
 30
0.0
 11
-94.06
 21
-2.7692
 31
0.0
  0
LINE
  5
302
  8
0
  6
CONTINUOUS
 62
     7
 10
-89.51
 20
-1.7692
 30
0.0
 11
-94.06
 21
-1.7692
 31
0.0
  0
ARC
  5
303
  8
0
  6
CONTINUOUS
 62
     7
 10
-89.51
 20
-2.8192
 30
0.0
 40
1.050000000000011
 50
0.0
 51
90.0
  0
LINE
  5
304
  8
0
  6
CONTINUOUS
 62
     7
 10
-88.46
 20
-4.2692
 30
0.0
 11
-88.46
 21
-2.8192
 31
0.0
  0
LINE
  5
305
  8
0
  6
CONTINUOUS
 62
     7
 10
-89.21
 20
-4.2692
 30
0.0
 11
-88.46
 21
-4.2692
 31
0.0
  0
LINE
  5
306
  8
0
  6
CONTINUOUS
 62
     7
 10
-89.21
 20
-15.3692
 30
0.0
 11
-89.21
 21
-4.2692
 31
0.0
  0
LINE
  5
307
  8
0
  6
CONTINUOUS
 62
     7
 10
-88.46
 20
-15.3692
 30
0.0
 11
-89.21
 21
-15.3692
 31
0.0
  0
LINE
  5
308
  8
0
  6
CONTINUOUS
 62
     7
 10
-88.46
 20
-16.8192
 30
0.0
 11
-88.46
 21
-15.3692
 31
0.0
  0
ARC
  5
309
  8
0
  6
CONTINUOUS
 62
     7
 10
-89.51
 20
-16.8192
 30
0.0
 40
1.049999999999997
 50
270.0
 51
0.0
  0
LINE
  5
30A
  8
0
  6
CONTINUOUS
 62
     7
 10
-94.06
 20
-17.8692
 30
0.0
 11
-89.51
 21
-17.8692
 31
0.0
  0
LINE
  5
30B
  8
0
  6
CONTINUOUS
 62
     7
 10
-94.06
 20
-16.8692
 30
0.0
 11
-94.06
 21
-17.8692
 31
0.0
  0
LINE
  5
30C
  8
0
  6
CONTINUOUS
 62
     7
 10
-98.96
 20
-16.8692
 30
0.0
 11
-94.06
 21
-16.8692
 31
0.0
  0
LINE
  5
30D
  8
0
  6
CONTINUOUS
 62
     7
 10
-98.96
 20
-17.8692
 30
0.0
 11
-98.96
 21
-16.8692
 31
0.0
  0
LINE
  5
30E
  8
0
  6
CONTINUOUS
 62
     7
 10
-103.51
 20
-17.8692
 30
0.0
 11
-98.96
 21
-17.8692
 31
0.0
  0
ARC
  5
30F
  8
0
  6
CONTINUOUS
 62
     7
 10
-103.51
 20
-16.8192
 30
0.0
 40
1.050000000000011
 50
180.0
 51
270.0
  0
LINE
  5
310
  8
0
  6
CONTINUOUS
 62
     7
 10
-104.56
 20
-15.3692
 30
0.0
 11
-104.56
 21
-16.8192
 31
0.0
  0
LINE
  5
311
  8
0
  6
CONTINUOUS
 62
     7
 10
-103.81
 20
-15.3692
 30
0.0
 11
-104.56
 21
-15.3692
 31
0.0
  0
LINE
  5
312
  8
0
  6
CONTINUOUS
 62
     7
 10
-103.81
 20
-4.2692
 30
0.0
 11
-103.81
 21
-15.3692
 31
0.0
  0
LINE
  5
313
  8
0
  6
CONTINUOUS
 62
     7
 10
-104.56
 20
-4.2692
 30
0.0
 11
-103.81
 21
-4.2692
 31
0.0
  0
LINE
  5
314
  8
0
  6
CONTINUOUS
 62
     7
 10
-104.56
 20
-2.8192
 30
0.0
 11
-104.56
 21
-4.2692
 31
0.0
  0
ARC
  5
315
  8
0
  6
CONTINUOUS
 62
     7
 10
-103.51
 20
-2.8192
 30
0.0
 40
1.049999999999997
 50
90.0
 51
180.0
  0
LINE
  5
316
  8
0
  6
CONTINUOUS
 62
     7
 10
-98.96
 20
-1.7692
 30
0.0
 11
-103.51
 21
-1.7692
 31
0.0
  0
LINE
  5
317
  8
0
  6
CONTINUOUS
 62
     7
 10
-79.66
 20
-2.7692
 30
0.0
 11
-79.66
 21
-1.7692
 31
0.0
  0
LINE
  5
318
  8
0
  6
CONTINUOUS
 62
     7
 10
-74.76
 20
-2.7692
 30
0.0
 11
-79.66
 21
-2.7692
 31
0.0
  0
LINE
  5
319
  8
0
  6
CONTINUOUS
 62
     7
 10
-74.76
 20
-1.7692
 30
0.0
 11
-74.76
 21
-2.7692
 31
0.0
  0
LINE
  5
31A
  8
0
  6
CONTINUOUS
 62
     7
 10
-70.21
 20
-1.7692
 30
0.0
 11
-74.76
 21
-1.7692
 31
0.0
  0
ARC
  5
31B
  8
0
  6
CONTINUOUS
 62
     7
 10
-70.21
 20
-2.8192
 30
0.0
 40
1.050000000000011
 50
0.0
 51
90.0
  0
LINE
  5
31C
  8
0
  6
CONTINUOUS
 62
     7
 10
-69.16
 20
-4.2692
 30
0.0
 11
-69.16
 21
-2.8192
 31
0.0
  0
LINE
  5
31D
  8
0
  6
CONTINUOUS
 62
     7
 10
-69.91
 20
-4.2692
 30
0.0
 11
-69.16
 21
-4.2692
 31
0.0
  0
LINE
  5
31E
  8
0
  6
CONTINUOUS
 62
     7
 10
-69.91
 20
-15.3692
 30
0.0
 11
-69.91
 21
-4.2692
 31
0.0
  0
LINE
  5
31F
  8
0
  6
CONTINUOUS
 62
     7
 10
-69.16
 20
-15.3692
 30
0.0
 11
-69.91
 21
-15.3692
 31
0.0
  0
LINE
  5
320
  8
0
  6
CONTINUOUS
 62
     7
 10
-69.16
 20
-16.8192
 30
0.0
 11
-69.16
 21
-15.3692
 31
0.0
  0
ARC
  5
321
  8
0
  6
CONTINUOUS
 62
     7
 10
-70.21
 20
-16.8192
 30
0.0
 40
1.049999999999997
 50
270.0
 51
0.0
  0
LINE
  5
322
  8
0
  6
CONTINUOUS
 62
     7
 10
-74.76
 20
-17.8692
 30
0.0
 11
-70.21
 21
-17.8692
 31
0.0
  0
LINE
  5
323
  8
0
  6
CONTINUOUS
 62
     7
 10
-74.76
 20
-16.8692
 30
0.0
 11
-74.76
 21
-17.8692
 31
0.0
  0
LINE
  5
324
  8
0
  6
CONTINUOUS
 62
     7
 10
-79.66
 20
-16.8692
 30
0.0
 11
-74.76
 21
-16.8692
 31
0.0
  0
LINE
  5
325
  8
0
  6
CONTINUOUS
 62
     7
 10
-79.66
 20
-17.8692
 30
0.0
 11
-79.66
 21
-16.8692
 31
0.0
  0
LINE
  5
326
  8
0
  6
CONTINUOUS
 62
     7
 10
-84.21
 20
-17.8692
 30
0.0
 11
-79.66
 21
-17.8692
 31
0.0
  0
ARC
  5
327
  8
0
  6
CONTINUOUS
 62
     7
 10
-84.21
 20
-16.8192
 30
0.0
 40
1.050000000000011
 50
180.0
 51
270.0
  0
LINE
  5
328
  8
0
  6
CONTINUOUS
 62
     7
 10
-85.26
 20
-15.3692
 30
0.0
 11
-85.26
 21
-16.8192
 31
0.0
  0
LINE
  5
329
  8
0
  6
CONTINUOUS
 62
     7
 10
-84.51
 20
-15.3692
 30
0.0
 11
-85.26
 21
-15.3692
 31
0.0
  0
LINE
  5
32A
  8
0
  6
CONTINUOUS
 62
     7
 10
-84.51
 20
-4.2692
 30
0.0
 11
-84.51
 21
-15.3692
 31
0.0
  0
LINE
  5
32B
  8
0
  6
CONTINUOUS
 62
     7
 10
-85.26
 20
-4.2692
 30
0.0
 11
-84.51
 21
-4.2692
 31
0.0
  0
LINE
  5
32C
  8
0
  6
CONTINUOUS
 62
     7
 10
-85.26
 20
-2.8192
 30
0.0
 11
-85.26
 21
-4.2692
 31
0.0
  0
ARC
  5
32D
  8
0
  6
CONTINUOUS
 62
     7
 10
-84.21
 20
-2.8192
 30
0.0
 40
1.049999999999997
 50
90.0
 51
180.0
  0
LINE
  5
32E
  8
0
  6
CONTINUOUS
 62
     7
 10
-79.66
 20
-1.7692
 30
0.0
 11
-84.21
 21
-1.7692
 31
0.0
  0
LINE
  5
32F
  8
0
  6
CONTINUOUS
 62
     7
 10
-60.36
 20
-2.7692
 30
0.0
 11
-60.36
 21
-1.7692
 31
0.0
  0
LINE
  5
330
  8
0
  6
CONTINUOUS
 62
     7
 10
-55.46
 20
-2.7692
 30
0.0
 11
-60.36
 21
-2.7692
 31
0.0
  0
LINE
  5
331
  8
0
  6
CONTINUOUS
 62
     7
 10
-55.46
 20
-1.7692
 30
0.0
 11
-55.46
 21
-2.7692
 31
0.0
  0
LINE
  5
332
  8
0
  6
CONTINUOUS
 62
     7
 10
-50.91
 20
-1.7692
 30
0.0
 11
-55.46
 21
-1.7692
 31
0.0
  0
ARC
  5
333
  8
0
  6
CONTINUOUS
 62
     7
 10
-50.91
 20
-2.8192
 30
0.0
 40
1.050000000000011
 50
0.0
 51
90.0
  0
LINE
  5
334
  8
0
  6
CONTINUOUS
 62
     7
 10
-49.86
 20
-4.2692
 30
0.0
 11
-49.86
 21
-2.8192
 31
0.0
  0
LINE
  5
335
  8
0
  6
CONTINUOUS
 62
     7
 10
-50.61
 20
-4.2692
 30
0.0
 11
-49.86
 21
-4.2692
 31
0.0
  0
LINE
  5
336
  8
0
  6
CONTINUOUS
 62
     7
 10
-50.61
 20
-15.3692
 30
0.0
 11
-50.61
 21
-4.2692
 31
0.0
  0
LINE
  5
337
  8
0
  6
CONTINUOUS
 62
     7
 10
-49.86
 20
-15.3692
 30
0.0
 11
-50.61
 21
-15.3692
 31
0.0
  0
LINE
  5
338
  8
0
  6
CONTINUOUS
 62
     7
 10
-49.86
 20
-16.8192
 30
0.0
 11
-49.86
 21
-15.3692
 31
0.0
  0
ARC
  5
339
  8
0
  6
CONTINUOUS
 62
     7
 10
-50.91
 20
-16.8192
 30
0.0
 40
1.049999999999997
 50
270.0
 51
0.0
  0
LINE
  5
33A
  8
0
  6
CONTINUOUS
 62
     7
 10
-55.46
 20
-17.8692
 30
0.0
 11
-50.91
 21
-17.8692
 31
0.0
  0
LINE
  5
33B
  8
0
  6
CONTINUOUS
 62
     7
 10
-55.46
 20
-16.8692
 30
0.0
 11
-55.46
 21
-17.8692
 31
0.0
  0
LINE
  5
33C
  8
0
  6
CONTINUOUS
 62
     7
 10
-60.36
 20
-16.8692
 30
0.0
 11
-55.46
 21
-16.8692
 31
0.0
  0
LINE
  5
33D
  8
0
  6
CONTINUOUS
 62
     7
 10
-60.36
 20
-17.8692
 30
0.0
 11
-60.36
 21
-16.8692
 31
0.0
  0
LINE
  5
33E
  8
0
  6
CONTINUOUS
 62
     7
 10
-64.91
 20
-17.8692
 30
0.0
 11
-60.36
 21
-17.8692
 31
0.0
  0
ARC
  5
33F
  8
0
  6
CONTINUOUS
 62
     7
 10
-64.91
 20
-16.8192
 30
0.0
 40
1.050000000000011
 50
180.0
 51
270.0
  0
LINE
  5
340
  8
0
  6
CONTINUOUS
 62
     7
 10
-65.96
 20
-15.3692
 30
0.0
 11
-65.96
 21
-16.8192
 31
0.0
  0
LINE
  5
341
  8
0
  6
CONTINUOUS
 62
     7
 10
-65.21
 20
-15.3692
 30
0.0
 11
-65.96
 21
-15.3692
 31
0.0
  0
LINE
  5
342
  8
0
  6
CONTINUOUS
 62
     7
 10
-65.21
 20
-4.2692
 30
0.0
 11
-65.21
 21
-15.3692
 31
0.0
  0
LINE
  5
343
  8
0
  6
CONTINUOUS
 62
     7
 10
-65.96
 20
-4.2692
 30
0.0
 11
-65.21
 21
-4.2692
 31
0.0
  0
LINE
  5
344
  8
0
  6
CONTINUOUS
 62
     7
 10
-65.96
 20
-2.8192
 30
0.0
 11
-65.96
 21
-4.2692
 31
0.0
  0
ARC
  5
345
  8
0
  6
CONTINUOUS
 62
     7
 10
-64.91
 20
-2.8192
 30
0.0
 40
1.049999999999997
 50
90.0
 51
180.0
  0
LINE
  5
346
  8
0
  6
CONTINUOUS
 62
     7
 10
-60.36
 20
-1.7692
 30
0.0
 11
-64.91
 21
-1.7692
 31
0.0
  0
LINE
  5
347
  8
0
  6
CONTINUOUS
 62
     7
 10
-41.06
 20
-2.7692
 30
0.0
 11
-41.06
 21
-1.7692
 31
0.0
  0
LINE
  5
348
  8
0
  6
CONTINUOUS
 62
     7
 10
-36.16
 20
-2.7692
 30
0.0
 11
-41.06
 21
-2.7692
 31
0.0
  0
LINE
  5
349
  8
0
  6
CONTINUOUS
 62
     7
 10
-36.16
 20
-1.7692
 30
0.0
 11
-36.16
 21
-2.7692
 31
0.0
  0
LINE
  5
34A
  8
0
  6
CONTINUOUS
 62
     7
 10
-31.61
 20
-1.7692
 30
0.0
 11
-36.16
 21
-1.7692
 31
0.0
  0
ARC
  5
34B
  8
0
  6
CONTINUOUS
 62
     7
 10
-31.61
 20
-2.8192
 30
0.0
 40
1.050000000000011
 50
0.0
 51
90.0
  0
LINE
  5
34C
  8
0
  6
CONTINUOUS
 62
     7
 10
-30.56
 20
-4.2692
 30
0.0
 11
-30.56
 21
-2.8192
 31
0.0
  0
LINE
  5
34D
  8
0
  6
CONTINUOUS
 62
     7
 10
-31.31
 20
-4.2692
 30
0.0
 11
-30.56
 21
-4.2692
 31
0.0
  0
LINE
  5
34E
  8
0
  6
CONTINUOUS
 62
     7
 10
-31.31
 20
-15.3692
 30
0.0
 11
-31.31
 21
-4.2692
 31
0.0
  0
LINE
  5
34F
  8
0
  6
CONTINUOUS
 62
     7
 10
-30.56
 20
-15.3692
 30
0.0
 11
-31.31
 21
-15.3692
 31
0.0
  0
LINE
  5
350
  8
0
  6
CONTINUOUS
 62
     7
 10
-30.56
 20
-16.8192
 30
0.0
 11
-30.56
 21
-15.3692
 31
0.0
  0
ARC
  5
351
  8
0
  6
CONTINUOUS
 62
     7
 10
-31.61
 20
-16.8192
 30
0.0
 40
1.049999999999997
 50
270.0
 51
0.0
  0
LINE
  5
352
  8
0
  6
CONTINUOUS
 62
     7
 10
-36.16
 20
-17.8692
 30
0.0
 11
-31.61
 21
-17.8692
 31
0.0
  0
LINE
  5
353
  8
0
  6
CONTINUOUS
 62
     7
 10
-36.16
 20
-16.8692
 30
0.0
 11
-36.16
 21
-17.8692
 31
0.0
  0
LINE
  5
354
  8
0
  6
CONTINUOUS
 62
     7
 10
-41.06
 20
-16.8692
 30
0.0
 11
-36.16
 21
-16.8692
 31
0.0
  0
LINE
  5
355
  8
0
  6
CONTINUOUS
 62
     7
 10
-41.06
 20
-17.8692
 30
0.0
 11
-41.06
 21
-16.8692
 31
0.0
  0
LINE
  5
356
  8
0
  6
CONTINUOUS
 62
     7
 10
-45.61
 20
-17.8692
 30
0.0
 11
-41.06
 21
-17.8692
 31
0.0
  0
ARC
  5
357
  8
0
  6
CONTINUOUS
 62
     7
 10
-45.61
 20
-16.8192
 30
0.0
 40
1.050000000000011
 50
180.0
 51
270.0
  0
LINE
  5
358
  8
0
  6
CONTINUOUS
 62
     7
 10
-46.66
 20
-15.3692
 30
0.0
 11
-46.66
 21
-16.8192
 31
0.0
  0
LINE
  5
359
  8
0
  6
CONTINUOUS
 62
     7
 10
-45.91
 20
-15.3692
 30
0.0
 11
-46.66
 21
-15.3692
 31
0.0
  0
LINE
  5
35A
  8
0
  6
CONTINUOUS
 62
     7
 10
-45.91
 20
-4.2692
 30
0.0
 11
-45.91
 21
-15.3692
 31
0.0
  0
LINE
  5
35B
  8
0
  6
CONTINUOUS
 62
     7
 10
-46.66
 20
-4.2692
 30
0.0
 11
-45.91
 21
-4.2692
 31
0.0
  0
LINE
  5
35C
  8
0
  6
CONTINUOUS
 62
     7
 10
-46.66
 20
-2.8192
 30
0.0
 11
-46.66
 21
-4.2692
 31
0.0
  0
ARC
  5
35D
  8
0
  6
CONTINUOUS
 62
     7
 10
-45.61
 20
-2.8192
 30
0.0
 40
1.049999999999996
 50
90.0
 51
180.0
  0
LINE
  5
35E
  8
0
  6
CONTINUOUS
 62
     7
 10
-41.06
 20
-1.7692
 30
0.0
 11
-45.61
 21
-1.7692
 31
0.0
  0
LINE
  5
35F
  8
0
  6
CONTINUOUS
 62
     7
 10
-21.76
 20
-2.7692
 30
0.0
 11
-21.76
 21
-1.7692
 31
0.0
  0
LINE
  5
360
  8
0
  6
CONTINUOUS
 62
     7
 10
-16.86
 20
-2.7692
 30
0.0
 11
-21.76
 21
-2.7692
 31
0.0
  0
LINE
  5
361
  8
0
  6
CONTINUOUS
 62
     7
 10
-16.86
 20
-1.7692
 30
0.0
 11
-16.86
 21
-2.7692
 31
0.0
  0
LINE
  5
362
  8
0
  6
CONTINUOUS
 62
     7
 10
-12.31
 20
-1.7692
 30
0.0
 11
-16.86
 21
-1.7692
 31
0.0
  0
ARC
  5
363
  8
0
  6
CONTINUOUS
 62
     7
 10
-12.31
 20
-2.8192
 30
0.0
 40
1.05000000000001
 50
0.0
 51
90.0
  0
LINE
  5
364
  8
0
  6
CONTINUOUS
 62
     7
 10
-11.26
 20
-4.2692
 30
0.0
 11
-11.26
 21
-2.8192
 31
0.0
  0
LINE
  5
365
  8
0
  6
CONTINUOUS
 62
     7
 10
-12.01
 20
-4.2692
 30
0.0
 11
-11.26
 21
-4.2692
 31
0.0
  0
LINE
  5
366
  8
0
  6
CONTINUOUS
 62
     7
 10
-12.01
 20
-15.3692
 30
0.0
 11
-12.01
 21
-4.2692
 31
0.0
  0
LINE
  5
367
  8
0
  6
CONTINUOUS
 62
     7
 10
-11.26
 20
-15.3692
 30
0.0
 11
-12.01
 21
-15.3692
 31
0.0
  0
LINE
  5
368
  8
0
  6
CONTINUOUS
 62
     7
 10
-11.26
 20
-16.8192
 30
0.0
 11
-11.26
 21
-15.3692
 31
0.0
  0
ARC
  5
369
  8
0
  6
CONTINUOUS
 62
     7
 10
-12.31
 20
-16.8192
 30
0.0
 40
1.049999999999997
 50
270.0
 51
0.0
  0
LINE
  5
36A
  8
0
  6
CONTINUOUS
 62
     7
 10
-16.86
 20
-17.8692
 30
0.0
 11
-12.31
 21
-17.8692
 31
0.0
  0
LINE
  5
36B
  8
0
  6
CONTINUOUS
 62
     7
 10
-16.86
 20
-16.8692
 30
0.0
 11
-16.86
 21
-17.8692
 31
0.0
  0
LINE
  5
36C
  8
0
  6
CONTINUOUS
 62
     7
 10
-21.76
 20
-16.8692
 30
0.0
 11
-16.86
 21
-16.8692
 31
0.0
  0
LINE
  5
36D
  8
0
  6
CONTINUOUS
 62
     7
 10
-21.76
 20
-17.8692
 30
0.0
 11
-21.76
 21
-16.8692
 31
0.0
  0
LINE
  5
36E
  8
0
  6
CONTINUOUS
 62
     7
 10
-26.31
 20
-17.8692
 30
0.0
 11
-21.76
 21
-17.8692
 31
0.0
  0
ARC
  5
36F
  8
0
  6
CONTINUOUS
 62
     7
 10
-26.31
 20
-16.8192
 30
0.0
 40
1.050000000000011
 50
180.0
 51
270.0
  0
LINE
  5
370
  8
0
  6
CONTINUOUS
 62
     7
 10
-27.36
 20
-15.3692
 30
0.0
 11
-27.36
 21
-16.8192
 31
0.0
  0
LINE
  5
371
  8
0
  6
CONTINUOUS
 62
     7
 10
-26.61
 20
-15.3692
 30
0.0
 11
-27.36
 21
-15.3692
 31
0.0
  0
LINE
  5
372
  8
0
  6
CONTINUOUS
 62
     7
 10
-26.61
 20
-4.2692
 30
0.0
 11
-26.61
 21
-15.3692
 31
0.0
  0
LINE
  5
373
  8
0
  6
CONTINUOUS
 62
     7
 10
-27.36
 20
-4.2692
 30
0.0
 11
-26.61
 21
-4.2692
 31
0.0
  0
LINE
  5
374
  8
0
  6
CONTINUOUS
 62
     7
 10
-27.36
 20
-2.8192
 30
0.0
 11
-27.36
 21
-4.2692
 31
0.0
  0
ARC
  5
375
  8
0
  6
CONTINUOUS
 62
     7
 10
-26.31
 20
-2.8192
 30
0.0
 40
1.049999999999997
 50
90.0
 51
180.0
  0
LINE
  5
376
  8
0
  6
CONTINUOUS
 62
     7
 10
-21.76
 20
-1.7692
 30
0.0
 11
-26.31
 21
-1.7692
 31
0.0
  0
LINE
  5
377
  8
0
  6
CONTINUOUS
 62
     7
 10
-2.46
 20
-2.7692
 30
0.0
 11
-2.46
 21
-1.7692
 31
0.0
  0
LINE
  5
378
  8
0
  6
CONTINUOUS
 62
     7
 10
2.44
 20
-2.7692
 30
0.0
 11
-2.46
 21
-2.7692
 31
0.0
  0
LINE
  5
379
  8
0
  6
CONTINUOUS
 62
     7
 10
2.44
 20
-1.7692
 30
0.0
 11
2.44
 21
-2.7692
 31
0.0
  0
LINE
  5
37A
  8
0
  6
CONTINUOUS
 62
     7
 10
6.99
 20
-1.7692
 30
0.0
 11
2.44
 21
-1.7692
 31
0.0
  0
ARC
  5
37B
  8
0
  6
CONTINUOUS
 62
     7
 10
6.99
 20
-2.8192
 30
0.0
 40
1.050000000000009
 50
0.0
 51
90.0
  0
LINE
  5
37C
  8
0
  6
CONTINUOUS
 62
     7
 10
8.04
 20
-4.2692
 30
0.0
 11
8.04
 21
-2.8192
 31
0.0
  0
LINE
  5
37D
  8
0
  6
CONTINUOUS
 62
     7
 10
7.29
 20
-4.2692
 30
0.0
 11
8.04
 21
-4.2692
 31
0.0
  0
LINE
  5
37E
  8
0
  6
CONTINUOUS
 62
     7
 10
7.29
 20
-15.3692
 30
0.0
 11
7.29
 21
-4.2692
 31
0.0
  0
LINE
  5
37F
  8
0
  6
CONTINUOUS
 62
     7
 10
8.04
 20
-15.3692
 30
0.0
 11
7.29
 21
-15.3692
 31
0.0
  0
LINE
  5
380
  8
0
  6
CONTINUOUS
 62
     7
 10
8.04
 20
-16.8192
 30
0.0
 11
8.04
 21
-15.3692
 31
0.0
  0
ARC
  5
381
  8
0
  6
CONTINUOUS
 62
     7
 10
6.99
 20
-16.8192
 30
0.0
 40
1.049999999999997
 50
270.0
 51
0.0
  0
LINE
  5
382
  8
0
  6
CONTINUOUS
 62
     7
 10
2.44
 20
-17.8692
 30
0.0
 11
6.99
 21
-17.8692
 31
0.0
  0
LINE
  5
383
  8
0
  6
CONTINUOUS
 62
     7
 10
2.44
 20
-16.8692
 30
0.0
 11
2.44
 21
-17.8692
 31
0.0
  0
LINE
  5
384
  8
0
  6
CONTINUOUS
 62
     7
 10
-2.46
 20
-16.8692
 30
0.0
 11
2.44
 21
-16.8692
 31
0.0
  0
LINE
  5
385
  8
0
  6
CONTINUOUS
 62
     7
 10
-2.46
 20
-17.8692
 30
0.0
 11
-2.46
 21
-16.8692
 31
0.0
  0
LINE
  5
386
  8
0
  6
CONTINUOUS
 62
     7
 10
-7.01
 20
-17.8692
 30
0.0
 11
-2.46
 21
-17.8692
 31
0.0
  0
ARC
  5
387
  8
0
  6
CONTINUOUS
 62
     7
 10
-7.01
 20
-16.8192
 30
0.0
 40
1.050000000000011
 50
180.0
 51
270.0
  0
LINE
  5
388
  8
0
  6
CONTINUOUS
 62
     7
 10
-8.06
 20
-15.3692
 30
0.0
 11
-8.06
 21
-16.8192
 31
0.0
  0
LINE
  5
389
  8
0
  6
CONTINUOUS
 62
     7
 10
-7.31
 20
-15.3692
 30
0.0
 11
-8.06
 21
-15.3692
 31
0.0
  0
LINE
  5
38A
  8
0
  6
CONTINUOUS
 62
     7
 10
-7.31
 20
-4.2692
 30
0.0
 11
-7.31
 21
-15.3692
 31
0.0
  0
LINE
  5
38B
  8
0
  6
CONTINUOUS
 62
     7
 10
-8.06
 20
-4.2692
 30
0.0
 11
-7.31
 21
-4.2692
 31
0.0
  0
LINE
  5
38C
  8
0
  6
CONTINUOUS
 62
     7
 10
-8.06
 20
-2.8192
 30
0.0
 11
-8.06
 21
-4.2692
 31
0.0
  0
ARC
  5
38D
  8
0
  6
CONTINUOUS
 62
     7
 10
-7.01
 20
-2.8192
 30
0.0
 40
1.049999999999996
 50
90.0
 51
180.0
  0
LINE
  5
38E
  8
0
  6
CONTINUOUS
 62
     7
 10
-2.46
 20
-1.7692
 30
0.0
 11
-7.01
 21
-1.7692
 31
0.0
  0
LINE
  5
38F
  8
0
  6
CONTINUOUS
 62
     7
 10
16.84
 20
-2.7692
 30
0.0
 11
16.84
 21
-1.7692
 31
0.0
  0
LINE
  5
390
  8
0
  6
CONTINUOUS
 62
     7
 10
21.74
 20
-2.7692
 30
0.0
 11
16.84
 21
-2.7692
 31
0.0
  0
LINE
  5
391
  8
0
  6
CONTINUOUS
 62
     7
 10
21.74
 20
-1.7692
 30
0.0
 11
21.74
 21
-2.7692
 31
0.0
  0
LINE
  5
392
  8
0
  6
CONTINUOUS
 62
     7
 10
26.29
 20
-1.7692
 30
0.0
 11
21.74
 21
-1.7692
 31
0.0
  0
ARC
  5
393
  8
0
  6
CONTINUOUS
 62
     7
 10
26.29
 20
-2.8192
 30
0.0
 40
1.050000000000008
 50
0.0
 51
90.0
  0
LINE
  5
394
  8
0
  6
CONTINUOUS
 62
     7
 10
27.34
 20
-4.2692
 30
0.0
 11
27.34
 21
-2.8192
 31
0.0
  0
LINE
  5
395
  8
0
  6
CONTINUOUS
 62
     7
 10
26.59
 20
-4.2692
 30
0.0
 11
27.34
 21
-4.2692
 31
0.0
  0
LINE
  5
396
  8
0
  6
CONTINUOUS
 62
     7
 10
26.59
 20
-15.3692
 30
0.0
 11
26.59
 21
-4.2692
 31
0.0
  0
LINE
  5
397
  8
0
  6
CONTINUOUS
 62
     7
 10
27.34
 20
-15.3692
 30
0.0
 11
26.59
 21
-15.3692
 31
0.0
  0
LINE
  5
398
  8
0
  6
CONTINUOUS
 62
     7
 10
27.34
 20
-16.8192
 30
0.0
 11
27.34
 21
-15.3692
 31
0.0
  0
ARC
  5
399
  8
0
  6
CONTINUOUS
 62
     7
 10
26.29
 20
-16.8192
 30
0.0
 40
1.049999999999997
 50
270.0
 51
0.0
  0
LINE
  5
39A
  8
0
  6
CONTINUOUS
 62
     7
 10
21.74
 20
-17.8692
 30
0.0
 11
26.29
 21
-17.8692
 31
0.0
  0
LINE
  5
39B
  8
0
  6
CONTINUOUS
 62
     7
 10
21.74
 20
-16.8692
 30
0.0
 11
21.74
 21
-17.8692
 31
0.0
  0
LINE
  5
39C
  8
0
  6
CONTINUOUS
 62
     7
 10
16.84
 20
-16.8692
 30
0.0
 11
21.74
 21
-16.8692
 31
0.0
  0
LINE
  5
39D
  8
0
  6
CONTINUOUS
 62
     7
 10
16.84
 20
-17.8692
 30
0.0
 11
16.84
 21
-16.8692
 31
0.0
  0
LINE
  5
39E
  8
0
  6
CONTINUOUS
 62
     7
 10
12.29
 20
-17.8692
 30
0.0
 11
16.84
 21
-17.8692
 31
0.0
  0
ARC
  5
39F
  8
0
  6
CONTINUOUS
 62
     7
 10
12.29
 20
-16.8192
 30
0.0
 40
1.050000000000011
 50
180.0
 51
270.0
  0
LINE
  5
3A0
  8
0
  6
CONTINUOUS
 62
     7
 10
11.24
 20
-15.3692
 30
0.0
 11
11.24
 21
-16.8192
 31
0.0
  0
LINE
  5
3A1
  8
0
  6
CONTINUOUS
 62
     7
 10
11.99
 20
-15.3692
 30
0.0
 11
11.24
 21
-15.3692
 31
0.0
  0
LINE
  5
3A2
  8
0
  6
CONTINUOUS
 62
     7
 10
11.99
 20
-4.2692
 30
0.0
 11
11.99
 21
-15.3692
 31
0.0
  0
LINE
  5
3A3
  8
0
  6
CONTINUOUS
 62
     7
 10
11.24
 20
-4.2692
 30
0.0
 11
11.99
 21
-4.2692
 31
0.0
  0
LINE
  5
3A4
  8
0
  6
CONTINUOUS
 62
     7
 10
11.24
 20
-2.8192
 30
0.0
 11
11.24
 21
-4.2692
 31
0.0
  0
ARC
  5
3A5
  8
0
  6
CONTINUOUS
 62
     7
 10
12.29
 20
-2.8192
 30
0.0
 40
1.049999999999996
 50
90.0
 51
180.0
  0
LINE
  5
3A6
  8
0
  6
CONTINUOUS
 62
     7
 10
16.84
 20
-1.7692
 30
0.0
 11
12.29
 21
-1.7692
 31
0.0
  0
LINE
  5
3A7
  8
0
  6
CONTINUOUS
 62
     7
 10
36.14
 20
-2.7692
 30
0.0
 11
36.14
 21
-1.7692
 31
0.0
  0
LINE
  5
3A8
  8
0
  6
CONTINUOUS
 62
     7
 10
41.04
 20
-2.7692
 30
0.0
 11
36.14
 21
-2.7692
 31
0.0
  0
LINE
  5
3A9
  8
0
  6
CONTINUOUS
 62
     7
 10
41.04
 20
-1.7692
 30
0.0
 11
41.04
 21
-2.7692
 31
0.0
  0
LINE
  5
3AA
  8
0
  6
CONTINUOUS
 62
     7
 10
45.59
 20
-1.7692
 30
0.0
 11
41.04
 21
-1.7692
 31
0.0
  0
ARC
  5
3AB
  8
0
  6
CONTINUOUS
 62
     7
 10
45.59
 20
-2.8192
 30
0.0
 40
1.050000000000011
 50
0.0
 51
90.0
  0
LINE
  5
3AC
  8
0
  6
CONTINUOUS
 62
     7
 10
46.64
 20
-4.2692
 30
0.0
 11
46.64
 21
-2.8192
 31
0.0
  0
LINE
  5
3AD
  8
0
  6
CONTINUOUS
 62
     7
 10
45.89
 20
-4.2692
 30
0.0
 11
46.64
 21
-4.2692
 31
0.0
  0
LINE
  5
3AE
  8
0
  6
CONTINUOUS
 62
     7
 10
45.89
 20
-15.3692
 30
0.0
 11
45.89
 21
-4.2692
 31
0.0
  0
LINE
  5
3AF
  8
0
  6
CONTINUOUS
 62
     7
 10
46.64
 20
-15.3692
 30
0.0
 11
45.89
 21
-15.3692
 31
0.0
  0
LINE
  5
3B0
  8
0
  6
CONTINUOUS
 62
     7
 10
46.64
 20
-16.8192
 30
0.0
 11
46.64
 21
-15.3692
 31
0.0
  0
ARC
  5
3B1
  8
0
  6
CONTINUOUS
 62
     7
 10
45.59
 20
-16.8192
 30
0.0
 40
1.049999999999997
 50
270.0
 51
0.0
  0
LINE
  5
3B2
  8
0
  6
CONTINUOUS
 62
     7
 10
41.04
 20
-17.8692
 30
0.0
 11
45.59
 21
-17.8692
 31
0.0
  0
LINE
  5
3B3
  8
0
  6
CONTINUOUS
 62
     7
 10
41.04
 20
-16.8692
 30
0.0
 11
41.04
 21
-17.8692
 31
0.0
  0
LINE
  5
3B4
  8
0
  6
CONTINUOUS
 62
     7
 10
36.14
 20
-16.8692
 30
0.0
 11
41.04
 21
-16.8692
 31
0.0
  0
LINE
  5
3B5
  8
0
  6
CONTINUOUS
 62
     7
 10
36.14
 20
-17.8692
 30
0.0
 11
36.14
 21
-16.8692
 31
0.0
  0
LINE
  5
3B6
  8
0
  6
CONTINUOUS
 62
     7
 10
31.59
 20
-17.8692
 30
0.0
 11
36.14
 21
-17.8692
 31
0.0
  0
ARC
  5
3B7
  8
0
  6
CONTINUOUS
 62
     7
 10
31.59
 20
-16.8192
 30
0.0
 40
1.050000000000011
 50
180.0
 51
270.0
  0
LINE
  5
3B8
  8
0
  6
CONTINUOUS
 62
     7
 10
30.54
 20
-15.3692
 30
0.0
 11
30.54
 21
-16.8192
 31
0.0
  0
LINE
  5
3B9
  8
0
  6
CONTINUOUS
 62
     7
 10
31.29
 20
-15.3692
 30
0.0
 11
30.54
 21
-15.3692
 31
0.0
  0
LINE
  5
3BA
  8
0
  6
CONTINUOUS
 62
     7
 10
31.29
 20
-4.2692
 30
0.0
 11
31.29
 21
-15.3692
 31
0.0
  0
LINE
  5
3BB
  8
0
  6
CONTINUOUS
 62
     7
 10
30.54
 20
-4.2692
 30
0.0
 11
31.29
 21
-4.2692
 31
0.0
  0
LINE
  5
3BC
  8
0
  6
CONTINUOUS
 62
     7
 10
30.54
 20
-2.8192
 30
0.0
 11
30.54
 21
-4.2692
 31
0.0
  0
ARC
  5
3BD
  8
0
  6
CONTINUOUS
 62
     7
 10
31.59
 20
-2.8192
 30
0.0
 40
1.049999999999996
 50
90.0
 51
180.0
  0
LINE
  5
3BE
  8
0
  6
CONTINUOUS
 62
     7
 10
36.14
 20
-1.7692
 30
0.0
 11
31.59
 21
-1.7692
 31
0.0
  0
LINE
  5
3BF
  8
0
  6
CONTINUOUS
 62
     7
 10
55.44
 20
-2.7692
 30
0.0
 11
55.44
 21
-1.7692
 31
0.0
  0
LINE
  5
3C0
  8
0
  6
CONTINUOUS
 62
     7
 10
60.34
 20
-2.7692
 30
0.0
 11
55.44
 21
-2.7692
 31
0.0
  0
LINE
  5
3C1
  8
0
  6
CONTINUOUS
 62
     7
 10
60.34
 20
-1.7692
 30
0.0
 11
60.34
 21
-2.7692
 31
0.0
  0
LINE
  5
3C2
  8
0
  6
CONTINUOUS
 62
     7
 10
64.89
 20
-1.7692
 30
0.0
 11
60.34
 21
-1.7692
 31
0.0
  0
ARC
  5
3C3
  8
0
  6
CONTINUOUS
 62
     7
 10
64.89
 20
-2.8192
 30
0.0
 40
1.050000000000011
 50
0.0
 51
90.0
  0
LINE
  5
3C4
  8
0
  6
CONTINUOUS
 62
     7
 10
65.94
 20
-4.2692
 30
0.0
 11
65.94
 21
-2.8192
 31
0.0
  0
LINE
  5
3C5
  8
0
  6
CONTINUOUS
 62
     7
 10
65.19
 20
-4.2692
 30
0.0
 11
65.94
 21
-4.2692
 31
0.0
  0
LINE
  5
3C6
  8
0
  6
CONTINUOUS
 62
     7
 10
65.19
 20
-15.3692
 30
0.0
 11
65.19
 21
-4.2692
 31
0.0
  0
LINE
  5
3C7
  8
0
  6
CONTINUOUS
 62
     7
 10
65.94
 20
-15.3692
 30
0.0
 11
65.19
 21
-15.3692
 31
0.0
  0
LINE
  5
3C8
  8
0
  6
CONTINUOUS
 62
     7
 10
65.94
 20
-16.8192
 30
0.0
 11
65.94
 21
-15.3692
 31
0.0
  0
ARC
  5
3C9
  8
0
  6
CONTINUOUS
 62
     7
 10
64.89
 20
-16.8192
 30
0.0
 40
1.049999999999997
 50
270.0
 51
0.0
  0
LINE
  5
3CA
  8
0
  6
CONTINUOUS
 62
     7
 10
60.34
 20
-17.8692
 30
0.0
 11
64.89
 21
-17.8692
 31
0.0
  0
LINE
  5
3CB
  8
0
  6
CONTINUOUS
 62
     7
 10
60.34
 20
-16.8692
 30
0.0
 11
60.34
 21
-17.8692
 31
0.0
  0
LINE
  5
3CC
  8
0
  6
CONTINUOUS
 62
     7
 10
55.44
 20
-16.8692
 30
0.0
 11
60.34
 21
-16.8692
 31
0.0
  0
LINE
  5
3CD
  8
0
  6
CONTINUOUS
 62
     7
 10
55.44
 20
-17.8692
 30
0.0
 11
55.44
 21
-16.8692
 31
0.0
  0
LINE
  5
3CE
  8
0
  6
CONTINUOUS
 62
     7
 10
50.89
 20
-17.8692
 30
0.0
 11
55.44
 21
-17.8692
 31
0.0
  0
ARC
  5
3CF
  8
0
  6
CONTINUOUS
 62
     7
 10
50.89
 20
-16.8192
 30
0.0
 40
1.050000000000011
 50
180.0
 51
270.0
  0
LINE
  5
3D0
  8
0
  6
CONTINUOUS
 62
     7
 10
49.84
 20
-15.3692
 30
0.0
 11
49.84
 21
-16.8192
 31
0.0
  0
LINE
  5
3D1
  8
0
  6
CONTINUOUS
 62
     7
 10
50.59
 20
-15.3692
 30
0.0
 11
49.84
 21
-15.3692
 31
0.0
  0
LINE
  5
3D2
  8
0
  6
CONTINUOUS
 62
     7
 10
50.59
 20
-4.2692
 30
0.0
 11
50.59
 21
-15.3692
 31
0.0
  0
LINE
  5
3D3
  8
0
  6
CONTINUOUS
 62
     7
 10
49.84
 20
-4.2692
 30
0.0
 11
50.59
 21
-4.2692
 31
0.0
  0
LINE
  5
3D4
  8
0
  6
CONTINUOUS
 62
     7
 10
49.84
 20
-2.8192
 30
0.0
 11
49.84
 21
-4.2692
 31
0.0
  0
ARC
  5
3D5
  8
0
  6
CONTINUOUS
 62
     7
 10
50.89
 20
-2.8192
 30
0.0
 40
1.049999999999997
 50
90.0
 51
180.0
  0
LINE
  5
3D6
  8
0
  6
CONTINUOUS
 62
     7
 10
55.44
 20
-1.7692
 30
0.0
 11
50.89
 21
-1.7692
 31
0.0
  0
LINE
  5
3D7
  8
0
  6
CONTINUOUS
 62
     7
 10
74.74
 20
-2.7692
 30
0.0
 11
74.74
 21
-1.7692
 31
0.0
  0
LINE
  5
3D8
  8
0
  6
CONTINUOUS
 62
     7
 10
79.64
 20
-2.7692
 30
0.0
 11
74.74
 21
-2.7692
 31
0.0
  0
LINE
  5
3D9
  8
0
  6
CONTINUOUS
 62
     7
 10
79.64
 20
-1.7692
 30
0.0
 11
79.64
 21
-2.7692
 31
0.0
  0
LINE
  5
3DA
  8
0
  6
CONTINUOUS
 62
     7
 10
84.19
 20
-1.7692
 30
0.0
 11
79.64
 21
-1.7692
 31
0.0
  0
ARC
  5
3DB
  8
0
  6
CONTINUOUS
 62
     7
 10
84.19
 20
-2.8192
 30
0.0
 40
1.050000000000011
 50
0.0
 51
90.0
  0
LINE
  5
3DC
  8
0
  6
CONTINUOUS
 62
     7
 10
85.24
 20
-4.2692
 30
0.0
 11
85.24
 21
-2.8192
 31
0.0
  0
LINE
  5
3DD
  8
0
  6
CONTINUOUS
 62
     7
 10
84.49
 20
-4.2692
 30
0.0
 11
85.24
 21
-4.2692
 31
0.0
  0
LINE
  5
3DE
  8
0
  6
CONTINUOUS
 62
     7
 10
84.49
 20
-15.3692
 30
0.0
 11
84.49
 21
-4.2692
 31
0.0
  0
LINE
  5
3DF
  8
0
  6
CONTINUOUS
 62
     7
 10
85.24
 20
-15.3692
 30
0.0
 11
84.49
 21
-15.3692
 31
0.0
  0
LINE
  5
3E0
  8
0
  6
CONTINUOUS
 62
     7
 10
85.24
 20
-16.8192
 30
0.0
 11
85.24
 21
-15.3692
 31
0.0
  0
ARC
  5
3E1
  8
0
  6
CONTINUOUS
 62
     7
 10
84.19
 20
-16.8192
 30
0.0
 40
1.049999999999997
 50
270.0
 51
0.0
  0
LINE
  5
3E2
  8
0
  6
CONTINUOUS
 62
     7
 10
79.64
 20
-17.8692
 30
0.0
 11
84.19
 21
-17.8692
 31
0.0
  0
LINE
  5
3E3
  8
0
  6
CONTINUOUS
 62
     7
 10
79.64
 20
-16.8692
 30
0.0
 11
79.64
 21
-17.8692
 31
0.0
  0
LINE
  5
3E4
  8
0
  6
CONTINUOUS
 62
     7
 10
74.74
 20
-16.8692
 30
0.0
 11
79.64
 21
-16.8692
 31
0.0
  0
LINE
  5
3E5
  8
0
  6
CONTINUOUS
 62
     7
 10
74.74
 20
-17.8692
 30
0.0
 11
74.74
 21
-16.8692
 31
0.0
  0
LINE
  5
3E6
  8
0
  6
CONTINUOUS
 62
     7
 10
70.19
 20
-17.8692
 30
0.0
 11
74.74
 21
-17.8692
 31
0.0
  0
ARC
  5
3E7
  8
0
  6
CONTINUOUS
 62
     7
 10
70.19
 20
-16.8192
 30
0.0
 40
1.050000000000011
 50
180.0
 51
270.0
  0
LINE
  5
3E8
  8
0
  6
CONTINUOUS
 62
     7
 10
69.14
 20
-15.3692
 30
0.0
 11
69.14
 21
-16.8192
 31
0.0
  0
LINE
  5
3E9
  8
0
  6
CONTINUOUS
 62
     7
 10
69.89
 20
-15.3692
 30
0.0
 11
69.14
 21
-15.3692
 31
0.0
  0
LINE
  5
3EA
  8
0
  6
CONTINUOUS
 62
     7
 10
69.89
 20
-4.2692
 30
0.0
 11
69.89
 21
-15.3692
 31
0.0
  0
LINE
  5
3EB
  8
0
  6
CONTINUOUS
 62
     7
 10
69.14
 20
-4.2692
 30
0.0
 11
69.89
 21
-4.2692
 31
0.0
  0
LINE
  5
3EC
  8
0
  6
CONTINUOUS
 62
     7
 10
69.14
 20
-2.8192
 30
0.0
 11
69.14
 21
-4.2692
 31
0.0
  0
ARC
  5
3ED
  8
0
  6
CONTINUOUS
 62
     7
 10
70.19
 20
-2.8192
 30
0.0
 40
1.049999999999996
 50
90.0
 51
180.0
  0
LINE
  5
3EE
  8
0
  6
CONTINUOUS
 62
     7
 10
74.74
 20
-1.7692
 30
0.0
 11
70.19
 21
-1.7692
 31
0.0
  0
LINE
  5
3EF
  8
0
  6
CONTINUOUS
 62
     7
 10
94.04
 20
-2.7692
 30
0.0
 11
94.04
 21
-1.7692
 31
0.0
  0
LINE
  5
3F0
  8
0
  6
CONTINUOUS
 62
     7
 10
98.94
 20
-2.7692
 30
0.0
 11
94.04
 21
-2.7692
 31
0.0
  0
LINE
  5
3F1
  8
0
  6
CONTINUOUS
 62
     7
 10
98.94
 20
-1.7692
 30
0.0
 11
98.94
 21
-2.7692
 31
0.0
  0
LINE
  5
3F2
  8
0
  6
CONTINUOUS
 62
     7
 10
103.49
 20
-1.7692
 30
0.0
 11
98.94
 21
-1.7692
 31
0.0
  0
ARC
  5
3F3
  8
0
  6
CONTINUOUS
 62
     7
 10
103.49
 20
-2.8192
 30
0.0
 40
1.050000000000011
 50
0.0
 51
90.0
  0
LINE
  5
3F4
  8
0
  6
CONTINUOUS
 62
     7
 10
104.54
 20
-4.2692
 30
0.0
 11
104.54
 21
-2.8192
 31
0.0
  0
LINE
  5
3F5
  8
0
  6
CONTINUOUS
 62
     7
 10
103.79
 20
-4.2692
 30
0.0
 11
104.54
 21
-4.2692
 31
0.0
  0
LINE
  5
3F6
  8
0
  6
CONTINUOUS
 62
     7
 10
103.79
 20
-15.3692
 30
0.0
 11
103.79
 21
-4.2692
 31
0.0
  0
LINE
  5
3F7
  8
0
  6
CONTINUOUS
 62
     7
 10
104.54
 20
-15.3692
 30
0.0
 11
103.79
 21
-15.3692
 31
0.0
  0
LINE
  5
3F8
  8
0
  6
CONTINUOUS
 62
     7
 10
104.54
 20
-16.8192
 30
0.0
 11
104.54
 21
-15.3692
 31
0.0
  0
ARC
  5
3F9
  8
0
  6
CONTINUOUS
 62
     7
 10
103.49
 20
-16.8192
 30
0.0
 40
1.049999999999997
 50
270.0
 51
0.0
  0
LINE
  5
3FA
  8
0
  6
CONTINUOUS
 62
     7
 10
98.94
 20
-17.8692
 30
0.0
 11
103.49
 21
-17.8692
 31
0.0
  0
LINE
  5
3FB
  8
0
  6
CONTINUOUS
 62
     7
 10
98.94
 20
-16.8692
 30
0.0
 11
98.94
 21
-17.8692
 31
0.0
  0
LINE
  5
3FC
  8
0
  6
CONTINUOUS
 62
     7
 10
94.04
 20
-16.8692
 30
0.0
 11
98.94
 21
-16.8692
 31
0.0
  0
LINE
  5
3FD
  8
0
  6
CONTINUOUS
 62
     7
 10
94.04
 20
-17.8692
 30
0.0
 11
94.04
 21
-16.8692
 31
0.0
  0
LINE
  5
3FE
  8
0
  6
CONTINUOUS
 62
     7
 10
89.49
 20
-17.8692
 30
0.0
 11
94.04
 21
-17.8692
 31
0.0
  0
ARC
  5
3FF
  8
0
  6
CONTINUOUS
 62
     7
 10
89.49
 20
-16.8192
 30
0.0
 40
1.050000000000011
 50
180.0
 51
270.0
  0
LINE
  5
400
  8
0
  6
CONTINUOUS
 62
     7
 10
88.44
 20
-15.3692
 30
0.0
 11
88.44
 21
-16.8192
 31
0.0
  0
LINE
  5
401
  8
0
  6
CONTINUOUS
 62
     7
 10
89.19
 20
-15.3692
 30
0.0
 11
88.44
 21
-15.3692
 31
0.0
  0
LINE
  5
402
  8
0
  6
CONTINUOUS
 62
     7
 10
89.19
 20
-4.2692
 30
0.0
 11
89.19
 21
-15.3692
 31
0.0
  0
LINE
  5
403
  8
0
  6
CONTINUOUS
 62
     7
 10
88.44
 20
-4.2692
 30
0.0
 11
89.19
 21
-4.2692
 31
0.0
  0
LINE
  5
404
  8
0
  6
CONTINUOUS
 62
     7
 10
88.44
 20
-2.8192
 30
0.0
 11
88.44
 21
-4.2692
 31
0.0
  0
ARC
  5
405
  8
0
  6
CONTINUOUS
 62
     7
 10
89.49
 20
-2.8192
 30
0.0
 40
1.049999999999996
 50
90.0
 51
180.0
  0
LINE
  5
406
  8
0
  6
CONTINUOUS
 62
     7
 10
94.04
 20
-1.7692
 30
0.0
 11
89.49
 21
-1.7692
 31
0.0
  0
LINE
  5
407
  8
0
  6
CONTINUOUS
 62
     7
 10
-98.96
 20
-22.0692
 30
0.0
 11
-98.96
 21
-21.0692
 31
0.0
  0
LINE
  5
408
  8
0
  6
CONTINUOUS
 62
     7
 10
-94.06
 20
-22.0692
 30
0.0
 11
-98.96
 21
-22.0692
 31
0.0
  0
LINE
  5
409
  8
0
  6
CONTINUOUS
 62
     7
 10
-94.06
 20
-21.0692
 30
0.0
 11
-94.06
 21
-22.0692
 31
0.0
  0
LINE
  5
40A
  8
0
  6
CONTINUOUS
 62
     7
 10
-89.51
 20
-21.0692
 30
0.0
 11
-94.06
 21
-21.0692
 31
0.0
  0
ARC
  5
40B
  8
0
  6
CONTINUOUS
 62
     7
 10
-89.51
 20
-22.1192
 30
0.0
 40
1.050000000000011
 50
0.0
 51
90.0
  0
LINE
  5
40C
  8
0
  6
CONTINUOUS
 62
     7
 10
-88.46
 20
-23.5692
 30
0.0
 11
-88.46
 21
-22.1192
 31
0.0
  0
LINE
  5
40D
  8
0
  6
CONTINUOUS
 62
     7
 10
-89.21
 20
-23.5692
 30
0.0
 11
-88.46
 21
-23.5692
 31
0.0
  0
LINE
  5
40E
  8
0
  6
CONTINUOUS
 62
     7
 10
-89.21
 20
-34.6692
 30
0.0
 11
-89.21
 21
-23.5692
 31
0.0
  0
LINE
  5
40F
  8
0
  6
CONTINUOUS
 62
     7
 10
-88.46
 20
-34.6692
 30
0.0
 11
-89.21
 21
-34.6692
 31
0.0
  0
LINE
  5
410
  8
0
  6
CONTINUOUS
 62
     7
 10
-88.46
 20
-36.1192
 30
0.0
 11
-88.46
 21
-34.6692
 31
0.0
  0
ARC
  5
411
  8
0
  6
CONTINUOUS
 62
     7
 10
-89.51
 20
-36.1192
 30
0.0
 40
1.049999999999997
 50
270.0
 51
0.0
  0
LINE
  5
412
  8
0
  6
CONTINUOUS
 62
     7
 10
-94.06
 20
-37.1692
 30
0.0
 11
-89.51
 21
-37.1692
 31
0.0
  0
LINE
  5
413
  8
0
  6
CONTINUOUS
 62
     7
 10
-94.06
 20
-36.1692
 30
0.0
 11
-94.06
 21
-37.1692
 31
0.0
  0
LINE
  5
414
  8
0
  6
CONTINUOUS
 62
     7
 10
-98.96
 20
-36.1692
 30
0.0
 11
-94.06
 21
-36.1692
 31
0.0
  0
LINE
  5
415
  8
0
  6
CONTINUOUS
 62
     7
 10
-98.96
 20
-37.1692
 30
0.0
 11
-98.96
 21
-36.1692
 31
0.0
  0
LINE
  5
416
  8
0
  6
CONTINUOUS
 62
     7
 10
-103.51
 20
-37.1692
 30
0.0
 11
-98.96
 21
-37.1692
 31
0.0
  0
ARC
  5
417
  8
0
  6
CONTINUOUS
 62
     7
 10
-103.51
 20
-36.1192
 30
0.0
 40
1.050000000000004
 50
180.0
 51
270.0
  0
LINE
  5
418
  8
0
  6
CONTINUOUS
 62
     7
 10
-104.56
 20
-34.6692
 30
0.0
 11
-104.56
 21
-36.1192
 31
0.0
  0
LINE
  5
419
  8
0
  6
CONTINUOUS
 62
     7
 10
-103.81
 20
-34.6692
 30
0.0
 11
-104.56
 21
-34.6692
 31
0.0
  0
LINE
  5
41A
  8
0
  6
CONTINUOUS
 62
     7
 10
-103.81
 20
-23.5692
 30
0.0
 11
-103.81
 21
-34.6692
 31
0.0
  0
LINE
  5
41B
  8
0
  6
CONTINUOUS
 62
     7
 10
-104.56
 20
-23.5692
 30
0.0
 11
-103.81
 21
-23.5692
 31
0.0
  0
LINE
  5
41C
  8
0
  6
CONTINUOUS
 62
     7
 10
-104.56
 20
-22.1192
 30
0.0
 11
-104.56
 21
-23.5692
 31
0.0
  0
ARC
  5
41D
  8
0
  6
CONTINUOUS
 62
     7
 10
-103.51
 20
-22.1192
 30
0.0
 40
1.049999999999997
 50
90.0
 51
180.0
  0
LINE
  5
41E
  8
0
  6
CONTINUOUS
 62
     7
 10
-98.96
 20
-21.0692
 30
0.0
 11
-103.51
 21
-21.0692
 31
0.0
  0
LINE
  5
41F
  8
0
  6
CONTINUOUS
 62
     7
 10
-79.66
 20
-22.0692
 30
0.0
 11
-79.66
 21
-21.0692
 31
0.0
  0
LINE
  5
420
  8
0
  6
CONTINUOUS
 62
     7
 10
-74.76
 20
-22.0692
 30
0.0
 11
-79.66
 21
-22.0692
 31
0.0
  0
LINE
  5
421
  8
0
  6
CONTINUOUS
 62
     7
 10
-74.76
 20
-21.0692
 30
0.0
 11
-74.76
 21
-22.0692
 31
0.0
  0
LINE
  5
422
  8
0
  6
CONTINUOUS
 62
     7
 10
-70.21
 20
-21.0692
 30
0.0
 11
-74.76
 21
-21.0692
 31
0.0
  0
ARC
  5
423
  8
0
  6
CONTINUOUS
 62
     7
 10
-70.21
 20
-22.1192
 30
0.0
 40
1.050000000000011
 50
0.0
 51
90.0
  0
LINE
  5
424
  8
0
  6
CONTINUOUS
 62
     7
 10
-69.16
 20
-23.5692
 30
0.0
 11
-69.16
 21
-22.1192
 31
0.0
  0
LINE
  5
425
  8
0
  6
CONTINUOUS
 62
     7
 10
-69.91
 20
-23.5692
 30
0.0
 11
-69.16
 21
-23.5692
 31
0.0
  0
LINE
  5
426
  8
0
  6
CONTINUOUS
 62
     7
 10
-69.91
 20
-34.6692
 30
0.0
 11
-69.91
 21
-23.5692
 31
0.0
  0
LINE
  5
427
  8
0
  6
CONTINUOUS
 62
     7
 10
-69.16
 20
-34.6692
 30
0.0
 11
-69.91
 21
-34.6692
 31
0.0
  0
LINE
  5
428
  8
0
  6
CONTINUOUS
 62
     7
 10
-69.16
 20
-36.1192
 30
0.0
 11
-69.16
 21
-34.6692
 31
0.0
  0
ARC
  5
429
  8
0
  6
CONTINUOUS
 62
     7
 10
-70.21
 20
-36.1192
 30
0.0
 40
1.049999999999997
 50
270.0
 51
0.0
  0
LINE
  5
42A
  8
0
  6
CONTINUOUS
 62
     7
 10
-74.76
 20
-37.1692
 30
0.0
 11
-70.21
 21
-37.1692
 31
0.0
  0
LINE
  5
42B
  8
0
  6
CONTINUOUS
 62
     7
 10
-74.76
 20
-36.1692
 30
0.0
 11
-74.76
 21
-37.1692
 31
0.0
  0
LINE
  5
42C
  8
0
  6
CONTINUOUS
 62
     7
 10
-79.66
 20
-36.1692
 30
0.0
 11
-74.76
 21
-36.1692
 31
0.0
  0
LINE
  5
42D
  8
0
  6
CONTINUOUS
 62
     7
 10
-79.66
 20
-37.1692
 30
0.0
 11
-79.66
 21
-36.1692
 31
0.0
  0
LINE
  5
42E
  8
0
  6
CONTINUOUS
 62
     7
 10
-84.21
 20
-37.1692
 30
0.0
 11
-79.66
 21
-37.1692
 31
0.0
  0
ARC
  5
42F
  8
0
  6
CONTINUOUS
 62
     7
 10
-84.21
 20
-36.1192
 30
0.0
 40
1.050000000000004
 50
180.0
 51
270.0
  0
LINE
  5
430
  8
0
  6
CONTINUOUS
 62
     7
 10
-85.26
 20
-34.6692
 30
0.0
 11
-85.26
 21
-36.1192
 31
0.0
  0
LINE
  5
431
  8
0
  6
CONTINUOUS
 62
     7
 10
-84.51
 20
-34.6692
 30
0.0
 11
-85.26
 21
-34.6692
 31
0.0
  0
LINE
  5
432
  8
0
  6
CONTINUOUS
 62
     7
 10
-84.51
 20
-23.5692
 30
0.0
 11
-84.51
 21
-34.6692
 31
0.0
  0
LINE
  5
433
  8
0
  6
CONTINUOUS
 62
     7
 10
-85.26
 20
-23.5692
 30
0.0
 11
-84.51
 21
-23.5692
 31
0.0
  0
LINE
  5
434
  8
0
  6
CONTINUOUS
 62
     7
 10
-85.26
 20
-22.1192
 30
0.0
 11
-85.26
 21
-23.5692
 31
0.0
  0
ARC
  5
435
  8
0
  6
CONTINUOUS
 62
     7
 10
-84.21
 20
-22.1192
 30
0.0
 40
1.049999999999997
 50
90.0
 51
180.0
  0
LINE
  5
436
  8
0
  6
CONTINUOUS
 62
     7
 10
-79.66
 20
-21.0692
 30
0.0
 11
-84.21
 21
-21.0692
 31
0.0
  0
LINE
  5
437
  8
0
  6
CONTINUOUS
 62
     7
 10
-60.36
 20
-22.0692
 30
0.0
 11
-60.36
 21
-21.0692
 31
0.0
  0
LINE
  5
438
  8
0
  6
CONTINUOUS
 62
     7
 10
-55.46
 20
-22.0692
 30
0.0
 11
-60.36
 21
-22.0692
 31
0.0
  0
LINE
  5
439
  8
0
  6
CONTINUOUS
 62
     7
 10
-55.46
 20
-21.0692
 30
0.0
 11
-55.46
 21
-22.0692
 31
0.0
  0
LINE
  5
43A
  8
0
  6
CONTINUOUS
 62
     7
 10
-50.91
 20
-21.0692
 30
0.0
 11
-55.46
 21
-21.0692
 31
0.0
  0
ARC
  5
43B
  8
0
  6
CONTINUOUS
 62
     7
 10
-50.91
 20
-22.1192
 30
0.0
 40
1.050000000000011
 50
0.0
 51
90.0
  0
LINE
  5
43C
  8
0
  6
CONTINUOUS
 62
     7
 10
-49.86
 20
-23.5692
 30
0.0
 11
-49.86
 21
-22.1192
 31
0.0
  0
LINE
  5
43D
  8
0
  6
CONTINUOUS
 62
     7
 10
-50.61
 20
-23.5692
 30
0.0
 11
-49.86
 21
-23.5692
 31
0.0
  0
LINE
  5
43E
  8
0
  6
CONTINUOUS
 62
     7
 10
-50.61
 20
-34.6692
 30
0.0
 11
-50.61
 21
-23.5692
 31
0.0
  0
LINE
  5
43F
  8
0
  6
CONTINUOUS
 62
     7
 10
-49.86
 20
-34.6692
 30
0.0
 11
-50.61
 21
-34.6692
 31
0.0
  0
LINE
  5
440
  8
0
  6
CONTINUOUS
 62
     7
 10
-49.86
 20
-36.1192
 30
0.0
 11
-49.86
 21
-34.6692
 31
0.0
  0
ARC
  5
441
  8
0
  6
CONTINUOUS
 62
     7
 10
-50.91
 20
-36.1192
 30
0.0
 40
1.04999999999999
 50
270.0
 51
0.0
  0
LINE
  5
442
  8
0
  6
CONTINUOUS
 62
     7
 10
-55.46
 20
-37.1692
 30
0.0
 11
-50.91
 21
-37.1692
 31
0.0
  0
LINE
  5
443
  8
0
  6
CONTINUOUS
 62
     7
 10
-55.46
 20
-36.1692
 30
0.0
 11
-55.46
 21
-37.1692
 31
0.0
  0
LINE
  5
444
  8
0
  6
CONTINUOUS
 62
     7
 10
-60.36
 20
-36.1692
 30
0.0
 11
-55.46
 21
-36.1692
 31
0.0
  0
LINE
  5
445
  8
0
  6
CONTINUOUS
 62
     7
 10
-60.36
 20
-37.1692
 30
0.0
 11
-60.36
 21
-36.1692
 31
0.0
  0
LINE
  5
446
  8
0
  6
CONTINUOUS
 62
     7
 10
-64.91
 20
-37.1692
 30
0.0
 11
-60.36
 21
-37.1692
 31
0.0
  0
ARC
  5
447
  8
0
  6
CONTINUOUS
 62
     7
 10
-64.91
 20
-36.1192
 30
0.0
 40
1.050000000000004
 50
180.0
 51
270.0
  0
LINE
  5
448
  8
0
  6
CONTINUOUS
 62
     7
 10
-65.96
 20
-34.6692
 30
0.0
 11
-65.96
 21
-36.1192
 31
0.0
  0
LINE
  5
449
  8
0
  6
CONTINUOUS
 62
     7
 10
-65.21
 20
-34.6692
 30
0.0
 11
-65.96
 21
-34.6692
 31
0.0
  0
LINE
  5
44A
  8
0
  6
CONTINUOUS
 62
     7
 10
-65.21
 20
-23.5692
 30
0.0
 11
-65.21
 21
-34.6692
 31
0.0
  0
LINE
  5
44B
  8
0
  6
CONTINUOUS
 62
     7
 10
-65.96
 20
-23.5692
 30
0.0
 11
-65.21
 21
-23.5692
 31
0.0
  0
LINE
  5
44C
  8
0
  6
CONTINUOUS
 62
     7
 10
-65.96
 20
-22.1192
 30
0.0
 11
-65.96
 21
-23.5692
 31
0.0
  0
ARC
  5
44D
  8
0
  6
CONTINUOUS
 62
     7
 10
-64.91
 20
-22.1192
 30
0.0
 40
1.049999999999997
 50
90.0
 51
180.0
  0
LINE
  5
44E
  8
0
  6
CONTINUOUS
 62
     7
 10
-60.36
 20
-21.0692
 30
0.0
 11
-64.91
 21
-21.0692
 31
0.0
  0
LINE
  5
44F
  8
0
  6
CONTINUOUS
 62
     7
 10
-41.06
 20
-22.0692
 30
0.0
 11
-41.06
 21
-21.0692
 31
0.0
  0
LINE
  5
450
  8
0
  6
CONTINUOUS
 62
     7
 10
-36.16
 20
-22.0692
 30
0.0
 11
-41.06
 21
-22.0692
 31
0.0
  0
LINE
  5
451
  8
0
  6
CONTINUOUS
 62
     7
 10
-36.16
 20
-21.0692
 30
0.0
 11
-36.16
 21
-22.0692
 31
0.0
  0
LINE
  5
452
  8
0
  6
CONTINUOUS
 62
     7
 10
-31.61
 20
-21.0692
 30
0.0
 11
-36.16
 21
-21.0692
 31
0.0
  0
ARC
  5
453
  8
0
  6
CONTINUOUS
 62
     7
 10
-31.61
 20
-22.1192
 30
0.0
 40
1.050000000000011
 50
0.0
 51
90.0
  0
LINE
  5
454
  8
0
  6
CONTINUOUS
 62
     7
 10
-30.56
 20
-23.5692
 30
0.0
 11
-30.56
 21
-22.1192
 31
0.0
  0
LINE
  5
455
  8
0
  6
CONTINUOUS
 62
     7
 10
-31.31
 20
-23.5692
 30
0.0
 11
-30.56
 21
-23.5692
 31
0.0
  0
LINE
  5
456
  8
0
  6
CONTINUOUS
 62
     7
 10
-31.31
 20
-34.6692
 30
0.0
 11
-31.31
 21
-23.5692
 31
0.0
  0
LINE
  5
457
  8
0
  6
CONTINUOUS
 62
     7
 10
-30.56
 20
-34.6692
 30
0.0
 11
-31.31
 21
-34.6692
 31
0.0
  0
LINE
  5
458
  8
0
  6
CONTINUOUS
 62
     7
 10
-30.56
 20
-36.1192
 30
0.0
 11
-30.56
 21
-34.6692
 31
0.0
  0
ARC
  5
459
  8
0
  6
CONTINUOUS
 62
     7
 10
-31.61
 20
-36.1192
 30
0.0
 40
1.049999999999997
 50
270.0
 51
0.0
  0
LINE
  5
45A
  8
0
  6
CONTINUOUS
 62
     7
 10
-36.16
 20
-37.1692
 30
0.0
 11
-31.61
 21
-37.1692
 31
0.0
  0
LINE
  5
45B
  8
0
  6
CONTINUOUS
 62
     7
 10
-36.16
 20
-36.1692
 30
0.0
 11
-36.16
 21
-37.1692
 31
0.0
  0
LINE
  5
45C
  8
0
  6
CONTINUOUS
 62
     7
 10
-41.06
 20
-36.1692
 30
0.0
 11
-36.16
 21
-36.1692
 31
0.0
  0
LINE
  5
45D
  8
0
  6
CONTINUOUS
 62
     7
 10
-41.06
 20
-37.1692
 30
0.0
 11
-41.06
 21
-36.1692
 31
0.0
  0
LINE
  5
45E
  8
0
  6
CONTINUOUS
 62
     7
 10
-45.61
 20
-37.1692
 30
0.0
 11
-41.06
 21
-37.1692
 31
0.0
  0
ARC
  5
45F
  8
0
  6
CONTINUOUS
 62
     7
 10
-45.61
 20
-36.1192
 30
0.0
 40
1.050000000000004
 50
180.0
 51
270.0
  0
LINE
  5
460
  8
0
  6
CONTINUOUS
 62
     7
 10
-46.66
 20
-34.6692
 30
0.0
 11
-46.66
 21
-36.1192
 31
0.0
  0
LINE
  5
461
  8
0
  6
CONTINUOUS
 62
     7
 10
-45.91
 20
-34.6692
 30
0.0
 11
-46.66
 21
-34.6692
 31
0.0
  0
LINE
  5
462
  8
0
  6
CONTINUOUS
 62
     7
 10
-45.91
 20
-23.5692
 30
0.0
 11
-45.91
 21
-34.6692
 31
0.0
  0
LINE
  5
463
  8
0
  6
CONTINUOUS
 62
     7
 10
-46.66
 20
-23.5692
 30
0.0
 11
-45.91
 21
-23.5692
 31
0.0
  0
LINE
  5
464
  8
0
  6
CONTINUOUS
 62
     7
 10
-46.66
 20
-22.1192
 30
0.0
 11
-46.66
 21
-23.5692
 31
0.0
  0
ARC
  5
465
  8
0
  6
CONTINUOUS
 62
     7
 10
-45.61
 20
-22.1192
 30
0.0
 40
1.049999999999997
 50
90.0
 51
180.0
  0
LINE
  5
466
  8
0
  6
CONTINUOUS
 62
     7
 10
-41.06
 20
-21.0692
 30
0.0
 11
-45.61
 21
-21.0692
 31
0.0
  0
LINE
  5
467
  8
0
  6
CONTINUOUS
 62
     7
 10
-21.76
 20
-22.0692
 30
0.0
 11
-21.76
 21
-21.0692
 31
0.0
  0
LINE
  5
468
  8
0
  6
CONTINUOUS
 62
     7
 10
-16.86
 20
-22.0692
 30
0.0
 11
-21.76
 21
-22.0692
 31
0.0
  0
LINE
  5
469
  8
0
  6
CONTINUOUS
 62
     7
 10
-16.86
 20
-21.0692
 30
0.0
 11
-16.86
 21
-22.0692
 31
0.0
  0
LINE
  5
46A
  8
0
  6
CONTINUOUS
 62
     7
 10
-12.31
 20
-21.0692
 30
0.0
 11
-16.86
 21
-21.0692
 31
0.0
  0
ARC
  5
46B
  8
0
  6
CONTINUOUS
 62
     7
 10
-12.31
 20
-22.1192
 30
0.0
 40
1.05000000000001
 50
0.0
 51
90.0
  0
LINE
  5
46C
  8
0
  6
CONTINUOUS
 62
     7
 10
-11.26
 20
-23.5692
 30
0.0
 11
-11.26
 21
-22.1192
 31
0.0
  0
LINE
  5
46D
  8
0
  6
CONTINUOUS
 62
     7
 10
-12.01
 20
-23.5692
 30
0.0
 11
-11.26
 21
-23.5692
 31
0.0
  0
LINE
  5
46E
  8
0
  6
CONTINUOUS
 62
     7
 10
-12.01
 20
-34.6692
 30
0.0
 11
-12.01
 21
-23.5692
 31
0.0
  0
LINE
  5
46F
  8
0
  6
CONTINUOUS
 62
     7
 10
-11.26
 20
-34.6692
 30
0.0
 11
-12.01
 21
-34.6692
 31
0.0
  0
LINE
  5
470
  8
0
  6
CONTINUOUS
 62
     7
 10
-11.26
 20
-36.1192
 30
0.0
 11
-11.26
 21
-34.6692
 31
0.0
  0
ARC
  5
471
  8
0
  6
CONTINUOUS
 62
     7
 10
-12.31
 20
-36.1192
 30
0.0
 40
1.049999999999995
 50
270.0
 51
0.0
  0
LINE
  5
472
  8
0
  6
CONTINUOUS
 62
     7
 10
-16.86
 20
-37.1692
 30
0.0
 11
-12.31
 21
-37.1692
 31
0.0
  0
LINE
  5
473
  8
0
  6
CONTINUOUS
 62
     7
 10
-16.86
 20
-36.1692
 30
0.0
 11
-16.86
 21
-37.1692
 31
0.0
  0
LINE
  5
474
  8
0
  6
CONTINUOUS
 62
     7
 10
-21.76
 20
-36.1692
 30
0.0
 11
-16.86
 21
-36.1692
 31
0.0
  0
LINE
  5
475
  8
0
  6
CONTINUOUS
 62
     7
 10
-21.76
 20
-37.1692
 30
0.0
 11
-21.76
 21
-36.1692
 31
0.0
  0
LINE
  5
476
  8
0
  6
CONTINUOUS
 62
     7
 10
-26.31
 20
-37.1692
 30
0.0
 11
-21.76
 21
-37.1692
 31
0.0
  0
ARC
  5
477
  8
0
  6
CONTINUOUS
 62
     7
 10
-26.31
 20
-36.1192
 30
0.0
 40
1.050000000000004
 50
180.0
 51
270.0
  0
LINE
  5
478
  8
0
  6
CONTINUOUS
 62
     7
 10
-27.36
 20
-34.6692
 30
0.0
 11
-27.36
 21
-36.1192
 31
0.0
  0
LINE
  5
479
  8
0
  6
CONTINUOUS
 62
     7
 10
-26.61
 20
-34.6692
 30
0.0
 11
-27.36
 21
-34.6692
 31
0.0
  0
LINE
  5
47A
  8
0
  6
CONTINUOUS
 62
     7
 10
-26.61
 20
-23.5692
 30
0.0
 11
-26.61
 21
-34.6692
 31
0.0
  0
LINE
  5
47B
  8
0
  6
CONTINUOUS
 62
     7
 10
-27.36
 20
-23.5692
 30
0.0
 11
-26.61
 21
-23.5692
 31
0.0
  0
LINE
  5
47C
  8
0
  6
CONTINUOUS
 62
     7
 10
-27.36
 20
-22.1192
 30
0.0
 11
-27.36
 21
-23.5692
 31
0.0
  0
ARC
  5
47D
  8
0
  6
CONTINUOUS
 62
     7
 10
-26.31
 20
-22.1192
 30
0.0
 40
1.049999999999997
 50
90.0
 51
180.0
  0
LINE
  5
47E
  8
0
  6
CONTINUOUS
 62
     7
 10
-21.76
 20
-21.0692
 30
0.0
 11
-26.31
 21
-21.0692
 31
0.0
  0
LINE
  5
47F
  8
0
  6
CONTINUOUS
 62
     7
 10
-2.46
 20
-22.0692
 30
0.0
 11
-2.46
 21
-21.0692
 31
0.0
  0
LINE
  5
480
  8
0
  6
CONTINUOUS
 62
     7
 10
2.44
 20
-22.0692
 30
0.0
 11
-2.46
 21
-22.0692
 31
0.0
  0
LINE
  5
481
  8
0
  6
CONTINUOUS
 62
     7
 10
2.44
 20
-21.0692
 30
0.0
 11
2.44
 21
-22.0692
 31
0.0
  0
LINE
  5
482
  8
0
  6
CONTINUOUS
 62
     7
 10
6.99
 20
-21.0692
 30
0.0
 11
2.44
 21
-21.0692
 31
0.0
  0
ARC
  5
483
  8
0
  6
CONTINUOUS
 62
     7
 10
6.99
 20
-22.1192
 30
0.0
 40
1.050000000000009
 50
0.0
 51
90.0
  0
LINE
  5
484
  8
0
  6
CONTINUOUS
 62
     7
 10
8.04
 20
-23.5692
 30
0.0
 11
8.04
 21
-22.1192
 31
0.0
  0
LINE
  5
485
  8
0
  6
CONTINUOUS
 62
     7
 10
7.29
 20
-23.5692
 30
0.0
 11
8.04
 21
-23.5692
 31
0.0
  0
LINE
  5
486
  8
0
  6
CONTINUOUS
 62
     7
 10
7.29
 20
-34.6692
 30
0.0
 11
7.29
 21
-23.5692
 31
0.0
  0
LINE
  5
487
  8
0
  6
CONTINUOUS
 62
     7
 10
8.04
 20
-34.6692
 30
0.0
 11
7.29
 21
-34.6692
 31
0.0
  0
LINE
  5
488
  8
0
  6
CONTINUOUS
 62
     7
 10
8.04
 20
-36.1192
 30
0.0
 11
8.04
 21
-34.6692
 31
0.0
  0
ARC
  5
489
  8
0
  6
CONTINUOUS
 62
     7
 10
6.99
 20
-36.1192
 30
0.0
 40
1.049999999999994
 50
270.0
 51
0.0
  0
LINE
  5
48A
  8
0
  6
CONTINUOUS
 62
     7
 10
2.44
 20
-37.1692
 30
0.0
 11
6.99
 21
-37.1692
 31
0.0
  0
LINE
  5
48B
  8
0
  6
CONTINUOUS
 62
     7
 10
2.44
 20
-36.1692
 30
0.0
 11
2.44
 21
-37.1692
 31
0.0
  0
LINE
  5
48C
  8
0
  6
CONTINUOUS
 62
     7
 10
-2.46
 20
-36.1692
 30
0.0
 11
2.44
 21
-36.1692
 31
0.0
  0
LINE
  5
48D
  8
0
  6
CONTINUOUS
 62
     7
 10
-2.46
 20
-37.1692
 30
0.0
 11
-2.46
 21
-36.1692
 31
0.0
  0
LINE
  5
48E
  8
0
  6
CONTINUOUS
 62
     7
 10
-7.01
 20
-37.1692
 30
0.0
 11
-2.46
 21
-37.1692
 31
0.0
  0
ARC
  5
48F
  8
0
  6
CONTINUOUS
 62
     7
 10
-7.01
 20
-36.1192
 30
0.0
 40
1.050000000000004
 50
180.0
 51
270.0
  0
LINE
  5
490
  8
0
  6
CONTINUOUS
 62
     7
 10
-8.06
 20
-34.6692
 30
0.0
 11
-8.06
 21
-36.1192
 31
0.0
  0
LINE
  5
491
  8
0
  6
CONTINUOUS
 62
     7
 10
-7.31
 20
-34.6692
 30
0.0
 11
-8.06
 21
-34.6692
 31
0.0
  0
LINE
  5
492
  8
0
  6
CONTINUOUS
 62
     7
 10
-7.31
 20
-23.5692
 30
0.0
 11
-7.31
 21
-34.6692
 31
0.0
  0
LINE
  5
493
  8
0
  6
CONTINUOUS
 62
     7
 10
-8.06
 20
-23.5692
 30
0.0
 11
-7.31
 21
-23.5692
 31
0.0
  0
LINE
  5
494
  8
0
  6
CONTINUOUS
 62
     7
 10
-8.06
 20
-22.1192
 30
0.0
 11
-8.06
 21
-23.5692
 31
0.0
  0
ARC
  5
495
  8
0
  6
CONTINUOUS
 62
     7
 10
-7.01
 20
-22.1192
 30
0.0
 40
1.049999999999997
 50
90.0
 51
180.0
  0
LINE
  5
496
  8
0
  6
CONTINUOUS
 62
     7
 10
-2.46
 20
-21.0692
 30
0.0
 11
-7.01
 21
-21.0692
 31
0.0
  0
LINE
  5
497
  8
0
  6
CONTINUOUS
 62
     7
 10
16.84
 20
-22.0692
 30
0.0
 11
16.84
 21
-21.0692
 31
0.0
  0
LINE
  5
498
  8
0
  6
CONTINUOUS
 62
     7
 10
21.74
 20
-22.0692
 30
0.0
 11
16.84
 21
-22.0692
 31
0.0
  0
LINE
  5
499
  8
0
  6
CONTINUOUS
 62
     7
 10
21.74
 20
-21.0692
 30
0.0
 11
21.74
 21
-22.0692
 31
0.0
  0
LINE
  5
49A
  8
0
  6
CONTINUOUS
 62
     7
 10
26.29
 20
-21.0692
 30
0.0
 11
21.74
 21
-21.0692
 31
0.0
  0
ARC
  5
49B
  8
0
  6
CONTINUOUS
 62
     7
 10
26.29
 20
-22.1192
 30
0.0
 40
1.050000000000008
 50
0.0
 51
90.0
  0
LINE
  5
49C
  8
0
  6
CONTINUOUS
 62
     7
 10
27.34
 20
-23.5692
 30
0.0
 11
27.34
 21
-22.1192
 31
0.0
  0
LINE
  5
49D
  8
0
  6
CONTINUOUS
 62
     7
 10
26.59
 20
-23.5692
 30
0.0
 11
27.34
 21
-23.5692
 31
0.0
  0
LINE
  5
49E
  8
0
  6
CONTINUOUS
 62
     7
 10
26.59
 20
-34.6692
 30
0.0
 11
26.59
 21
-23.5692
 31
0.0
  0
LINE
  5
49F
  8
0
  6
CONTINUOUS
 62
     7
 10
27.34
 20
-34.6692
 30
0.0
 11
26.59
 21
-34.6692
 31
0.0
  0
LINE
  5
4A0
  8
0
  6
CONTINUOUS
 62
     7
 10
27.34
 20
-36.1192
 30
0.0
 11
27.34
 21
-34.6692
 31
0.0
  0
ARC
  5
4A1
  8
0
  6
CONTINUOUS
 62
     7
 10
26.29
 20
-36.1192
 30
0.0
 40
1.049999999999994
 50
270.0
 51
0.0
  0
LINE
  5
4A2
  8
0
  6
CONTINUOUS
 62
     7
 10
21.74
 20
-37.1692
 30
0.0
 11
26.29
 21
-37.1692
 31
0.0
  0
LINE
  5
4A3
  8
0
  6
CONTINUOUS
 62
     7
 10
21.74
 20
-36.1692
 30
0.0
 11
21.74
 21
-37.1692
 31
0.0
  0
LINE
  5
4A4
  8
0
  6
CONTINUOUS
 62
     7
 10
16.84
 20
-36.1692
 30
0.0
 11
21.74
 21
-36.1692
 31
0.0
  0
LINE
  5
4A5
  8
0
  6
CONTINUOUS
 62
     7
 10
16.84
 20
-37.1692
 30
0.0
 11
16.84
 21
-36.1692
 31
0.0
  0
LINE
  5
4A6
  8
0
  6
CONTINUOUS
 62
     7
 10
12.29
 20
-37.1692
 30
0.0
 11
16.84
 21
-37.1692
 31
0.0
  0
ARC
  5
4A7
  8
0
  6
CONTINUOUS
 62
     7
 10
12.29
 20
-36.1192
 30
0.0
 40
1.050000000000004
 50
180.0
 51
270.0
  0
LINE
  5
4A8
  8
0
  6
CONTINUOUS
 62
     7
 10
11.24
 20
-34.6692
 30
0.0
 11
11.24
 21
-36.1192
 31
0.0
  0
LINE
  5
4A9
  8
0
  6
CONTINUOUS
 62
     7
 10
11.99
 20
-34.6692
 30
0.0
 11
11.24
 21
-34.6692
 31
0.0
  0
LINE
  5
4AA
  8
0
  6
CONTINUOUS
 62
     7
 10
11.99
 20
-23.5692
 30
0.0
 11
11.99
 21
-34.6692
 31
0.0
  0
LINE
  5
4AB
  8
0
  6
CONTINUOUS
 62
     7
 10
11.24
 20
-23.5692
 30
0.0
 11
11.99
 21
-23.5692
 31
0.0
  0
LINE
  5
4AC
  8
0
  6
CONTINUOUS
 62
     7
 10
11.24
 20
-22.1192
 30
0.0
 11
11.24
 21
-23.5692
 31
0.0
  0
ARC
  5
4AD
  8
0
  6
CONTINUOUS
 62
     7
 10
12.29
 20
-22.1192
 30
0.0
 40
1.049999999999997
 50
90.0
 51
180.0
  0
LINE
  5
4AE
  8
0
  6
CONTINUOUS
 62
     7
 10
16.84
 20
-21.0692
 30
0.0
 11
12.29
 21
-21.0692
 31
0.0
  0
LINE
  5
4AF
  8
0
  6
CONTINUOUS
 62
     7
 10
36.14
 20
-22.0692
 30
0.0
 11
36.14
 21
-21.0692
 31
0.0
  0
LINE
  5
4B0
  8
0
  6
CONTINUOUS
 62
     7
 10
41.04
 20
-22.0692
 30
0.0
 11
36.14
 21
-22.0692
 31
0.0
  0
LINE
  5
4B1
  8
0
  6
CONTINUOUS
 62
     7
 10
41.04
 20
-21.0692
 30
0.0
 11
41.04
 21
-22.0692
 31
0.0
  0
LINE
  5
4B2
  8
0
  6
CONTINUOUS
 62
     7
 10
45.59
 20
-21.0692
 30
0.0
 11
41.04
 21
-21.0692
 31
0.0
  0
ARC
  5
4B3
  8
0
  6
CONTINUOUS
 62
     7
 10
45.59
 20
-22.1192
 30
0.0
 40
1.050000000000011
 50
0.0
 51
90.0
  0
LINE
  5
4B4
  8
0
  6
CONTINUOUS
 62
     7
 10
46.64
 20
-23.5692
 30
0.0
 11
46.64
 21
-22.1192
 31
0.0
  0
LINE
  5
4B5
  8
0
  6
CONTINUOUS
 62
     7
 10
45.89
 20
-23.5692
 30
0.0
 11
46.64
 21
-23.5692
 31
0.0
  0
LINE
  5
4B6
  8
0
  6
CONTINUOUS
 62
     7
 10
45.89
 20
-34.6692
 30
0.0
 11
45.89
 21
-23.5692
 31
0.0
  0
LINE
  5
4B7
  8
0
  6
CONTINUOUS
 62
     7
 10
46.64
 20
-34.6692
 30
0.0
 11
45.89
 21
-34.6692
 31
0.0
  0
LINE
  5
4B8
  8
0
  6
CONTINUOUS
 62
     7
 10
46.64
 20
-36.1192
 30
0.0
 11
46.64
 21
-34.6692
 31
0.0
  0
ARC
  5
4B9
  8
0
  6
CONTINUOUS
 62
     7
 10
45.59
 20
-36.1192
 30
0.0
 40
1.049999999999997
 50
270.0
 51
0.0
  0
LINE
  5
4BA
  8
0
  6
CONTINUOUS
 62
     7
 10
41.04
 20
-37.1692
 30
0.0
 11
45.59
 21
-37.1692
 31
0.0
  0
LINE
  5
4BB
  8
0
  6
CONTINUOUS
 62
     7
 10
41.04
 20
-36.1692
 30
0.0
 11
41.04
 21
-37.1692
 31
0.0
  0
LINE
  5
4BC
  8
0
  6
CONTINUOUS
 62
     7
 10
36.14
 20
-36.1692
 30
0.0
 11
41.04
 21
-36.1692
 31
0.0
  0
LINE
  5
4BD
  8
0
  6
CONTINUOUS
 62
     7
 10
36.14
 20
-37.1692
 30
0.0
 11
36.14
 21
-36.1692
 31
0.0
  0
LINE
  5
4BE
  8
0
  6
CONTINUOUS
 62
     7
 10
31.59
 20
-37.1692
 30
0.0
 11
36.14
 21
-37.1692
 31
0.0
  0
ARC
  5
4BF
  8
0
  6
CONTINUOUS
 62
     7
 10
31.59
 20
-36.1192
 30
0.0
 40
1.050000000000004
 50
180.0
 51
270.0
  0
LINE
  5
4C0
  8
0
  6
CONTINUOUS
 62
     7
 10
30.54
 20
-34.6692
 30
0.0
 11
30.54
 21
-36.1192
 31
0.0
  0
LINE
  5
4C1
  8
0
  6
CONTINUOUS
 62
     7
 10
31.29
 20
-34.6692
 30
0.0
 11
30.54
 21
-34.6692
 31
0.0
  0
LINE
  5
4C2
  8
0
  6
CONTINUOUS
 62
     7
 10
31.29
 20
-23.5692
 30
0.0
 11
31.29
 21
-34.6692
 31
0.0
  0
LINE
  5
4C3
  8
0
  6
CONTINUOUS
 62
     7
 10
30.54
 20
-23.5692
 30
0.0
 11
31.29
 21
-23.5692
 31
0.0
  0
LINE
  5
4C4
  8
0
  6
CONTINUOUS
 62
     7
 10
30.54
 20
-22.1192
 30
0.0
 11
30.54
 21
-23.5692
 31
0.0
  0
ARC
  5
4C5
  8
0
  6
CONTINUOUS
 62
     7
 10
31.59
 20
-22.1192
 30
0.0
 40
1.049999999999997
 50
90.0
 51
180.0
  0
LINE
  5
4C6
  8
0
  6
CONTINUOUS
 62
     7
 10
36.14
 20
-21.0692
 30
0.0
 11
31.59
 21
-21.0692
 31
0.0
  0
LINE
  5
4C7
  8
0
  6
CONTINUOUS
 62
     7
 10
55.44
 20
-22.0692
 30
0.0
 11
55.44
 21
-21.0692
 31
0.0
  0
LINE
  5
4C8
  8
0
  6
CONTINUOUS
 62
     7
 10
60.34
 20
-22.0692
 30
0.0
 11
55.44
 21
-22.0692
 31
0.0
  0
LINE
  5
4C9
  8
0
  6
CONTINUOUS
 62
     7
 10
60.34
 20
-21.0692
 30
0.0
 11
60.34
 21
-22.0692
 31
0.0
  0
LINE
  5
4CA
  8
0
  6
CONTINUOUS
 62
     7
 10
64.89
 20
-21.0692
 30
0.0
 11
60.34
 21
-21.0692
 31
0.0
  0
ARC
  5
4CB
  8
0
  6
CONTINUOUS
 62
     7
 10
64.89
 20
-22.1192
 30
0.0
 40
1.050000000000011
 50
0.0
 51
90.0
  0
LINE
  5
4CC
  8
0
  6
CONTINUOUS
 62
     7
 10
65.94
 20
-23.5692
 30
0.0
 11
65.94
 21
-22.1192
 31
0.0
  0
LINE
  5
4CD
  8
0
  6
CONTINUOUS
 62
     7
 10
65.19
 20
-23.5692
 30
0.0
 11
65.94
 21
-23.5692
 31
0.0
  0
LINE
  5
4CE
  8
0
  6
CONTINUOUS
 62
     7
 10
65.19
 20
-34.6692
 30
0.0
 11
65.19
 21
-23.5692
 31
0.0
  0
LINE
  5
4CF
  8
0
  6
CONTINUOUS
 62
     7
 10
65.94
 20
-34.6692
 30
0.0
 11
65.19
 21
-34.6692
 31
0.0
  0
LINE
  5
4D0
  8
0
  6
CONTINUOUS
 62
     7
 10
65.94
 20
-36.1192
 30
0.0
 11
65.94
 21
-34.6692
 31
0.0
  0
ARC
  5
4D1
  8
0
  6
CONTINUOUS
 62
     7
 10
64.89
 20
-36.1192
 30
0.0
 40
1.049999999999997
 50
270.0
 51
0.0
  0
LINE
  5
4D2
  8
0
  6
CONTINUOUS
 62
     7
 10
60.34
 20
-37.1692
 30
0.0
 11
64.89
 21
-37.1692
 31
0.0
  0
LINE
  5
4D3
  8
0
  6
CONTINUOUS
 62
     7
 10
60.34
 20
-36.1692
 30
0.0
 11
60.34
 21
-37.1692
 31
0.0
  0
LINE
  5
4D4
  8
0
  6
CONTINUOUS
 62
     7
 10
55.44
 20
-36.1692
 30
0.0
 11
60.34
 21
-36.1692
 31
0.0
  0
LINE
  5
4D5
  8
0
  6
CONTINUOUS
 62
     7
 10
55.44
 20
-37.1692
 30
0.0
 11
55.44
 21
-36.1692
 31
0.0
  0
LINE
  5
4D6
  8
0
  6
CONTINUOUS
 62
     7
 10
50.89
 20
-37.1692
 30
0.0
 11
55.44
 21
-37.1692
 31
0.0
  0
ARC
  5
4D7
  8
0
  6
CONTINUOUS
 62
     7
 10
50.89
 20
-36.1192
 30
0.0
 40
1.050000000000004
 50
180.0
 51
270.0
  0
LINE
  5
4D8
  8
0
  6
CONTINUOUS
 62
     7
 10
49.84
 20
-34.6692
 30
0.0
 11
49.84
 21
-36.1192
 31
0.0
  0
LINE
  5
4D9
  8
0
  6
CONTINUOUS
 62
     7
 10
50.59
 20
-34.6692
 30
0.0
 11
49.84
 21
-34.6692
 31
0.0
  0
LINE
  5
4DA
  8
0
  6
CONTINUOUS
 62
     7
 10
50.59
 20
-23.5692
 30
0.0
 11
50.59
 21
-34.6692
 31
0.0
  0
LINE
  5
4DB
  8
0
  6
CONTINUOUS
 62
     7
 10
49.84
 20
-23.5692
 30
0.0
 11
50.59
 21
-23.5692
 31
0.0
  0
LINE
  5
4DC
  8
0
  6
CONTINUOUS
 62
     7
 10
49.84
 20
-22.1192
 30
0.0
 11
49.84
 21
-23.5692
 31
0.0
  0
ARC
  5
4DD
  8
0
  6
CONTINUOUS
 62
     7
 10
50.89
 20
-22.1192
 30
0.0
 40
1.049999999999997
 50
90.0
 51
180.0
  0
LINE
  5
4DE
  8
0
  6
CONTINUOUS
 62
     7
 10
55.44
 20
-21.0692
 30
0.0
 11
50.89
 21
-21.0692
 31
0.0
  0
LINE
  5
4DF
  8
0
  6
CONTINUOUS
 62
     7
 10
74.74
 20
-22.0692
 30
0.0
 11
74.74
 21
-21.0692
 31
0.0
  0
LINE
  5
4E0
  8
0
  6
CONTINUOUS
 62
     7
 10
79.64
 20
-22.0692
 30
0.0
 11
74.74
 21
-22.0692
 31
0.0
  0
LINE
  5
4E1
  8
0
  6
CONTINUOUS
 62
     7
 10
79.64
 20
-21.0692
 30
0.0
 11
79.64
 21
-22.0692
 31
0.0
  0
LINE
  5
4E2
  8
0
  6
CONTINUOUS
 62
     7
 10
84.19
 20
-21.0692
 30
0.0
 11
79.64
 21
-21.0692
 31
0.0
  0
ARC
  5
4E3
  8
0
  6
CONTINUOUS
 62
     7
 10
84.19
 20
-22.1192
 30
0.0
 40
1.050000000000011
 50
0.0
 51
90.0
  0
LINE
  5
4E4
  8
0
  6
CONTINUOUS
 62
     7
 10
85.24
 20
-23.5692
 30
0.0
 11
85.24
 21
-22.1192
 31
0.0
  0
LINE
  5
4E5
  8
0
  6
CONTINUOUS
 62
     7
 10
84.49
 20
-23.5692
 30
0.0
 11
85.24
 21
-23.5692
 31
0.0
  0
LINE
  5
4E6
  8
0
  6
CONTINUOUS
 62
     7
 10
84.49
 20
-34.6692
 30
0.0
 11
84.49
 21
-23.5692
 31
0.0
  0
LINE
  5
4E7
  8
0
  6
CONTINUOUS
 62
     7
 10
85.24
 20
-34.6692
 30
0.0
 11
84.49
 21
-34.6692
 31
0.0
  0
LINE
  5
4E8
  8
0
  6
CONTINUOUS
 62
     7
 10
85.24
 20
-36.1192
 30
0.0
 11
85.24
 21
-34.6692
 31
0.0
  0
ARC
  5
4E9
  8
0
  6
CONTINUOUS
 62
     7
 10
84.19
 20
-36.1192
 30
0.0
 40
1.049999999999997
 50
270.0
 51
0.0
  0
LINE
  5
4EA
  8
0
  6
CONTINUOUS
 62
     7
 10
79.64
 20
-37.1692
 30
0.0
 11
84.19
 21
-37.1692
 31
0.0
  0
LINE
  5
4EB
  8
0
  6
CONTINUOUS
 62
     7
 10
79.64
 20
-36.1692
 30
0.0
 11
79.64
 21
-37.1692
 31
0.0
  0
LINE
  5
4EC
  8
0
  6
CONTINUOUS
 62
     7
 10
74.74
 20
-36.1692
 30
0.0
 11
79.64
 21
-36.1692
 31
0.0
  0
LINE
  5
4ED
  8
0
  6
CONTINUOUS
 62
     7
 10
74.74
 20
-37.1692
 30
0.0
 11
74.74
 21
-36.1692
 31
0.0
  0
LINE
  5
4EE
  8
0
  6
CONTINUOUS
 62
     7
 10
70.19
 20
-37.1692
 30
0.0
 11
74.74
 21
-37.1692
 31
0.0
  0
ARC
  5
4EF
  8
0
  6
CONTINUOUS
 62
     7
 10
70.19
 20
-36.1192
 30
0.0
 40
1.050000000000004
 50
180.0
 51
270.0
  0
LINE
  5
4F0
  8
0
  6
CONTINUOUS
 62
     7
 10
69.14
 20
-34.6692
 30
0.0
 11
69.14
 21
-36.1192
 31
0.0
  0
LINE
  5
4F1
  8
0
  6
CONTINUOUS
 62
     7
 10
69.89
 20
-34.6692
 30
0.0
 11
69.14
 21
-34.6692
 31
0.0
  0
LINE
  5
4F2
  8
0
  6
CONTINUOUS
 62
     7
 10
69.89
 20
-23.5692
 30
0.0
 11
69.89
 21
-34.6692
 31
0.0
  0
LINE
  5
4F3
  8
0
  6
CONTINUOUS
 62
     7
 10
69.14
 20
-23.5692
 30
0.0
 11
69.89
 21
-23.5692
 31
0.0
  0
LINE
  5
4F4
  8
0
  6
CONTINUOUS
 62
     7
 10
69.14
 20
-22.1192
 30
0.0
 11
69.14
 21
-23.5692
 31
0.0
  0
ARC
  5
4F5
  8
0
  6
CONTINUOUS
 62
     7
 10
70.19
 20
-22.1192
 30
0.0
 40
1.049999999999997
 50
90.0
 51
180.0
  0
LINE
  5
4F6
  8
0
  6
CONTINUOUS
 62
     7
 10
74.74
 20
-21.0692
 30
0.0
 11
70.19
 21
-21.0692
 31
0.0
  0
LINE
  5
4F7
  8
0
  6
CONTINUOUS
 62
     7
 10
94.04
 20
-22.0692
 30
0.0
 11
94.04
 21
-21.0692
 31
0.0
  0
LINE
  5
4F8
  8
0
  6
CONTINUOUS
 62
     7
 10
98.94
 20
-22.0692
 30
0.0
 11
94.04
 21
-22.0692
 31
0.0
  0
LINE
  5
4F9
  8
0
  6
CONTINUOUS
 62
     7
 10
98.94
 20
-21.0692
 30
0.0
 11
98.94
 21
-22.0692
 31
0.0
  0
LINE
  5
4FA
  8
0
  6
CONTINUOUS
 62
     7
 10
103.49
 20
-21.0692
 30
0.0
 11
98.94
 21
-21.0692
 31
0.0
  0
ARC
  5
4FB
  8
0
  6
CONTINUOUS
 62
     7
 10
103.49
 20
-22.1192
 30
0.0
 40
1.050000000000011
 50
0.0
 51
90.0
  0
LINE
  5
4FC
  8
0
  6
CONTINUOUS
 62
     7
 10
104.54
 20
-23.5692
 30
0.0
 11
104.54
 21
-22.1192
 31
0.0
  0
LINE
  5
4FD
  8
0
  6
CONTINUOUS
 62
     7
 10
103.79
 20
-23.5692
 30
0.0
 11
104.54
 21
-23.5692
 31
0.0
  0
LINE
  5
4FE
  8
0
  6
CONTINUOUS
 62
     7
 10
103.79
 20
-34.6692
 30
0.0
 11
103.79
 21
-23.5692
 31
0.0
  0
LINE
  5
4FF
  8
0
  6
CONTINUOUS
 62
     7
 10
104.54
 20
-34.6692
 30
0.0
 11
103.79
 21
-34.6692
 31
0.0
  0
LINE
  5
500
  8
0
  6
CONTINUOUS
 62
     7
 10
104.54
 20
-36.1192
 30
0.0
 11
104.54
 21
-34.6692
 31
0.0
  0
ARC
  5
501
  8
0
  6
CONTINUOUS
 62
     7
 10
103.49
 20
-36.1192
 30
0.0
 40
1.049999999999997
 50
270.0
 51
0.0
  0
LINE
  5
502
  8
0
  6
CONTINUOUS
 62
     7
 10
98.94
 20
-37.1692
 30
0.0
 11
103.49
 21
-37.1692
 31
0.0
  0
LINE
  5
503
  8
0
  6
CONTINUOUS
 62
     7
 10
98.94
 20
-36.1692
 30
0.0
 11
98.94
 21
-37.1692
 31
0.0
  0
LINE
  5
504
  8
0
  6
CONTINUOUS
 62
     7
 10
94.04
 20
-36.1692
 30
0.0
 11
98.94
 21
-36.1692
 31
0.0
  0
LINE
  5
505
  8
0
  6
CONTINUOUS
 62
     7
 10
94.04
 20
-37.1692
 30
0.0
 11
94.04
 21
-36.1692
 31
0.0
  0
LINE
  5
506
  8
0
  6
CONTINUOUS
 62
     7
 10
89.49
 20
-37.1692
 30
0.0
 11
94.04
 21
-37.1692
 31
0.0
  0
ARC
  5
507
  8
0
  6
CONTINUOUS
 62
     7
 10
89.49
 20
-36.1192
 30
0.0
 40
1.050000000000004
 50
180.0
 51
270.0
  0
LINE
  5
508
  8
0
  6
CONTINUOUS
 62
     7
 10
88.44
 20
-34.6692
 30
0.0
 11
88.44
 21
-36.1192
 31
0.0
  0
LINE
  5
509
  8
0
  6
CONTINUOUS
 62
     7
 10
89.19
 20
-34.6692
 30
0.0
 11
88.44
 21
-34.6692
 31
0.0
  0
LINE
  5
50A
  8
0
  6
CONTINUOUS
 62
     7
 10
89.19
 20
-23.5692
 30
0.0
 11
89.19
 21
-34.6692
 31
0.0
  0
LINE
  5
50B
  8
0
  6
CONTINUOUS
 62
     7
 10
88.44
 20
-23.5692
 30
0.0
 11
89.19
 21
-23.5692
 31
0.0
  0
LINE
  5
50C
  8
0
  6
CONTINUOUS
 62
     7
 10
88.44
 20
-22.1192
 30
0.0
 11
88.44
 21
-23.5692
 31
0.0
  0
ARC
  5
50D
  8
0
  6
CONTINUOUS
 62
     7
 10
89.49
 20
-22.1192
 30
0.0
 40
1.049999999999997
 50
90.0
 51
180.0
  0
LINE
  5
50E
  8
0
  6
CONTINUOUS
 62
     7
 10
94.04
 20
-21.0692
 30
0.0
 11
89.49
 21
-21.0692
 31
0.0
  0
ENDSEC
  0
EOF
